<svg width="19" height="19" viewBox="0 0 19 19" fill="none" xmlns="http://www.w3.org/2000/svg">
<path d="M9.50023 0C6.98058 0 4.56443 1.00099 2.78255 2.78255C1.00099 4.56411 0 6.98039 0 9.50023C0 12.0197 1.00099 14.436 2.78255 16.2174C4.56411 17.9992 6.98039 19 9.50023 19C12.0197 19 14.436 17.9992 16.2174 16.2174C17.9992 14.4359 19 12.0196 19 9.50023C19 6.98058 17.9992 4.56443 16.2174 2.78255C14.4359 1.00099 12.0196 0 9.50023 0ZM9.50023 17.1727V17.1729C7.4652 17.1729 5.51339 16.3644 4.07475 14.9254C2.63569 13.4865 1.82742 11.5349 1.82742 9.4999C1.82742 7.46492 2.63569 5.51306 4.07475 4.07442C5.51362 2.63536 7.46543 1.82709 9.50023 1.82709C11.535 1.82709 13.4869 2.63536 14.9257 4.07442C16.3648 5.51329 17.1732 7.4651 17.1732 9.4999C17.1712 11.5342 16.3622 13.4847 14.9237 14.9235C13.485 16.362 11.5345 17.171 9.50009 17.173L9.50023 17.1727Z" fill="#EC1C27"/>
<path d="M9.50088 2.55798C7.65968 2.55798 5.8939 3.2894 4.592 4.59139C3.2901 5.89339 2.55859 7.65916 2.55859 9.50027C2.55859 11.3414 3.29001 13.1072 4.592 14.4091C5.89399 15.7111 7.65977 16.4426 9.50088 16.4426C11.342 16.4426 13.1079 15.7111 14.4098 14.4091C15.7118 13.1073 16.4432 11.3416 16.4432 9.50027C16.4412 7.65963 15.7092 5.89492 14.4078 4.59371C13.1061 3.29209 11.3415 2.56017 9.5012 2.55817L9.50088 2.55798ZM9.86622 9.50032C9.86422 9.579 9.83884 9.65533 9.79315 9.71952L7.60096 12.6426H7.60078C7.53115 12.7336 7.42328 12.7877 7.3085 12.7887C7.22945 12.7893 7.15222 12.7635 7.0893 12.7157C6.92793 12.5946 6.89512 12.3656 7.01623 12.204L9.13537 9.37596V4.38493C9.13537 4.18313 9.29909 4.01959 9.50089 4.01959C9.70269 4.01959 9.86623 4.18313 9.86623 4.38493L9.86622 9.50032Z" fill="#EC1C27"/>
</svg>
