<svg width="32" height="32" viewBox="0 0 32 32" fill="none" xmlns="http://www.w3.org/2000/svg">
<g filter="url(#filter0_d_990_384)">
<rect x="2" y="2" width="28" height="28" rx="5" fill="#F9F9F9"/>
<rect x="2" y="2" width="28" height="28" rx="5" fill="#F8F8F8"/>
<rect x="2" y="2" width="28" height="28" rx="5" fill="#F9FAFC"/>
<rect x="2" y="2" width="28" height="28" rx="5" fill="#E8EBF5"/>
<rect x="2" y="2" width="28" height="28" rx="5" fill="#D8DBE6"/>
<rect x="2" y="2" width="28" height="28" rx="5" fill="#FCFCFC"/>
<rect x="2" y="2" width="28" height="28" rx="5" fill="white"/>
<rect x="2.25" y="2.25" width="27.5" height="27.5" rx="4.75" stroke="#F9F9F9" stroke-width="0.5"/>
<rect x="2.25" y="2.25" width="27.5" height="27.5" rx="4.75" stroke="#F8F8F8" stroke-width="0.5"/>
<rect x="2.25" y="2.25" width="27.5" height="27.5" rx="4.75" stroke="white" stroke-width="0.5"/>
<rect x="2.25" y="2.25" width="27.5" height="27.5" rx="4.75" stroke="#F9FAFC" stroke-width="0.5"/>
<rect x="2.25" y="2.25" width="27.5" height="27.5" rx="4.75" stroke="#D8DBE6" stroke-width="0.5"/>
<rect x="2.25" y="2.25" width="27.5" height="27.5" rx="4.75" stroke="#FCFCFC" stroke-width="0.5"/>
<rect x="2.25" y="2.25" width="27.5" height="27.5" rx="4.75" stroke="#E8EBF5" stroke-width="0.5"/>
</g>
<path d="M13.8378 15.3514H9.51373C9.10941 15.3514 8.72908 15.1935 8.44303 14.9066C8.16216 14.6281 8 14.2381 8 13.8378V9.51351C8 9.10919 8.15741 8.72887 8.44303 8.44259C8.72778 8.15719 9.10811 8 9.51373 8H13.8378C14.2432 8 14.6236 8.15719 14.9085 8.44259C15.1942 8.72908 15.3514 9.10919 15.3514 9.51351V13.8378C15.3514 14.2378 15.1894 14.6279 14.907 14.9081C14.6221 15.1935 14.242 15.3514 13.8378 15.3514ZM9.51373 8.86487C9.33946 8.86487 9.17665 8.93189 9.05535 9.05362C8.93233 9.17643 8.86487 9.33989 8.86487 9.51351V13.8378C8.86487 14.0089 8.93362 14.1751 9.05362 14.2941C9.17816 14.4188 9.34097 14.4865 9.51373 14.4865H13.8378C14.0106 14.4865 14.1734 14.4188 14.2964 14.2956C14.4177 14.1754 14.4865 14.0089 14.4865 13.8378V9.51351C14.4865 9.33989 14.419 9.17643 14.2962 9.05362C14.1749 8.93189 14.0121 8.86487 13.8378 8.86487H9.51373Z" fill="#1C1E25"/>
<path d="M13.8378 15.3514H9.51373C9.10941 15.3514 8.72908 15.1935 8.44303 14.9066C8.16216 14.6281 8 14.2381 8 13.8378V9.51351C8 9.10919 8.15741 8.72887 8.44303 8.44259C8.72778 8.15719 9.10811 8 9.51373 8H13.8378C14.2432 8 14.6236 8.15719 14.9085 8.44259C15.1942 8.72908 15.3514 9.10919 15.3514 9.51351V13.8378C15.3514 14.2378 15.1894 14.6279 14.907 14.9081C14.6221 15.1935 14.242 15.3514 13.8378 15.3514ZM9.51373 8.86487C9.33946 8.86487 9.17665 8.93189 9.05535 9.05362C8.93233 9.17643 8.86487 9.33989 8.86487 9.51351V13.8378C8.86487 14.0089 8.93362 14.1751 9.05362 14.2941C9.17816 14.4188 9.34097 14.4865 9.51373 14.4865H13.8378C14.0106 14.4865 14.1734 14.4188 14.2964 14.2956C14.4177 14.1754 14.4865 14.0089 14.4865 13.8378V9.51351C14.4865 9.33989 14.419 9.17643 14.2962 9.05362C14.1749 8.93189 14.0121 8.86487 13.8378 8.86487H9.51373Z" fill="#C3DCFF"/>
<path d="M13.8378 15.3514H9.51373C9.10941 15.3514 8.72908 15.1935 8.44303 14.9066C8.16216 14.6281 8 14.2381 8 13.8378V9.51351C8 9.10919 8.15741 8.72887 8.44303 8.44259C8.72778 8.15719 9.10811 8 9.51373 8H13.8378C14.2432 8 14.6236 8.15719 14.9085 8.44259C15.1942 8.72908 15.3514 9.10919 15.3514 9.51351V13.8378C15.3514 14.2378 15.1894 14.6279 14.907 14.9081C14.6221 15.1935 14.242 15.3514 13.8378 15.3514ZM9.51373 8.86487C9.33946 8.86487 9.17665 8.93189 9.05535 9.05362C8.93233 9.17643 8.86487 9.33989 8.86487 9.51351V13.8378C8.86487 14.0089 8.93362 14.1751 9.05362 14.2941C9.17816 14.4188 9.34097 14.4865 9.51373 14.4865H13.8378C14.0106 14.4865 14.1734 14.4188 14.2964 14.2956C14.4177 14.1754 14.4865 14.0089 14.4865 13.8378V9.51351C14.4865 9.33989 14.419 9.17643 14.2962 9.05362C14.1749 8.93189 14.0121 8.86487 13.8378 8.86487H9.51373Z" fill="#EDF5FF"/>
<path d="M13.8378 15.3514H9.51373C9.10941 15.3514 8.72908 15.1935 8.44303 14.9066C8.16216 14.6281 8 14.2381 8 13.8378V9.51351C8 9.10919 8.15741 8.72887 8.44303 8.44259C8.72778 8.15719 9.10811 8 9.51373 8H13.8378C14.2432 8 14.6236 8.15719 14.9085 8.44259C15.1942 8.72908 15.3514 9.10919 15.3514 9.51351V13.8378C15.3514 14.2378 15.1894 14.6279 14.907 14.9081C14.6221 15.1935 14.242 15.3514 13.8378 15.3514ZM9.51373 8.86487C9.33946 8.86487 9.17665 8.93189 9.05535 9.05362C8.93233 9.17643 8.86487 9.33989 8.86487 9.51351V13.8378C8.86487 14.0089 8.93362 14.1751 9.05362 14.2941C9.17816 14.4188 9.34097 14.4865 9.51373 14.4865H13.8378C14.0106 14.4865 14.1734 14.4188 14.2964 14.2956C14.4177 14.1754 14.4865 14.0089 14.4865 13.8378V9.51351C14.4865 9.33989 14.419 9.17643 14.2962 9.05362C14.1749 8.93189 14.0121 8.86487 13.8378 8.86487H9.51373Z" fill="#071437"/>
<path d="M13.8378 15.3514H9.51373C9.10941 15.3514 8.72908 15.1935 8.44303 14.9066C8.16216 14.6281 8 14.2381 8 13.8378V9.51351C8 9.10919 8.15741 8.72887 8.44303 8.44259C8.72778 8.15719 9.10811 8 9.51373 8H13.8378C14.2432 8 14.6236 8.15719 14.9085 8.44259C15.1942 8.72908 15.3514 9.10919 15.3514 9.51351V13.8378C15.3514 14.2378 15.1894 14.6279 14.907 14.9081C14.6221 15.1935 14.242 15.3514 13.8378 15.3514ZM9.51373 8.86487C9.33946 8.86487 9.17665 8.93189 9.05535 9.05362C8.93233 9.17643 8.86487 9.33989 8.86487 9.51351V13.8378C8.86487 14.0089 8.93362 14.1751 9.05362 14.2941C9.17816 14.4188 9.34097 14.4865 9.51373 14.4865H13.8378C14.0106 14.4865 14.1734 14.4188 14.2964 14.2956C14.4177 14.1754 14.4865 14.0089 14.4865 13.8378V9.51351C14.4865 9.33989 14.419 9.17643 14.2962 9.05362C14.1749 8.93189 14.0121 8.86487 13.8378 8.86487H9.51373Z" fill="#4B5675"/>
<path d="M13.8378 15.3514H9.51373C9.10941 15.3514 8.72908 15.1935 8.44303 14.9066C8.16216 14.6281 8 14.2381 8 13.8378V9.51351C8 9.10919 8.15741 8.72887 8.44303 8.44259C8.72778 8.15719 9.10811 8 9.51373 8H13.8378C14.2432 8 14.6236 8.15719 14.9085 8.44259C15.1942 8.72908 15.3514 9.10919 15.3514 9.51351V13.8378C15.3514 14.2378 15.1894 14.6279 14.907 14.9081C14.6221 15.1935 14.242 15.3514 13.8378 15.3514ZM9.51373 8.86487C9.33946 8.86487 9.17665 8.93189 9.05535 9.05362C8.93233 9.17643 8.86487 9.33989 8.86487 9.51351V13.8378C8.86487 14.0089 8.93362 14.1751 9.05362 14.2941C9.17816 14.4188 9.34097 14.4865 9.51373 14.4865H13.8378C14.0106 14.4865 14.1734 14.4188 14.2964 14.2956C14.4177 14.1754 14.4865 14.0089 14.4865 13.8378V9.51351C14.4865 9.33989 14.419 9.17643 14.2962 9.05362C14.1749 8.93189 14.0121 8.86487 13.8378 8.86487H9.51373Z" fill="#056EE9"/>
<path d="M13.8378 15.3514H9.51373C9.10941 15.3514 8.72908 15.1935 8.44303 14.9066C8.16216 14.6281 8 14.2381 8 13.8378V9.51351C8 9.10919 8.15741 8.72887 8.44303 8.44259C8.72778 8.15719 9.10811 8 9.51373 8H13.8378C14.2432 8 14.6236 8.15719 14.9085 8.44259C15.1942 8.72908 15.3514 9.10919 15.3514 9.51351V13.8378C15.3514 14.2378 15.1894 14.6279 14.907 14.9081C14.6221 15.1935 14.242 15.3514 13.8378 15.3514ZM9.51373 8.86487C9.33946 8.86487 9.17665 8.93189 9.05535 9.05362C8.93233 9.17643 8.86487 9.33989 8.86487 9.51351V13.8378C8.86487 14.0089 8.93362 14.1751 9.05362 14.2941C9.17816 14.4188 9.34097 14.4865 9.51373 14.4865H13.8378C14.0106 14.4865 14.1734 14.4188 14.2964 14.2956C14.4177 14.1754 14.4865 14.0089 14.4865 13.8378V9.51351C14.4865 9.33989 14.419 9.17643 14.2962 9.05362C14.1749 8.93189 14.0121 8.86487 13.8378 8.86487H9.51373Z" fill="#252F4A"/>
<path d="M13.8378 15.3514H9.51373C9.10941 15.3514 8.72908 15.1935 8.44303 14.9066C8.16216 14.6281 8 14.2381 8 13.8378V9.51351C8 9.10919 8.15741 8.72887 8.44303 8.44259C8.72778 8.15719 9.10811 8 9.51373 8H13.8378C14.2432 8 14.6236 8.15719 14.9085 8.44259C15.1942 8.72908 15.3514 9.10919 15.3514 9.51351V13.8378C15.3514 14.2378 15.1894 14.6279 14.907 14.9081C14.6221 15.1935 14.242 15.3514 13.8378 15.3514ZM9.51373 8.86487C9.33946 8.86487 9.17665 8.93189 9.05535 9.05362C8.93233 9.17643 8.86487 9.33989 8.86487 9.51351V13.8378C8.86487 14.0089 8.93362 14.1751 9.05362 14.2941C9.17816 14.4188 9.34097 14.4865 9.51373 14.4865H13.8378C14.0106 14.4865 14.1734 14.4188 14.2964 14.2956C14.4177 14.1754 14.4865 14.0089 14.4865 13.8378V9.51351C14.4865 9.33989 14.419 9.17643 14.2962 9.05362C14.1749 8.93189 14.0121 8.86487 13.8378 8.86487H9.51373Z" fill="#77819C"/>
<path d="M13.8378 15.3514H9.51373C9.10941 15.3514 8.72908 15.1935 8.44303 14.9066C8.16216 14.6281 8 14.2381 8 13.8378V9.51351C8 9.10919 8.15741 8.72887 8.44303 8.44259C8.72778 8.15719 9.10811 8 9.51373 8H13.8378C14.2432 8 14.6236 8.15719 14.9085 8.44259C15.1942 8.72908 15.3514 9.10919 15.3514 9.51351V13.8378C15.3514 14.2378 15.1894 14.6279 14.907 14.9081C14.6221 15.1935 14.242 15.3514 13.8378 15.3514ZM9.51373 8.86487C9.33946 8.86487 9.17665 8.93189 9.05535 9.05362C8.93233 9.17643 8.86487 9.33989 8.86487 9.51351V13.8378C8.86487 14.0089 8.93362 14.1751 9.05362 14.2941C9.17816 14.4188 9.34097 14.4865 9.51373 14.4865H13.8378C14.0106 14.4865 14.1734 14.4188 14.2964 14.2956C14.4177 14.1754 14.4865 14.0089 14.4865 13.8378V9.51351C14.4865 9.33989 14.419 9.17643 14.2962 9.05362C14.1749 8.93189 14.0121 8.86487 13.8378 8.86487H9.51373Z" fill="#78829D"/>
<path d="M13.8378 24H9.51373C9.10941 24 8.72908 23.8422 8.44303 23.5553C8.16216 23.2768 8 22.8867 8 22.4865V18.1622C8 17.7579 8.15741 17.3775 8.44303 17.0913C8.72778 16.8059 9.10811 16.6487 9.51373 16.6487H13.8378C14.2432 16.6487 14.6236 16.8059 14.9085 17.0913C15.1942 17.3778 15.3514 17.7579 15.3514 18.1622V22.4865C15.3514 22.8865 15.1894 23.2766 14.907 23.5568C14.6221 23.8422 14.242 24 13.8378 24ZM9.51373 17.5135C9.33946 17.5135 9.17665 17.5806 9.05535 17.7023C8.93233 17.8251 8.86487 17.9886 8.86487 18.1622V22.4865C8.86487 22.6576 8.93362 22.8238 9.05362 22.9427C9.17816 23.0675 9.34097 23.1352 9.51373 23.1352H13.8378C14.0106 23.1352 14.1734 23.0675 14.2964 22.9443C14.4177 22.824 14.4865 22.6576 14.4865 22.4865V18.1622C14.4865 17.9886 14.419 17.8251 14.2962 17.7023C14.1749 17.5806 14.0121 17.5135 13.8378 17.5135H9.51373Z" fill="#1C1E25"/>
<path d="M13.8378 24H9.51373C9.10941 24 8.72908 23.8422 8.44303 23.5553C8.16216 23.2768 8 22.8867 8 22.4865V18.1622C8 17.7579 8.15741 17.3775 8.44303 17.0913C8.72778 16.8059 9.10811 16.6487 9.51373 16.6487H13.8378C14.2432 16.6487 14.6236 16.8059 14.9085 17.0913C15.1942 17.3778 15.3514 17.7579 15.3514 18.1622V22.4865C15.3514 22.8865 15.1894 23.2766 14.907 23.5568C14.6221 23.8422 14.242 24 13.8378 24ZM9.51373 17.5135C9.33946 17.5135 9.17665 17.5806 9.05535 17.7023C8.93233 17.8251 8.86487 17.9886 8.86487 18.1622V22.4865C8.86487 22.6576 8.93362 22.8238 9.05362 22.9427C9.17816 23.0675 9.34097 23.1352 9.51373 23.1352H13.8378C14.0106 23.1352 14.1734 23.0675 14.2964 22.9443C14.4177 22.824 14.4865 22.6576 14.4865 22.4865V18.1622C14.4865 17.9886 14.419 17.8251 14.2962 17.7023C14.1749 17.5806 14.0121 17.5135 13.8378 17.5135H9.51373Z" fill="#C3DCFF"/>
<path d="M13.8378 24H9.51373C9.10941 24 8.72908 23.8422 8.44303 23.5553C8.16216 23.2768 8 22.8867 8 22.4865V18.1622C8 17.7579 8.15741 17.3775 8.44303 17.0913C8.72778 16.8059 9.10811 16.6487 9.51373 16.6487H13.8378C14.2432 16.6487 14.6236 16.8059 14.9085 17.0913C15.1942 17.3778 15.3514 17.7579 15.3514 18.1622V22.4865C15.3514 22.8865 15.1894 23.2766 14.907 23.5568C14.6221 23.8422 14.242 24 13.8378 24ZM9.51373 17.5135C9.33946 17.5135 9.17665 17.5806 9.05535 17.7023C8.93233 17.8251 8.86487 17.9886 8.86487 18.1622V22.4865C8.86487 22.6576 8.93362 22.8238 9.05362 22.9427C9.17816 23.0675 9.34097 23.1352 9.51373 23.1352H13.8378C14.0106 23.1352 14.1734 23.0675 14.2964 22.9443C14.4177 22.824 14.4865 22.6576 14.4865 22.4865V18.1622C14.4865 17.9886 14.419 17.8251 14.2962 17.7023C14.1749 17.5806 14.0121 17.5135 13.8378 17.5135H9.51373Z" fill="#EDF5FF"/>
<path d="M13.8378 24H9.51373C9.10941 24 8.72908 23.8422 8.44303 23.5553C8.16216 23.2768 8 22.8867 8 22.4865V18.1622C8 17.7579 8.15741 17.3775 8.44303 17.0913C8.72778 16.8059 9.10811 16.6487 9.51373 16.6487H13.8378C14.2432 16.6487 14.6236 16.8059 14.9085 17.0913C15.1942 17.3778 15.3514 17.7579 15.3514 18.1622V22.4865C15.3514 22.8865 15.1894 23.2766 14.907 23.5568C14.6221 23.8422 14.242 24 13.8378 24ZM9.51373 17.5135C9.33946 17.5135 9.17665 17.5806 9.05535 17.7023C8.93233 17.8251 8.86487 17.9886 8.86487 18.1622V22.4865C8.86487 22.6576 8.93362 22.8238 9.05362 22.9427C9.17816 23.0675 9.34097 23.1352 9.51373 23.1352H13.8378C14.0106 23.1352 14.1734 23.0675 14.2964 22.9443C14.4177 22.824 14.4865 22.6576 14.4865 22.4865V18.1622C14.4865 17.9886 14.419 17.8251 14.2962 17.7023C14.1749 17.5806 14.0121 17.5135 13.8378 17.5135H9.51373Z" fill="#071437"/>
<path d="M13.8378 24H9.51373C9.10941 24 8.72908 23.8422 8.44303 23.5553C8.16216 23.2768 8 22.8867 8 22.4865V18.1622C8 17.7579 8.15741 17.3775 8.44303 17.0913C8.72778 16.8059 9.10811 16.6487 9.51373 16.6487H13.8378C14.2432 16.6487 14.6236 16.8059 14.9085 17.0913C15.1942 17.3778 15.3514 17.7579 15.3514 18.1622V22.4865C15.3514 22.8865 15.1894 23.2766 14.907 23.5568C14.6221 23.8422 14.242 24 13.8378 24ZM9.51373 17.5135C9.33946 17.5135 9.17665 17.5806 9.05535 17.7023C8.93233 17.8251 8.86487 17.9886 8.86487 18.1622V22.4865C8.86487 22.6576 8.93362 22.8238 9.05362 22.9427C9.17816 23.0675 9.34097 23.1352 9.51373 23.1352H13.8378C14.0106 23.1352 14.1734 23.0675 14.2964 22.9443C14.4177 22.824 14.4865 22.6576 14.4865 22.4865V18.1622C14.4865 17.9886 14.419 17.8251 14.2962 17.7023C14.1749 17.5806 14.0121 17.5135 13.8378 17.5135H9.51373Z" fill="#4B5675"/>
<path d="M13.8378 24H9.51373C9.10941 24 8.72908 23.8422 8.44303 23.5553C8.16216 23.2768 8 22.8867 8 22.4865V18.1622C8 17.7579 8.15741 17.3775 8.44303 17.0913C8.72778 16.8059 9.10811 16.6487 9.51373 16.6487H13.8378C14.2432 16.6487 14.6236 16.8059 14.9085 17.0913C15.1942 17.3778 15.3514 17.7579 15.3514 18.1622V22.4865C15.3514 22.8865 15.1894 23.2766 14.907 23.5568C14.6221 23.8422 14.242 24 13.8378 24ZM9.51373 17.5135C9.33946 17.5135 9.17665 17.5806 9.05535 17.7023C8.93233 17.8251 8.86487 17.9886 8.86487 18.1622V22.4865C8.86487 22.6576 8.93362 22.8238 9.05362 22.9427C9.17816 23.0675 9.34097 23.1352 9.51373 23.1352H13.8378C14.0106 23.1352 14.1734 23.0675 14.2964 22.9443C14.4177 22.824 14.4865 22.6576 14.4865 22.4865V18.1622C14.4865 17.9886 14.419 17.8251 14.2962 17.7023C14.1749 17.5806 14.0121 17.5135 13.8378 17.5135H9.51373Z" fill="#056EE9"/>
<path d="M13.8378 24H9.51373C9.10941 24 8.72908 23.8422 8.44303 23.5553C8.16216 23.2768 8 22.8867 8 22.4865V18.1622C8 17.7579 8.15741 17.3775 8.44303 17.0913C8.72778 16.8059 9.10811 16.6487 9.51373 16.6487H13.8378C14.2432 16.6487 14.6236 16.8059 14.9085 17.0913C15.1942 17.3778 15.3514 17.7579 15.3514 18.1622V22.4865C15.3514 22.8865 15.1894 23.2766 14.907 23.5568C14.6221 23.8422 14.242 24 13.8378 24ZM9.51373 17.5135C9.33946 17.5135 9.17665 17.5806 9.05535 17.7023C8.93233 17.8251 8.86487 17.9886 8.86487 18.1622V22.4865C8.86487 22.6576 8.93362 22.8238 9.05362 22.9427C9.17816 23.0675 9.34097 23.1352 9.51373 23.1352H13.8378C14.0106 23.1352 14.1734 23.0675 14.2964 22.9443C14.4177 22.824 14.4865 22.6576 14.4865 22.4865V18.1622C14.4865 17.9886 14.419 17.8251 14.2962 17.7023C14.1749 17.5806 14.0121 17.5135 13.8378 17.5135H9.51373Z" fill="#252F4A"/>
<path d="M13.8378 24H9.51373C9.10941 24 8.72908 23.8422 8.44303 23.5553C8.16216 23.2768 8 22.8867 8 22.4865V18.1622C8 17.7579 8.15741 17.3775 8.44303 17.0913C8.72778 16.8059 9.10811 16.6487 9.51373 16.6487H13.8378C14.2432 16.6487 14.6236 16.8059 14.9085 17.0913C15.1942 17.3778 15.3514 17.7579 15.3514 18.1622V22.4865C15.3514 22.8865 15.1894 23.2766 14.907 23.5568C14.6221 23.8422 14.242 24 13.8378 24ZM9.51373 17.5135C9.33946 17.5135 9.17665 17.5806 9.05535 17.7023C8.93233 17.8251 8.86487 17.9886 8.86487 18.1622V22.4865C8.86487 22.6576 8.93362 22.8238 9.05362 22.9427C9.17816 23.0675 9.34097 23.1352 9.51373 23.1352H13.8378C14.0106 23.1352 14.1734 23.0675 14.2964 22.9443C14.4177 22.824 14.4865 22.6576 14.4865 22.4865V18.1622C14.4865 17.9886 14.419 17.8251 14.2962 17.7023C14.1749 17.5806 14.0121 17.5135 13.8378 17.5135H9.51373Z" fill="#77819C"/>
<path d="M13.8378 24H9.51373C9.10941 24 8.72908 23.8422 8.44303 23.5553C8.16216 23.2768 8 22.8867 8 22.4865V18.1622C8 17.7579 8.15741 17.3775 8.44303 17.0913C8.72778 16.8059 9.10811 16.6487 9.51373 16.6487H13.8378C14.2432 16.6487 14.6236 16.8059 14.9085 17.0913C15.1942 17.3778 15.3514 17.7579 15.3514 18.1622V22.4865C15.3514 22.8865 15.1894 23.2766 14.907 23.5568C14.6221 23.8422 14.242 24 13.8378 24ZM9.51373 17.5135C9.33946 17.5135 9.17665 17.5806 9.05535 17.7023C8.93233 17.8251 8.86487 17.9886 8.86487 18.1622V22.4865C8.86487 22.6576 8.93362 22.8238 9.05362 22.9427C9.17816 23.0675 9.34097 23.1352 9.51373 23.1352H13.8378C14.0106 23.1352 14.1734 23.0675 14.2964 22.9443C14.4177 22.824 14.4865 22.6576 14.4865 22.4865V18.1622C14.4865 17.9886 14.419 17.8251 14.2962 17.7023C14.1749 17.5806 14.0121 17.5135 13.8378 17.5135H9.51373Z" fill="#78829D"/>
<path d="M22.4863 15.3514H18.1622C17.7578 15.3514 17.3775 15.1935 17.0915 14.9066C16.8106 14.6281 16.6484 14.2381 16.6484 13.8378V9.51351C16.6484 9.10919 16.8058 8.72887 17.0915 8.44259C17.3762 8.15719 17.7565 8 18.1622 8H22.4863C22.8917 8 23.272 8.15719 23.557 8.44259C23.8426 8.72908 23.9998 9.10919 23.9998 9.51351V13.8378C23.9998 14.2378 23.8378 14.6279 23.5555 14.9081C23.2705 15.1935 22.8904 15.3514 22.4863 15.3514ZM18.1622 8.86487C17.9879 8.86487 17.8251 8.93189 17.7038 9.05362C17.5808 9.17643 17.5133 9.33989 17.5133 9.51351V13.8378C17.5133 14.0089 17.5821 14.1751 17.7021 14.2941C17.8266 14.4188 17.9894 14.4865 18.1622 14.4865H22.4863C22.659 14.4865 22.8218 14.4188 22.9449 14.2956C23.0662 14.1754 23.1349 14.0089 23.1349 13.8378V9.51351C23.1349 9.33989 23.0675 9.17643 22.9447 9.05362C22.8234 8.93189 22.6605 8.86487 22.4863 8.86487H18.1622Z" fill="#1C1E25"/>
<path d="M22.4863 15.3514H18.1622C17.7578 15.3514 17.3775 15.1935 17.0915 14.9066C16.8106 14.6281 16.6484 14.2381 16.6484 13.8378V9.51351C16.6484 9.10919 16.8058 8.72887 17.0915 8.44259C17.3762 8.15719 17.7565 8 18.1622 8H22.4863C22.8917 8 23.272 8.15719 23.557 8.44259C23.8426 8.72908 23.9998 9.10919 23.9998 9.51351V13.8378C23.9998 14.2378 23.8378 14.6279 23.5555 14.9081C23.2705 15.1935 22.8904 15.3514 22.4863 15.3514ZM18.1622 8.86487C17.9879 8.86487 17.8251 8.93189 17.7038 9.05362C17.5808 9.17643 17.5133 9.33989 17.5133 9.51351V13.8378C17.5133 14.0089 17.5821 14.1751 17.7021 14.2941C17.8266 14.4188 17.9894 14.4865 18.1622 14.4865H22.4863C22.659 14.4865 22.8218 14.4188 22.9449 14.2956C23.0662 14.1754 23.1349 14.0089 23.1349 13.8378V9.51351C23.1349 9.33989 23.0675 9.17643 22.9447 9.05362C22.8234 8.93189 22.6605 8.86487 22.4863 8.86487H18.1622Z" fill="#C3DCFF"/>
<path d="M22.4863 15.3514H18.1622C17.7578 15.3514 17.3775 15.1935 17.0915 14.9066C16.8106 14.6281 16.6484 14.2381 16.6484 13.8378V9.51351C16.6484 9.10919 16.8058 8.72887 17.0915 8.44259C17.3762 8.15719 17.7565 8 18.1622 8H22.4863C22.8917 8 23.272 8.15719 23.557 8.44259C23.8426 8.72908 23.9998 9.10919 23.9998 9.51351V13.8378C23.9998 14.2378 23.8378 14.6279 23.5555 14.9081C23.2705 15.1935 22.8904 15.3514 22.4863 15.3514ZM18.1622 8.86487C17.9879 8.86487 17.8251 8.93189 17.7038 9.05362C17.5808 9.17643 17.5133 9.33989 17.5133 9.51351V13.8378C17.5133 14.0089 17.5821 14.1751 17.7021 14.2941C17.8266 14.4188 17.9894 14.4865 18.1622 14.4865H22.4863C22.659 14.4865 22.8218 14.4188 22.9449 14.2956C23.0662 14.1754 23.1349 14.0089 23.1349 13.8378V9.51351C23.1349 9.33989 23.0675 9.17643 22.9447 9.05362C22.8234 8.93189 22.6605 8.86487 22.4863 8.86487H18.1622Z" fill="#EDF5FF"/>
<path d="M22.4863 15.3514H18.1622C17.7578 15.3514 17.3775 15.1935 17.0915 14.9066C16.8106 14.6281 16.6484 14.2381 16.6484 13.8378V9.51351C16.6484 9.10919 16.8058 8.72887 17.0915 8.44259C17.3762 8.15719 17.7565 8 18.1622 8H22.4863C22.8917 8 23.272 8.15719 23.557 8.44259C23.8426 8.72908 23.9998 9.10919 23.9998 9.51351V13.8378C23.9998 14.2378 23.8378 14.6279 23.5555 14.9081C23.2705 15.1935 22.8904 15.3514 22.4863 15.3514ZM18.1622 8.86487C17.9879 8.86487 17.8251 8.93189 17.7038 9.05362C17.5808 9.17643 17.5133 9.33989 17.5133 9.51351V13.8378C17.5133 14.0089 17.5821 14.1751 17.7021 14.2941C17.8266 14.4188 17.9894 14.4865 18.1622 14.4865H22.4863C22.659 14.4865 22.8218 14.4188 22.9449 14.2956C23.0662 14.1754 23.1349 14.0089 23.1349 13.8378V9.51351C23.1349 9.33989 23.0675 9.17643 22.9447 9.05362C22.8234 8.93189 22.6605 8.86487 22.4863 8.86487H18.1622Z" fill="#071437"/>
<path d="M22.4863 15.3514H18.1622C17.7578 15.3514 17.3775 15.1935 17.0915 14.9066C16.8106 14.6281 16.6484 14.2381 16.6484 13.8378V9.51351C16.6484 9.10919 16.8058 8.72887 17.0915 8.44259C17.3762 8.15719 17.7565 8 18.1622 8H22.4863C22.8917 8 23.272 8.15719 23.557 8.44259C23.8426 8.72908 23.9998 9.10919 23.9998 9.51351V13.8378C23.9998 14.2378 23.8378 14.6279 23.5555 14.9081C23.2705 15.1935 22.8904 15.3514 22.4863 15.3514ZM18.1622 8.86487C17.9879 8.86487 17.8251 8.93189 17.7038 9.05362C17.5808 9.17643 17.5133 9.33989 17.5133 9.51351V13.8378C17.5133 14.0089 17.5821 14.1751 17.7021 14.2941C17.8266 14.4188 17.9894 14.4865 18.1622 14.4865H22.4863C22.659 14.4865 22.8218 14.4188 22.9449 14.2956C23.0662 14.1754 23.1349 14.0089 23.1349 13.8378V9.51351C23.1349 9.33989 23.0675 9.17643 22.9447 9.05362C22.8234 8.93189 22.6605 8.86487 22.4863 8.86487H18.1622Z" fill="#4B5675"/>
<path d="M22.4863 15.3514H18.1622C17.7578 15.3514 17.3775 15.1935 17.0915 14.9066C16.8106 14.6281 16.6484 14.2381 16.6484 13.8378V9.51351C16.6484 9.10919 16.8058 8.72887 17.0915 8.44259C17.3762 8.15719 17.7565 8 18.1622 8H22.4863C22.8917 8 23.272 8.15719 23.557 8.44259C23.8426 8.72908 23.9998 9.10919 23.9998 9.51351V13.8378C23.9998 14.2378 23.8378 14.6279 23.5555 14.9081C23.2705 15.1935 22.8904 15.3514 22.4863 15.3514ZM18.1622 8.86487C17.9879 8.86487 17.8251 8.93189 17.7038 9.05362C17.5808 9.17643 17.5133 9.33989 17.5133 9.51351V13.8378C17.5133 14.0089 17.5821 14.1751 17.7021 14.2941C17.8266 14.4188 17.9894 14.4865 18.1622 14.4865H22.4863C22.659 14.4865 22.8218 14.4188 22.9449 14.2956C23.0662 14.1754 23.1349 14.0089 23.1349 13.8378V9.51351C23.1349 9.33989 23.0675 9.17643 22.9447 9.05362C22.8234 8.93189 22.6605 8.86487 22.4863 8.86487H18.1622Z" fill="#056EE9"/>
<path d="M22.4863 15.3514H18.1622C17.7578 15.3514 17.3775 15.1935 17.0915 14.9066C16.8106 14.6281 16.6484 14.2381 16.6484 13.8378V9.51351C16.6484 9.10919 16.8058 8.72887 17.0915 8.44259C17.3762 8.15719 17.7565 8 18.1622 8H22.4863C22.8917 8 23.272 8.15719 23.557 8.44259C23.8426 8.72908 23.9998 9.10919 23.9998 9.51351V13.8378C23.9998 14.2378 23.8378 14.6279 23.5555 14.9081C23.2705 15.1935 22.8904 15.3514 22.4863 15.3514ZM18.1622 8.86487C17.9879 8.86487 17.8251 8.93189 17.7038 9.05362C17.5808 9.17643 17.5133 9.33989 17.5133 9.51351V13.8378C17.5133 14.0089 17.5821 14.1751 17.7021 14.2941C17.8266 14.4188 17.9894 14.4865 18.1622 14.4865H22.4863C22.659 14.4865 22.8218 14.4188 22.9449 14.2956C23.0662 14.1754 23.1349 14.0089 23.1349 13.8378V9.51351C23.1349 9.33989 23.0675 9.17643 22.9447 9.05362C22.8234 8.93189 22.6605 8.86487 22.4863 8.86487H18.1622Z" fill="#252F4A"/>
<path d="M22.4863 15.3514H18.1622C17.7578 15.3514 17.3775 15.1935 17.0915 14.9066C16.8106 14.6281 16.6484 14.2381 16.6484 13.8378V9.51351C16.6484 9.10919 16.8058 8.72887 17.0915 8.44259C17.3762 8.15719 17.7565 8 18.1622 8H22.4863C22.8917 8 23.272 8.15719 23.557 8.44259C23.8426 8.72908 23.9998 9.10919 23.9998 9.51351V13.8378C23.9998 14.2378 23.8378 14.6279 23.5555 14.9081C23.2705 15.1935 22.8904 15.3514 22.4863 15.3514ZM18.1622 8.86487C17.9879 8.86487 17.8251 8.93189 17.7038 9.05362C17.5808 9.17643 17.5133 9.33989 17.5133 9.51351V13.8378C17.5133 14.0089 17.5821 14.1751 17.7021 14.2941C17.8266 14.4188 17.9894 14.4865 18.1622 14.4865H22.4863C22.659 14.4865 22.8218 14.4188 22.9449 14.2956C23.0662 14.1754 23.1349 14.0089 23.1349 13.8378V9.51351C23.1349 9.33989 23.0675 9.17643 22.9447 9.05362C22.8234 8.93189 22.6605 8.86487 22.4863 8.86487H18.1622Z" fill="#77819C"/>
<path d="M22.4863 15.3514H18.1622C17.7578 15.3514 17.3775 15.1935 17.0915 14.9066C16.8106 14.6281 16.6484 14.2381 16.6484 13.8378V9.51351C16.6484 9.10919 16.8058 8.72887 17.0915 8.44259C17.3762 8.15719 17.7565 8 18.1622 8H22.4863C22.8917 8 23.272 8.15719 23.557 8.44259C23.8426 8.72908 23.9998 9.10919 23.9998 9.51351V13.8378C23.9998 14.2378 23.8378 14.6279 23.5555 14.9081C23.2705 15.1935 22.8904 15.3514 22.4863 15.3514ZM18.1622 8.86487C17.9879 8.86487 17.8251 8.93189 17.7038 9.05362C17.5808 9.17643 17.5133 9.33989 17.5133 9.51351V13.8378C17.5133 14.0089 17.5821 14.1751 17.7021 14.2941C17.8266 14.4188 17.9894 14.4865 18.1622 14.4865H22.4863C22.659 14.4865 22.8218 14.4188 22.9449 14.2956C23.0662 14.1754 23.1349 14.0089 23.1349 13.8378V9.51351C23.1349 9.33989 23.0675 9.17643 22.9447 9.05362C22.8234 8.93189 22.6605 8.86487 22.4863 8.86487H18.1622Z" fill="#78829D"/>
<path d="M22.4863 24H18.1622C17.7578 24 17.3775 23.8422 17.0915 23.5553C16.8106 23.2768 16.6484 22.8867 16.6484 22.4865V18.1622C16.6484 17.7579 16.8058 17.3775 17.0915 17.0913C17.3762 16.8059 17.7565 16.6487 18.1622 16.6487H22.4863C22.8917 16.6487 23.272 16.8059 23.557 17.0913C23.8426 17.3778 23.9998 17.7579 23.9998 18.1622V22.4865C23.9998 22.8865 23.8378 23.2766 23.5555 23.5568C23.2705 23.8422 22.8904 24 22.4863 24ZM18.1622 17.5135C17.9879 17.5135 17.8251 17.5806 17.7038 17.7023C17.5808 17.8251 17.5133 17.9886 17.5133 18.1622V22.4865C17.5133 22.6576 17.5821 22.8238 17.7021 22.9427C17.8266 23.0675 17.9894 23.1352 18.1622 23.1352H22.4863C22.659 23.1352 22.8218 23.0675 22.9449 22.9443C23.0662 22.824 23.1349 22.6576 23.1349 22.4865V18.1622C23.1349 17.9886 23.0675 17.8251 22.9447 17.7023C22.8234 17.5806 22.6605 17.5135 22.4863 17.5135H18.1622Z" fill="#1C1E25"/>
<path d="M22.4863 24H18.1622C17.7578 24 17.3775 23.8422 17.0915 23.5553C16.8106 23.2768 16.6484 22.8867 16.6484 22.4865V18.1622C16.6484 17.7579 16.8058 17.3775 17.0915 17.0913C17.3762 16.8059 17.7565 16.6487 18.1622 16.6487H22.4863C22.8917 16.6487 23.272 16.8059 23.557 17.0913C23.8426 17.3778 23.9998 17.7579 23.9998 18.1622V22.4865C23.9998 22.8865 23.8378 23.2766 23.5555 23.5568C23.2705 23.8422 22.8904 24 22.4863 24ZM18.1622 17.5135C17.9879 17.5135 17.8251 17.5806 17.7038 17.7023C17.5808 17.8251 17.5133 17.9886 17.5133 18.1622V22.4865C17.5133 22.6576 17.5821 22.8238 17.7021 22.9427C17.8266 23.0675 17.9894 23.1352 18.1622 23.1352H22.4863C22.659 23.1352 22.8218 23.0675 22.9449 22.9443C23.0662 22.824 23.1349 22.6576 23.1349 22.4865V18.1622C23.1349 17.9886 23.0675 17.8251 22.9447 17.7023C22.8234 17.5806 22.6605 17.5135 22.4863 17.5135H18.1622Z" fill="#C3DCFF"/>
<path d="M22.4863 24H18.1622C17.7578 24 17.3775 23.8422 17.0915 23.5553C16.8106 23.2768 16.6484 22.8867 16.6484 22.4865V18.1622C16.6484 17.7579 16.8058 17.3775 17.0915 17.0913C17.3762 16.8059 17.7565 16.6487 18.1622 16.6487H22.4863C22.8917 16.6487 23.272 16.8059 23.557 17.0913C23.8426 17.3778 23.9998 17.7579 23.9998 18.1622V22.4865C23.9998 22.8865 23.8378 23.2766 23.5555 23.5568C23.2705 23.8422 22.8904 24 22.4863 24ZM18.1622 17.5135C17.9879 17.5135 17.8251 17.5806 17.7038 17.7023C17.5808 17.8251 17.5133 17.9886 17.5133 18.1622V22.4865C17.5133 22.6576 17.5821 22.8238 17.7021 22.9427C17.8266 23.0675 17.9894 23.1352 18.1622 23.1352H22.4863C22.659 23.1352 22.8218 23.0675 22.9449 22.9443C23.0662 22.824 23.1349 22.6576 23.1349 22.4865V18.1622C23.1349 17.9886 23.0675 17.8251 22.9447 17.7023C22.8234 17.5806 22.6605 17.5135 22.4863 17.5135H18.1622Z" fill="#EDF5FF"/>
<path d="M22.4863 24H18.1622C17.7578 24 17.3775 23.8422 17.0915 23.5553C16.8106 23.2768 16.6484 22.8867 16.6484 22.4865V18.1622C16.6484 17.7579 16.8058 17.3775 17.0915 17.0913C17.3762 16.8059 17.7565 16.6487 18.1622 16.6487H22.4863C22.8917 16.6487 23.272 16.8059 23.557 17.0913C23.8426 17.3778 23.9998 17.7579 23.9998 18.1622V22.4865C23.9998 22.8865 23.8378 23.2766 23.5555 23.5568C23.2705 23.8422 22.8904 24 22.4863 24ZM18.1622 17.5135C17.9879 17.5135 17.8251 17.5806 17.7038 17.7023C17.5808 17.8251 17.5133 17.9886 17.5133 18.1622V22.4865C17.5133 22.6576 17.5821 22.8238 17.7021 22.9427C17.8266 23.0675 17.9894 23.1352 18.1622 23.1352H22.4863C22.659 23.1352 22.8218 23.0675 22.9449 22.9443C23.0662 22.824 23.1349 22.6576 23.1349 22.4865V18.1622C23.1349 17.9886 23.0675 17.8251 22.9447 17.7023C22.8234 17.5806 22.6605 17.5135 22.4863 17.5135H18.1622Z" fill="#071437"/>
<path d="M22.4863 24H18.1622C17.7578 24 17.3775 23.8422 17.0915 23.5553C16.8106 23.2768 16.6484 22.8867 16.6484 22.4865V18.1622C16.6484 17.7579 16.8058 17.3775 17.0915 17.0913C17.3762 16.8059 17.7565 16.6487 18.1622 16.6487H22.4863C22.8917 16.6487 23.272 16.8059 23.557 17.0913C23.8426 17.3778 23.9998 17.7579 23.9998 18.1622V22.4865C23.9998 22.8865 23.8378 23.2766 23.5555 23.5568C23.2705 23.8422 22.8904 24 22.4863 24ZM18.1622 17.5135C17.9879 17.5135 17.8251 17.5806 17.7038 17.7023C17.5808 17.8251 17.5133 17.9886 17.5133 18.1622V22.4865C17.5133 22.6576 17.5821 22.8238 17.7021 22.9427C17.8266 23.0675 17.9894 23.1352 18.1622 23.1352H22.4863C22.659 23.1352 22.8218 23.0675 22.9449 22.9443C23.0662 22.824 23.1349 22.6576 23.1349 22.4865V18.1622C23.1349 17.9886 23.0675 17.8251 22.9447 17.7023C22.8234 17.5806 22.6605 17.5135 22.4863 17.5135H18.1622Z" fill="#4B5675"/>
<path d="M22.4863 24H18.1622C17.7578 24 17.3775 23.8422 17.0915 23.5553C16.8106 23.2768 16.6484 22.8867 16.6484 22.4865V18.1622C16.6484 17.7579 16.8058 17.3775 17.0915 17.0913C17.3762 16.8059 17.7565 16.6487 18.1622 16.6487H22.4863C22.8917 16.6487 23.272 16.8059 23.557 17.0913C23.8426 17.3778 23.9998 17.7579 23.9998 18.1622V22.4865C23.9998 22.8865 23.8378 23.2766 23.5555 23.5568C23.2705 23.8422 22.8904 24 22.4863 24ZM18.1622 17.5135C17.9879 17.5135 17.8251 17.5806 17.7038 17.7023C17.5808 17.8251 17.5133 17.9886 17.5133 18.1622V22.4865C17.5133 22.6576 17.5821 22.8238 17.7021 22.9427C17.8266 23.0675 17.9894 23.1352 18.1622 23.1352H22.4863C22.659 23.1352 22.8218 23.0675 22.9449 22.9443C23.0662 22.824 23.1349 22.6576 23.1349 22.4865V18.1622C23.1349 17.9886 23.0675 17.8251 22.9447 17.7023C22.8234 17.5806 22.6605 17.5135 22.4863 17.5135H18.1622Z" fill="#056EE9"/>
<path d="M22.4863 24H18.1622C17.7578 24 17.3775 23.8422 17.0915 23.5553C16.8106 23.2768 16.6484 22.8867 16.6484 22.4865V18.1622C16.6484 17.7579 16.8058 17.3775 17.0915 17.0913C17.3762 16.8059 17.7565 16.6487 18.1622 16.6487H22.4863C22.8917 16.6487 23.272 16.8059 23.557 17.0913C23.8426 17.3778 23.9998 17.7579 23.9998 18.1622V22.4865C23.9998 22.8865 23.8378 23.2766 23.5555 23.5568C23.2705 23.8422 22.8904 24 22.4863 24ZM18.1622 17.5135C17.9879 17.5135 17.8251 17.5806 17.7038 17.7023C17.5808 17.8251 17.5133 17.9886 17.5133 18.1622V22.4865C17.5133 22.6576 17.5821 22.8238 17.7021 22.9427C17.8266 23.0675 17.9894 23.1352 18.1622 23.1352H22.4863C22.659 23.1352 22.8218 23.0675 22.9449 22.9443C23.0662 22.824 23.1349 22.6576 23.1349 22.4865V18.1622C23.1349 17.9886 23.0675 17.8251 22.9447 17.7023C22.8234 17.5806 22.6605 17.5135 22.4863 17.5135H18.1622Z" fill="#252F4A"/>
<path d="M22.4863 24H18.1622C17.7578 24 17.3775 23.8422 17.0915 23.5553C16.8106 23.2768 16.6484 22.8867 16.6484 22.4865V18.1622C16.6484 17.7579 16.8058 17.3775 17.0915 17.0913C17.3762 16.8059 17.7565 16.6487 18.1622 16.6487H22.4863C22.8917 16.6487 23.272 16.8059 23.557 17.0913C23.8426 17.3778 23.9998 17.7579 23.9998 18.1622V22.4865C23.9998 22.8865 23.8378 23.2766 23.5555 23.5568C23.2705 23.8422 22.8904 24 22.4863 24ZM18.1622 17.5135C17.9879 17.5135 17.8251 17.5806 17.7038 17.7023C17.5808 17.8251 17.5133 17.9886 17.5133 18.1622V22.4865C17.5133 22.6576 17.5821 22.8238 17.7021 22.9427C17.8266 23.0675 17.9894 23.1352 18.1622 23.1352H22.4863C22.659 23.1352 22.8218 23.0675 22.9449 22.9443C23.0662 22.824 23.1349 22.6576 23.1349 22.4865V18.1622C23.1349 17.9886 23.0675 17.8251 22.9447 17.7023C22.8234 17.5806 22.6605 17.5135 22.4863 17.5135H18.1622Z" fill="#77819C"/>
<path d="M22.4863 24H18.1622C17.7578 24 17.3775 23.8422 17.0915 23.5553C16.8106 23.2768 16.6484 22.8867 16.6484 22.4865V18.1622C16.6484 17.7579 16.8058 17.3775 17.0915 17.0913C17.3762 16.8059 17.7565 16.6487 18.1622 16.6487H22.4863C22.8917 16.6487 23.272 16.8059 23.557 17.0913C23.8426 17.3778 23.9998 17.7579 23.9998 18.1622V22.4865C23.9998 22.8865 23.8378 23.2766 23.5555 23.5568C23.2705 23.8422 22.8904 24 22.4863 24ZM18.1622 17.5135C17.9879 17.5135 17.8251 17.5806 17.7038 17.7023C17.5808 17.8251 17.5133 17.9886 17.5133 18.1622V22.4865C17.5133 22.6576 17.5821 22.8238 17.7021 22.9427C17.8266 23.0675 17.9894 23.1352 18.1622 23.1352H22.4863C22.659 23.1352 22.8218 23.0675 22.9449 22.9443C23.0662 22.824 23.1349 22.6576 23.1349 22.4865V18.1622C23.1349 17.9886 23.0675 17.8251 22.9447 17.7023C22.8234 17.5806 22.6605 17.5135 22.4863 17.5135H18.1622Z" fill="#78829D"/>
<defs>
<filter id="filter0_d_990_384" x="0.0999999" y="0.0999999" width="31.8" height="31.8" filterUnits="userSpaceOnUse" color-interpolation-filters="sRGB">
<feFlood flood-opacity="0" result="BackgroundImageFix"/>
<feColorMatrix in="SourceAlpha" type="matrix" values="0 0 0 0 0 0 0 0 0 0 0 0 0 0 0 0 0 0 127 0" result="hardAlpha"/>
<feMorphology radius="1" operator="erode" in="SourceAlpha" result="effect1_dropShadow_990_384"/>
<feOffset/>
<feGaussianBlur stdDeviation="1.45"/>
<feComposite in2="hardAlpha" operator="out"/>
<feColorMatrix type="matrix" values="0 0 0 0 0 0 0 0 0 0 0 0 0 0 0 0 0 0 0.25 0"/>
<feBlend mode="normal" in2="BackgroundImageFix" result="effect1_dropShadow_990_384"/>
<feBlend mode="normal" in="SourceGraphic" in2="effect1_dropShadow_990_384" result="shape"/>
</filter>
</defs>
</svg>
