<svg width="47" height="47" viewBox="0 0 47 47" fill="none" xmlns="http://www.w3.org/2000/svg">
<path d="M16.5967 14.7335H30.4033C30.6184 14.7335 30.8234 14.6421 30.9671 14.4821C31.111 14.3221 31.18 14.1086 31.157 13.8947C30.8405 10.9378 28.8881 8.5305 26.2538 7.52654C27.1794 6.74289 27.7686 5.57357 27.7686 4.26866C27.7687 1.91487 25.8538 0 23.5001 0C21.1463 0 19.2314 1.91487 19.2314 4.26866C19.2314 5.57357 19.8206 6.74289 20.7462 7.52654C18.1118 8.5305 16.1594 10.9378 15.843 13.8948C15.82 14.1086 15.889 14.3221 16.0329 14.4822C16.1767 14.6421 16.3817 14.7335 16.5967 14.7335ZM23.5001 1.51613C25.0178 1.51613 26.2525 2.75092 26.2525 4.26866C26.2525 5.7864 25.0178 7.0211 23.5001 7.0211C21.9824 7.0211 20.7476 5.78631 20.7476 4.26866C20.7476 2.75092 21.9824 1.51613 23.5001 1.51613ZM23.5 8.53723C26.3806 8.53723 28.8273 10.4974 29.5017 13.2173H17.4984C18.1727 10.4975 20.6193 8.53723 23.5 8.53723ZM11.0896 9.01964L9.30096 9.42464C8.89236 9.51693 8.4866 9.2609 8.39421 8.85268C8.30173 8.44437 8.55786 8.03842 8.96618 7.94594L13.4677 6.92672C13.7138 6.87091 13.9716 6.94131 14.1551 7.11453C14.3388 7.28765 14.4242 7.54085 14.3829 7.78978L13.7011 11.9097C13.6396 12.2808 13.3183 12.5441 12.9541 12.5441C12.9129 12.5441 12.8713 12.5408 12.8294 12.5338C12.4164 12.4654 12.1369 12.0752 12.2053 11.6622L12.5272 9.71715C7.67036 14.6242 5.16343 21.5321 5.78998 28.433C5.82788 28.8499 5.52058 29.2186 5.10364 29.2565C5.08033 29.2585 5.05721 29.2596 5.03418 29.2596C4.64653 29.2596 4.31592 28.9638 4.28019 28.5701C3.62883 21.3973 6.15678 14.2164 11.0896 9.01964ZM32.4377 6.42137C32.7058 6.09967 33.1838 6.05637 33.5054 6.32444C39.0379 10.9358 42.328 17.801 42.5147 24.9635L43.493 23.4124C43.7164 23.0583 44.1845 22.9525 44.5386 23.1756C44.8927 23.399 44.9986 23.8672 44.7754 24.2212L42.3132 28.1249C42.1785 28.3383 41.9465 28.4707 41.6942 28.4782C41.6868 28.4785 41.6794 28.4786 41.672 28.4786C41.428 28.4786 41.1983 28.361 41.0557 28.1618L38.6246 24.7665C38.3809 24.4261 38.4593 23.9526 38.7998 23.7088C39.1403 23.4652 39.6137 23.5435 39.8574 23.884L41.0052 25.4869C40.9695 18.5829 37.8577 11.9256 32.5349 7.48892C32.2131 7.22104 32.1697 6.74298 32.4377 6.42137ZM22.8496 41.9688C20.8794 41.9688 18.9082 41.736 16.9769 41.2703L18.222 42.6167C18.5061 42.9241 18.4874 43.4037 18.1801 43.688C18.0343 43.8229 17.8497 43.8895 17.6655 43.8895C17.4615 43.8895 17.2582 43.8077 17.1087 43.6461L13.9753 40.2573C13.804 40.072 13.7361 39.8135 13.7942 39.568C13.8524 39.3224 14.029 39.1219 14.2651 39.033L18.174 37.5636C18.5658 37.4162 19.0031 37.6145 19.1504 38.0064C19.2978 38.3983 19.0994 38.8355 18.7076 38.9828L16.8599 39.6774C21.9269 41.0111 27.3185 40.6177 32.1694 38.5378C32.554 38.3729 32.9998 38.551 33.1649 38.9358C33.3298 39.3206 33.1516 39.7663 32.7669 39.9312C29.6068 41.2861 26.2302 41.9688 22.8496 41.9688ZM18.5163 19.4949C18.5163 19.0762 18.8557 18.7368 19.2744 18.7368H23.3677C23.7864 18.7368 24.1258 19.0762 24.1258 19.4949C24.1258 19.9135 23.7864 20.2529 23.3677 20.2529H19.2744C18.8557 20.2529 18.5163 19.9135 18.5163 19.4949ZM14.711 19.4949C14.711 19.0762 15.0504 18.7368 15.4691 18.7368H16.6821C17.1008 18.7368 17.4402 19.0762 17.4402 19.4949C17.4402 19.9135 17.1008 20.2529 16.6821 20.2529H15.4691C15.0504 20.2529 14.711 19.9135 14.711 19.4949ZM21.854 33.4294H28.6023L31.439 36.3824C31.5849 36.5342 31.7835 36.6153 31.9859 36.6153C32.081 36.6153 32.177 36.5975 32.2687 36.5604C32.5557 36.4449 32.7438 36.1666 32.7438 35.8572V33.4294H33.3092C34.5896 33.4294 35.6312 32.3877 35.6312 31.1074V23.2688C35.6312 21.9884 34.5896 20.9467 33.3092 20.9467H27.468V18.3924C27.468 17.112 26.4263 16.0703 25.1459 16.0703H13.6908C12.4104 16.0703 11.3688 17.112 11.3688 18.3924V26.2309C11.3688 27.5113 12.4104 28.553 13.6908 28.553H14.2562V30.9808C14.2562 31.2902 14.4442 31.5685 14.7313 31.684C14.8231 31.721 14.919 31.7388 15.0141 31.7388C15.2166 31.7388 15.4151 31.6577 15.561 31.5059L18.3977 28.553H19.532V31.1074C19.532 32.3877 20.5737 33.4294 21.854 33.4294ZM33.3092 22.4629C33.7535 22.4629 34.1151 22.8244 34.1151 23.2688V31.1074C34.1151 31.5517 33.7536 31.9133 33.3092 31.9133H31.9857C31.567 31.9133 31.2276 32.2527 31.2276 32.6713V33.9739L29.4719 32.1462C29.329 31.9974 29.1316 31.9133 28.9252 31.9133H21.854C21.4097 31.9133 21.0481 31.5518 21.0481 31.1074V23.2688C21.0481 22.8244 21.4096 22.4629 21.854 22.4629H33.3092ZM18.0748 27.0368C17.8684 27.0368 17.671 27.121 17.5281 27.2698L15.7724 29.0975V27.7949C15.7724 27.3763 15.4329 27.0368 15.0143 27.0368H13.6908C13.2465 27.0368 12.8849 26.6753 12.8849 26.2309V18.3924C12.8849 17.948 13.2464 17.5864 13.6908 17.5864H25.1459C25.5903 17.5864 25.9519 17.9479 25.9519 18.3924V20.9467H21.854C21.2523 20.9467 20.7035 21.1768 20.2905 21.5536H15.4691C15.0504 21.5536 14.711 21.893 14.711 22.3116C14.711 22.7303 15.0504 23.0697 15.4691 23.0697H19.5411C19.5355 23.1354 19.532 23.2017 19.532 23.2688V24.3704H15.4691C15.0504 24.3704 14.711 24.7099 14.711 25.1285C14.711 25.5472 15.0504 25.8866 15.4691 25.8866H19.532V27.0368H18.0748ZM26.866 24.3712C26.866 23.9526 27.2054 23.6131 27.6241 23.6131H31.5309C31.9495 23.6131 32.2889 23.9526 32.2889 24.3712C32.2889 24.7898 31.9495 25.1293 31.5309 25.1293H27.6241C27.2054 25.1293 26.866 24.7898 26.866 24.3712ZM22.8742 27.1881C22.8742 26.7694 23.2136 26.43 23.6323 26.43H31.5309C31.9496 26.43 32.289 26.7694 32.289 27.1881C32.289 27.6067 31.9496 27.9461 31.5309 27.9461H23.6323C23.2136 27.9461 22.8742 27.6067 22.8742 27.1881ZM22.8742 30.005C22.8742 29.5863 23.2136 29.2469 23.6323 29.2469H31.5309C31.9496 29.2469 32.289 29.5863 32.289 30.005C32.289 30.4236 31.9496 30.763 31.5309 30.763H23.6323C23.2136 30.763 22.8742 30.4236 22.8742 30.005ZM22.8742 24.3712C22.8742 23.9526 23.2136 23.6131 23.6323 23.6131H25.032C25.4506 23.6131 25.79 23.9526 25.79 24.3712C25.79 24.7898 25.4506 25.1293 25.032 25.1293H23.6323C23.2136 25.1293 22.8742 24.7898 22.8742 24.3712ZM10.4153 39.7931C11.3409 39.0094 11.9301 37.8401 11.9301 36.5352C11.9301 34.1814 10.0152 32.2665 7.66145 32.2665C5.30766 32.2665 3.39278 34.1814 3.39278 36.5352C3.39278 37.8401 3.98199 39.0094 4.90749 39.7931C2.27312 40.797 0.320722 43.2045 0.00432448 46.1613C-0.018607 46.3753 0.050377 46.5887 0.19422 46.7487C0.338063 46.9087 0.54293 47 0.758031 47L14.5647 46.9999C14.7798 46.9999 14.9847 46.9085 15.1285 46.7486C15.2723 46.5887 15.3413 46.3751 15.3184 46.1612C15.002 43.2044 13.0496 40.797 10.4153 39.7931ZM7.66145 33.7827C9.17919 33.7827 10.414 35.0175 10.414 36.5352C10.414 38.0523 9.18014 39.2867 7.66335 39.2876C7.66268 39.2876 7.66202 39.2876 7.66136 39.2876C7.66069 39.2876 7.66012 39.2876 7.65946 39.2876C6.14267 39.2866 4.90891 38.0522 4.90891 36.5352C4.90891 35.0175 6.14371 33.7827 7.66145 33.7827ZM1.65975 45.4839C2.33395 42.7645 4.77957 40.8046 7.65937 40.8038H7.66136H7.66335C10.5431 40.8047 12.9888 42.7646 13.663 45.4838L1.65975 45.4839ZM46.9957 46.1611C46.6792 43.2043 44.7269 40.7969 42.0925 39.793C43.0181 39.0093 43.6073 37.84 43.6073 36.5351C43.6073 34.1813 41.6924 32.2664 39.3386 32.2664C36.9848 32.2664 35.07 34.1813 35.07 36.5351C35.07 37.84 35.6592 39.0093 36.5848 39.793C33.9503 40.7969 31.9979 43.2044 31.6816 46.1612C31.6587 46.3752 31.7277 46.5887 31.8715 46.7486C32.0154 46.9086 32.2203 46.9999 32.4353 46.9999H46.242C46.4571 46.9999 46.662 46.9085 46.8058 46.7486C46.9496 46.5886 47.0186 46.375 46.9957 46.1611ZM39.3386 33.7827C40.8564 33.7827 42.0912 35.0175 42.0912 36.5352C42.0912 38.0523 40.8573 39.2866 39.3405 39.2876C39.3399 39.2876 39.3393 39.2876 39.3386 39.2876C39.338 39.2876 39.3374 39.2876 39.3367 39.2876C37.82 39.2866 36.5861 38.0523 36.5861 36.5352C36.5862 35.0175 37.821 33.7827 39.3386 33.7827ZM33.337 45.4839C34.0112 42.7645 36.4569 40.8046 39.3367 40.8038H39.3387C39.3387 40.8038 39.3401 40.8038 39.3407 40.8038C42.2205 40.8047 44.666 42.7646 45.3403 45.4838L33.337 45.4839Z" fill="#ED1C27"/>
</svg>
