<svg width="47" height="51" viewBox="0 0 47 51" fill="none" xmlns="http://www.w3.org/2000/svg">
<path d="M11.7484 8.1437C11.7484 7.7019 12.1067 7.3437 12.5485 7.3437H29.4126C29.8545 7.3437 30.2127 7.7019 30.2127 8.1437C30.2127 8.5855 29.8545 8.9437 29.4126 8.9437H12.5485C12.1067 8.9437 11.7484 8.5855 11.7484 8.1437ZM9.84371 12.6125H29.4126C29.8545 12.6125 30.2127 12.2543 30.2127 11.8125C30.2127 11.3707 29.8545 11.0125 29.4126 11.0125H9.84371C9.40184 11.0125 9.04359 11.3707 9.04359 11.8125C9.04359 12.2543 9.40184 12.6125 9.84371 12.6125ZM9.84371 16.2814H29.4126C29.8545 16.2814 30.2127 15.9232 30.2127 15.4814C30.2127 15.0396 29.8545 14.6814 29.4126 14.6814H9.84371C9.40184 14.6814 9.04359 15.0396 9.04359 15.4814C9.04359 15.9232 9.40184 16.2814 9.84371 16.2814ZM12.5485 5.2749H29.4126C29.8545 5.2749 30.2127 4.9167 30.2127 4.4749C30.2127 4.0331 29.8545 3.6749 29.4126 3.6749H12.5485C12.1067 3.6749 11.7484 4.0331 11.7484 4.4749C11.7484 4.9167 12.1067 5.2749 12.5485 5.2749ZM4.51529 16.2814H6.23736C6.67922 16.2814 7.03748 15.9232 7.03748 15.4814C7.03748 15.0396 6.67922 14.6814 6.23736 14.6814H4.51529C4.07342 14.6814 3.71517 15.0396 3.71517 15.4814C3.71517 15.9232 4.07332 16.2814 4.51529 16.2814ZM4.51529 12.6125H6.23736C6.67922 12.6125 7.03748 12.2543 7.03748 11.8125C7.03748 11.3707 6.67922 11.0125 6.23736 11.0125H4.51529C4.07342 11.0125 3.71517 11.3707 3.71517 11.8125C3.71517 12.2543 4.07332 12.6125 4.51529 12.6125ZM16.2937 27.4885V41.0025C16.2937 41.7069 15.7206 42.2799 15.0161 42.2799H12.0305C11.326 42.2799 10.7529 41.7069 10.7529 41.0025V27.4885C10.7529 26.7841 11.326 26.2111 12.0305 26.2111H15.0161C15.7205 26.2111 16.2937 26.7841 16.2937 27.4885ZM14.6935 27.8111H12.3531V40.6799H14.6935V27.8111ZM9.41224 35.0943V41.0025C9.41224 41.7069 8.83915 42.2799 8.13465 42.2799H5.14909C4.44458 42.2799 3.87149 41.7069 3.87149 41.0025V35.0943C3.87149 34.3899 4.44458 33.8169 5.14909 33.8169H8.13465C8.83915 33.8168 9.41224 34.3899 9.41224 35.0943ZM7.812 35.4168H5.47174V40.6799H7.812V35.4168ZM7.46754 27.5031L11.4294 22.353C11.1571 21.9501 10.998 21.4649 10.998 20.9431C10.998 19.5509 12.1309 18.4182 13.5233 18.4182C14.9157 18.4182 16.0486 19.5509 16.0486 20.9431C16.0486 21.1744 16.0167 21.3984 15.958 21.6114L18.8619 23.5571C19.289 23.2265 19.824 23.029 20.4047 23.029C20.8455 23.029 21.2601 23.1428 21.6211 23.3421L25.5354 19.7286L24.6432 19.6866C24.2018 19.6658 23.8608 19.2912 23.8816 18.8499C23.9024 18.4086 24.2759 18.0668 24.7185 18.0884L27.6192 18.225C27.8497 18.2358 28.0641 18.3456 28.2077 18.5261C28.3513 18.7066 28.41 18.9403 28.3687 19.1671L27.8497 22.0239C27.7795 22.4102 27.4426 22.681 27.0633 22.681C27.0158 22.681 26.9677 22.6768 26.9194 22.668C26.4847 22.589 26.1962 22.1726 26.2752 21.7379L26.3875 21.1195L22.7065 24.5177C22.8495 24.8341 22.9298 25.1847 22.9298 25.5539C22.9298 26.9461 21.7969 28.0787 20.4045 28.0787C19.0121 28.0787 17.8791 26.9461 17.8791 25.5539C17.8791 25.3225 17.911 25.0986 17.9697 24.8855L15.0658 22.9399C14.6387 23.2706 14.1036 23.4681 13.5229 23.4681C13.2337 23.4681 12.9561 23.4186 12.6971 23.3287L8.73544 28.4788C9.00768 28.8817 9.16681 29.3669 9.16681 29.8886C9.16681 31.2808 8.03393 32.4135 6.64152 32.4135C5.2491 32.4135 4.11623 31.2808 4.11623 29.8886C4.11623 28.4964 5.2491 27.3638 6.64152 27.3638C6.93096 27.3638 7.2086 27.4133 7.46754 27.5031ZM7.56686 29.8886C7.56686 29.3786 7.1519 28.9638 6.64182 28.9638C6.13174 28.9638 5.71678 29.3786 5.71678 29.8886C5.71678 30.3986 6.13174 30.8135 6.64182 30.8135C7.1519 30.8135 7.56686 30.3986 7.56686 29.8886ZM19.4797 25.5539C19.4797 26.0639 19.8946 26.4787 20.4048 26.4787C20.915 26.4787 21.3299 26.0639 21.3299 25.5539C21.3299 25.0439 20.9149 24.629 20.4048 24.629C19.8947 24.629 19.4797 25.0439 19.4797 25.5539ZM12.5982 20.9431C12.5982 21.4531 13.0132 21.868 13.5233 21.868C14.0334 21.868 14.4483 21.4531 14.4483 20.9431C14.4483 20.4331 14.0334 20.0182 13.5233 20.0182C13.0132 20.0182 12.5982 20.4332 12.5982 20.9431ZM36.6637 45.2225C36.9762 45.5349 36.9763 46.0414 36.6637 46.3538L35.1744 47.8429C35.2999 48.1225 35.3703 48.432 35.3703 48.7578C35.3703 49.9941 34.3644 51 33.1279 51C31.8914 51 30.8853 49.9941 30.8853 48.7578C30.8853 47.5215 31.8914 46.5156 33.1279 46.5156C33.4537 46.5156 33.7633 46.586 34.0429 46.7115L35.5321 45.2225C35.8446 44.9101 36.3512 44.9102 36.6637 45.2225ZM33.7701 48.7579C33.7701 48.4038 33.482 48.1157 33.1279 48.1157C32.7737 48.1157 32.4856 48.4038 32.4856 48.7579C32.4856 49.112 32.7737 49.4001 33.1279 49.4001C33.482 49.4001 33.7701 49.112 33.7701 48.7579ZM47 48.7579C47 49.1997 46.6417 49.5579 46.1999 49.5579H39.7125C39.2706 49.5579 38.9124 49.1997 38.9124 48.7579C38.9124 45.5687 36.3175 42.9742 33.1279 42.9742C29.9383 42.9742 27.3434 45.5687 27.3434 48.7579C27.3434 49.1997 26.9851 49.5579 26.5433 49.5579H20.0559C19.614 49.5579 19.2558 49.1997 19.2558 48.7579C19.2558 47.8601 19.3426 46.9823 19.5063 46.1315H2.38947C1.07196 46.1315 0 45.0598 0 43.7425V9.6972C0 9.0497 0.242037 8.4656 0.699907 8.0078L8.00903 0.6996C8.4667 0.2419 9.05099 0 9.69859 0H31.5386C32.8561 0 33.928 1.0718 33.928 2.3891V34.9116C41.2061 35.3274 47 41.3785 47 48.7579ZM2.73192 8.2389H7.60537C7.95542 8.2389 8.24016 7.9542 8.24016 7.6042V2.7314L2.73192 8.2389ZM19.9151 44.5315C20.1662 43.7485 20.485 42.9958 20.8649 42.2799H18.9119C18.2074 42.2799 17.6343 41.7069 17.6343 41.0025V30.7594C17.6343 30.055 18.2074 29.482 18.9119 29.482H21.8976C22.6021 29.482 23.1752 30.055 23.1752 30.7594V39.1066C23.5951 38.6737 24.0429 38.268 24.5158 37.8924V24.4069C24.5158 23.7025 25.0888 23.1295 25.7934 23.1295H28.7789C29.4834 23.1295 30.0565 23.7025 30.0565 24.4069V35.231C30.7932 35.0639 31.552 34.9558 32.3277 34.9114V2.389C32.3277 1.9539 31.9736 1.5999 31.5385 1.5999H9.84041V7.6042C9.84041 8.8364 8.83776 9.8389 7.60537 9.8389H1.60025V43.7425C1.60025 44.1776 1.9543 44.5315 2.38947 44.5315H19.9151ZM28.4564 24.7294H26.116V36.7946C26.8553 36.3598 27.638 35.9914 28.4564 35.6979V24.7294ZM21.5749 31.082H19.2345V40.6799H21.5749V31.082ZM27.3745 44.1368L23.9073 40.67C22.1736 42.6434 21.0617 45.1757 20.8817 47.9578H25.7861C25.9418 46.5208 26.5129 45.2072 27.3745 44.1368ZM32.3278 41.4189V36.5145C29.5452 36.6945 27.0127 37.8057 25.039 39.539L28.5058 43.0052C29.5762 42.1437 30.8905 41.5745 32.3278 41.4189ZM37.7499 43.0052L41.2166 39.539C39.2429 37.8056 36.7104 36.6944 33.9279 36.5145V41.4189C35.3651 41.5745 36.6795 42.1437 37.7499 43.0052ZM45.374 47.9579C45.1939 45.1758 44.0821 42.6435 42.3484 40.6701L38.8812 44.1369C39.7429 45.2073 40.314 46.5209 40.4696 47.958L45.374 47.9579Z" fill="#ED1C27"/>
</svg>
