<svg width="49" height="47" viewBox="0 0 49 47" fill="none" xmlns="http://www.w3.org/2000/svg">
<path d="M27.6722 7.86688H18.694C18.629 7.9968 18.5421 8.11812 18.4341 8.22512L17.5944 9.05717C17.0585 9.58927 17.0585 10.4337 17.5944 10.9639L18.4341 11.7979C18.8764 12.2364 18.9634 12.9051 18.6453 13.4343L17.3652 15.5675C17.0477 16.0901 16.3797 16.3683 15.7842 16.2094L14.6139 15.9267C13.9 15.7553 13.1043 16.1621 12.8973 16.881L12.5677 17.9968C12.3929 18.5852 11.834 18.9912 11.1988 18.9912H8.63669C8.24789 18.9912 7.88775 18.8393 7.62695 18.5862V34.3016C7.62695 35.5722 8.65675 36.602 9.92729 36.602H45.699C46.9696 36.602 47.9994 35.5722 47.9994 34.3016V10.1672C47.9994 8.89668 46.9696 7.86688 45.699 7.86688H36.0775" stroke="#ED1C27" stroke-width="2" stroke-miterlimit="10" stroke-linecap="round" stroke-linejoin="round"/>
<path d="M17.5953 10.9638C17.0597 10.4335 17.0597 9.58915 17.5953 9.05763L18.4352 8.2251C18.8777 7.78604 18.9645 7.11706 18.6459 6.58792L17.366 4.45534C17.0481 3.92563 16.4022 3.66312 15.7854 3.81243L14.6146 4.0951C13.869 4.27526 13.1086 3.85331 12.8984 3.14172L12.5687 2.02594C12.3937 1.43758 11.8348 1.03168 11.1995 1.03168H8.63782C8.00246 1.03168 7.44237 1.43758 7.26794 2.02594L6.93884 3.14172C6.72811 3.85331 5.96827 4.27526 5.222 4.0951L4.05129 3.81243C3.43504 3.66312 2.78859 3.92563 2.47124 4.45534L1.19135 6.58792C0.872187 7.11706 0.959023 7.78604 1.40151 8.2251L2.24207 9.05763C2.77694 9.58915 2.77694 10.4335 2.24207 10.9638L1.40151 11.7975C0.959023 12.2365 0.872187 12.9055 1.19135 13.4347L2.47124 15.5673C2.78859 16.097 3.43504 16.3595 4.05129 16.2102L5.22209 15.9269C5.96836 15.7474 6.72811 16.1693 6.93894 16.881L7.26803 17.9967C7.44247 18.5851 8.00256 18.991 8.63792 18.991H11.1995C11.8349 18.991 12.3937 18.5851 12.5687 17.9967L12.8984 16.881C13.1086 16.1693 13.869 15.7474 14.6146 15.9269L15.7854 16.2102C16.4022 16.3595 17.048 16.097 17.366 15.5673L18.6459 13.4347C18.9645 12.9055 18.8776 12.2365 18.4352 11.7975L17.5953 10.9638Z" stroke="#ED1C27" stroke-width="2" stroke-miterlimit="10" stroke-linecap="round" stroke-linejoin="round"/>
<path d="M12.2806 12.375C13.5861 11.0695 13.5861 8.95296 12.2806 7.64751C10.9752 6.34206 8.85862 6.34206 7.55318 7.64751C6.24773 8.95296 6.24773 11.0695 7.55318 12.375C8.85862 13.6804 10.9752 13.6804 12.2806 12.375Z" stroke="#ED1C27" stroke-width="2" stroke-miterlimit="10" stroke-linecap="round" stroke-linejoin="round"/>
<path d="M28.1769 21.9597L25.7676 24.4117L28.1768 26.8638" stroke="#ED1C27" stroke-width="2" stroke-miterlimit="10" stroke-linecap="round" stroke-linejoin="round"/>
<path d="M27.8398 17.4783L30.2491 15.0261L27.8398 12.5741" stroke="#ED1C27" stroke-width="2" stroke-miterlimit="10" stroke-linecap="round" stroke-linejoin="round"/>
<circle cx="31.8733" cy="7.86691" r="0.955289" fill="#ED1C27"/>
<path d="M7.62695 30.7307V29.9484" stroke="#ED1C27" stroke-width="2" stroke-miterlimit="10" stroke-linecap="round" stroke-linejoin="round"/>
<path d="M34.7163 45.9684H20.9087C19.805 45.9684 18.9102 45.0736 18.9102 43.9699C18.9102 42.8661 19.805 41.9713 20.9087 41.9713H34.7163C35.82 41.9713 36.7148 42.8661 36.7148 43.9699C36.7148 45.0736 35.82 45.9684 34.7163 45.9684Z" stroke="#ED1C27" stroke-width="2" stroke-miterlimit="10" stroke-linecap="round" stroke-linejoin="round"/>
<path d="M31.3833 36.6019H24.2434L22.9902 41.9711H32.6365L31.3833 36.6019Z" stroke="#ED1C27" stroke-width="2" stroke-miterlimit="10" stroke-linecap="round" stroke-linejoin="round"/>
<path d="M47.9994 30.7308V34.3016C47.9994 35.5722 46.9696 36.602 45.699 36.602H9.92729C8.65675 36.602 7.62695 35.5722 7.62695 34.3016V30.7308H47.9994Z" stroke="#ED1C27" stroke-width="2" stroke-miterlimit="10" stroke-linecap="round" stroke-linejoin="round"/>
<path d="M21.0804 22.0382H14.2695V26.1465H21.0804V22.0382Z" stroke="#ED1C27" stroke-width="2" stroke-miterlimit="10" stroke-linecap="round" stroke-linejoin="round"/>
<path d="M41.8734 12.9719H34.9238V17.0802H41.8734V12.9719Z" stroke="#ED1C27" stroke-width="2" stroke-miterlimit="10" stroke-linecap="round" stroke-linejoin="round"/>
<path d="M38.3972 21.0125V24.4118H26.4727" stroke="#ED1C27" stroke-width="2" stroke-miterlimit="10" stroke-linecap="round" stroke-linejoin="round"/>
<path d="M22.9062 15.0261H29.4174" stroke="#ED1C27" stroke-width="2" stroke-miterlimit="10" stroke-linecap="round" stroke-linejoin="round"/>
</svg>
