<svg width="48" height="52" viewBox="0 0 48 52" fill="none" xmlns="http://www.w3.org/2000/svg">
<path d="M37.6539 45.6016V49.7472C37.6539 50.3062 37.2008 50.7592 36.6419 50.7592H2.012C1.45304 50.7592 1 50.3061 1 49.7472V7.13993C1 6.58097 1.45314 6.12793 2.012 6.12793H11.5997" stroke="#ED1C27" stroke-width="2" stroke-miterlimit="10" stroke-linecap="round" stroke-linejoin="round"/>
<path d="M37.6543 21.145V42.0973" stroke="#ED1C27" stroke-width="2" stroke-miterlimit="10" stroke-linecap="round" stroke-linejoin="round"/>
<path d="M27.0547 6.12793H36.6424C37.2013 6.12793 37.6544 6.58107 37.6544 7.13993V11.1346" stroke="#ED1C27" stroke-width="2" stroke-miterlimit="10" stroke-linecap="round" stroke-linejoin="round"/>
<path d="M4.33984 17.5922V6.12793" stroke="#ED1C27" stroke-width="2" stroke-miterlimit="10" stroke-linecap="round" stroke-linejoin="round"/>
<path d="M34.3145 23.1676V47.4193H4.33984V21.1597" stroke="#ED1C27" stroke-width="2" stroke-miterlimit="10" stroke-linecap="round" stroke-linejoin="round"/>
<path d="M34.3125 6.12793V13.6758" stroke="#ED1C27" stroke-width="2" stroke-miterlimit="10" stroke-linecap="round" stroke-linejoin="round"/>
<path d="M15.1032 8.25232H11.5996V6.29119C11.5996 5.02759 12.624 4.00317 13.8876 4.00317H24.7661C26.0297 4.00317 27.0542 5.02759 27.0542 6.29119V8.25232H18.6072" stroke="#ED1C27" stroke-width="2" stroke-miterlimit="10" stroke-linecap="round" stroke-linejoin="round"/>
<path d="M21.3183 4.00327H17.3359V2.99116C17.3359 1.89146 18.2274 1 19.3271 1C20.4268 1 21.3183 1.89146 21.3183 2.99116V4.00327Z" stroke="#ED1C27" stroke-width="2" stroke-miterlimit="10" stroke-linecap="round" stroke-linejoin="round"/>
<path d="M12.108 17.5635H26.5458C26.8266 17.5635 27.0542 17.3358 27.0542 17.0551V13.7669C27.0542 13.4861 26.8265 13.2585 26.5458 13.2585H12.108C11.8272 13.2585 11.5996 13.4862 11.5996 13.7669V17.0551C11.5996 17.3359 11.8272 17.5635 12.108 17.5635Z" stroke="#ED1C27" stroke-width="2" stroke-miterlimit="10" stroke-linecap="round" stroke-linejoin="round"/>
<path d="M21.8307 43.4087H29.805C30.0815 43.4087 30.3056 43.1845 30.3056 42.9081V39.6044C30.3056 39.3279 30.0815 39.1038 29.805 39.1038H21.8307C21.5542 39.1038 21.3301 39.3279 21.3301 39.6044V42.9081C21.3301 43.1845 21.5541 43.4087 21.8307 43.4087Z" stroke="#ED1C27" stroke-width="2" stroke-miterlimit="10" stroke-linecap="round" stroke-linejoin="round"/>
<path d="M18.0261 43.4087H8.34961" stroke="#ED1C27" stroke-width="2" stroke-miterlimit="10" stroke-linecap="round" stroke-linejoin="round"/>
<path d="M13.1055 29.54H19.3276" stroke="#ED1C27" stroke-width="2" stroke-miterlimit="10" stroke-linecap="round" stroke-linejoin="round"/>
<path d="M8.34961 29.54H9.939" stroke="#ED1C27" stroke-width="2" stroke-miterlimit="10" stroke-linecap="round" stroke-linejoin="round"/>
<path d="M22.668 34.6604H28.3032" stroke="#ED1C27" stroke-width="2" stroke-miterlimit="10" stroke-linecap="round" stroke-linejoin="round"/>
<path d="M13.1055 34.6604H15.6226" stroke="#ED1C27" stroke-width="2" stroke-miterlimit="10" stroke-linecap="round" stroke-linejoin="round"/>
<path d="M8.34961 34.6604H9.939" stroke="#ED1C27" stroke-width="2" stroke-miterlimit="10" stroke-linecap="round" stroke-linejoin="round"/>
<path d="M13.1055 24.4194H24.3935" stroke="#ED1C27" stroke-width="2" stroke-miterlimit="10" stroke-linecap="round" stroke-linejoin="round"/>
<path d="M8.34961 24.4194H9.939" stroke="#ED1C27" stroke-width="2" stroke-miterlimit="10" stroke-linecap="round" stroke-linejoin="round"/>
<path d="M31.4648 25.8616L36.6715 20.6548" stroke="#ED1C27" stroke-width="2" stroke-miterlimit="10" stroke-linecap="round" stroke-linejoin="round"/>
<path d="M32.4606 16.4688L18.2411 30.6882C17.8729 31.0565 17.5541 31.4711 17.2927 31.9215L13.9946 37.6066C13.7405 38.0448 13.8128 38.599 14.171 38.9571C14.5291 39.3153 15.0834 39.3877 15.5215 39.1336L21.2067 35.8354C21.6571 35.5741 22.0717 35.2554 22.4399 34.887L28.9402 28.3867" stroke="#ED1C27" stroke-width="2" stroke-miterlimit="10" stroke-linecap="round" stroke-linejoin="round"/>
<path d="M15.2109 35.6035L17.5241 37.9167" stroke="#ED1C27" stroke-width="2" stroke-miterlimit="10" stroke-linecap="round" stroke-linejoin="round"/>
<path d="M21.7438 35.2999L17.8281 31.3843" stroke="#ED1C27" stroke-width="2" stroke-miterlimit="10" stroke-linecap="round" stroke-linejoin="round"/>
<path d="M34.7285 14.2023L42.2162 6.71462C42.9981 5.93269 44.266 5.93269 45.048 6.71462L46.4151 8.08174C47.197 8.86367 47.197 10.1316 46.4151 10.9135L38.9274 18.4012" stroke="#ED1C27" stroke-width="2" stroke-miterlimit="10" stroke-linecap="round" stroke-linejoin="round"/>
<path d="M36.9849 20.8037L32.3244 16.1432C32.0507 15.8695 32.0507 15.4258 32.3244 15.1522L33.5049 13.9717C33.7787 13.6979 34.2224 13.6979 34.496 13.9717L39.1564 18.6321C39.4302 18.9058 39.4302 19.3495 39.1564 19.6232L37.976 20.8037C37.7023 21.0773 37.2586 21.0773 36.9849 20.8037Z" stroke="#ED1C27" stroke-width="2" stroke-miterlimit="10" stroke-linecap="round" stroke-linejoin="round"/>
<path d="M44.2907 13.0373L40.0918 8.83838" stroke="#ED1C27" stroke-width="2" stroke-miterlimit="10" stroke-linecap="round" stroke-linejoin="round"/>
<path d="M44.2907 13.0374L45.8613 14.608C46.3636 15.1103 46.3636 15.9246 45.8613 16.4269L41.2793 21.0089" stroke="#ED1C27" stroke-width="2" stroke-miterlimit="10" stroke-linecap="round" stroke-linejoin="round"/>
</svg>
