<svg width="47" height="47" viewBox="0 0 47 47" fill="none" xmlns="http://www.w3.org/2000/svg">
<path d="M39.9492 42.3005H41.5159V43.8672H39.9492V42.3005Z" fill="#ED1C27"/>
<path d="M29.7656 42.3005H31.3323V43.8672H29.7656V42.3005Z" fill="#ED1C27"/>
<path d="M19.582 42.3005H21.1487V43.8672H19.582V42.3005Z" fill="#ED1C27"/>
<path d="M8.61719 42.3005H10.1839V43.8672H8.61719V42.3005Z" fill="#ED1C27"/>
<path d="M19.582 39.1672H21.1487V40.7339H19.582V39.1672Z" fill="#ED1C27"/>
<path d="M29.7656 39.1672H31.3323V40.7339H29.7656V39.1672Z" fill="#ED1C27"/>
<path d="M39.9492 39.1672H41.5159V40.7339H39.9492V39.1672Z" fill="#ED1C27"/>
<path d="M39.9492 36.0339H41.5159V37.6006H39.9492V36.0339Z" fill="#ED1C27"/>
<path d="M39.9492 32.9006H41.5159V34.4673H39.9492V32.9006Z" fill="#ED1C27"/>
<path d="M29.7656 36.0339H31.3323V37.6006H29.7656V36.0339Z" fill="#ED1C27"/>
<path d="M0.783333 26.6338H2.35V33.6838H1.56667C1.13369 33.6838 0.783333 34.0337 0.783333 34.4671V46.2171C0.783333 46.6501 1.13369 47.0004 1.56667 47.0004H43.8667C44.3 47.0004 44.65 46.6501 44.65 46.2171V18.0171C44.65 17.5837 44.3 17.2338 43.8667 17.2338H39.1667V9.10094L46.567 5.40076C46.8325 5.26842 47 4.99723 47 4.70042C47 4.40361 46.8325 4.13243 46.567 3.99933L38.7337 0.0826597C38.49 -0.0382062 38.2024 -0.0263491 37.9714 0.117083C37.7404 0.260516 37.6 0.51181 37.6 0.783758V17.2338H33.6833C33.2504 17.2338 32.9 17.5837 32.9 18.0171V24.2838H31.3333V18.6914C31.3333 17.5187 30.7084 16.416 29.7024 15.8113L27.4167 14.4405V11.7504H33.6833C34.1167 11.7504 34.4667 11.4001 34.4667 10.9671V7.83376C34.4667 7.4004 34.1167 7.05042 33.6833 7.05042H27.0885C27.4316 6.27704 27.5131 5.40152 27.3008 4.5241C26.9577 3.10928 25.8205 1.98936 24.4057 1.66807C23.2158 1.40186 21.9945 1.67266 21.0578 2.42157C20.1207 3.17048 19.5833 4.28657 19.5833 5.48376C19.5833 6.02727 19.6992 6.56008 19.918 7.05042H12.5333C12.1004 7.05042 11.75 7.4004 11.75 7.83376V10.9671C11.75 11.4001 12.1004 11.7504 12.5333 11.7504H18.8V28.9838H12.5333C12.1004 28.9838 11.75 29.3337 11.75 29.7671V33.6838H10.1833V26.6338H11.75C12.1834 26.6338 12.5333 26.2834 12.5333 25.8504V20.1705C12.5333 18.1869 11.1361 16.5231 9.27416 16.1119C9.41339 15.7501 9.48721 15.3638 9.48721 14.9706C9.48721 13.1955 8.04255 11.7504 6.26667 11.7504C4.49116 11.7504 3.04651 13.1955 3.04651 14.9706C3.04651 15.3638 3.12109 15.7501 3.25955 16.1119C1.39761 16.5231 0 18.1869 0 20.1705V25.8504C0 26.2834 0.350358 26.6338 0.783333 26.6338ZM39.1667 2.05094L44.4653 4.70042L39.1667 7.34953V2.05094ZM34.4667 25.0671V18.8004H43.0833V45.4338H34.4667V25.0671ZM32.9 25.8504V45.4338H24.2833V25.8504H32.9ZM24.2833 24.2838V19.2843L25.85 20.0676V24.2838H24.2833ZM13.3167 10.1838V8.61709H21.448C21.7746 8.61709 22.0668 8.41399 22.182 8.10953C22.2971 7.80469 22.2091 7.4593 21.9639 7.24473C21.4392 6.78536 21.15 6.16038 21.15 5.48376C21.15 4.76545 21.4728 4.09571 22.0355 3.64591C22.6057 3.18998 23.3241 3.03087 24.0596 3.19725C24.8865 3.38352 25.5777 4.06588 25.7781 4.89473C25.9911 5.7733 25.7146 6.65149 25.0372 7.24396C24.792 7.45777 24.7041 7.80316 24.8192 8.10877C24.9336 8.41399 25.2258 8.61709 25.5524 8.61709H32.9V10.1838H26.6333C26.2004 10.1838 25.85 10.5337 25.85 10.9671V14.8838C25.85 15.1595 25.995 15.4139 26.2302 15.555L28.8957 17.1546C29.4331 17.4782 29.7667 18.0657 29.7667 18.6914V24.2838H27.4167V19.5838C27.4167 19.2869 27.2491 19.0158 26.9837 18.8827L23.8504 17.316C23.6067 17.1951 23.3191 17.2062 23.0881 17.3504C22.8578 17.4938 22.7167 17.7451 22.7167 18.0171V28.9838H20.3667V10.9671C20.3667 10.5337 20.0167 10.1838 19.5833 10.1838H13.3167ZM13.3167 34.4671V30.5504H22.7167V45.4338H13.3167V34.4671ZM11.75 35.2504V45.4338H2.35V35.2504H11.75ZM1.56667 20.1705C1.56667 18.743 2.72751 17.5814 4.15572 17.5814H4.67055C4.99719 17.5814 5.28903 17.3787 5.40454 17.0739C5.51967 16.769 5.4317 16.4236 5.18652 16.2091C4.81704 15.8863 4.61394 15.446 4.61394 14.9713C4.61318 14.0587 5.35482 13.3171 6.26667 13.3171C7.17852 13.3171 7.92054 14.0587 7.92054 14.9706C7.92054 15.4452 7.71668 15.8855 7.34796 16.2083C7.10278 16.4229 7.01481 16.7683 7.12994 17.0731C7.24507 17.378 7.53729 17.5807 7.86393 17.5807H8.37876C9.80582 17.5807 10.9674 18.7415 10.9674 20.1697V25.0671H10.1841V20.3671H8.61743V33.6838H7.05077V25.8504H5.48333V33.6838H3.91667V20.3671H2.35V25.0671H1.56667V20.1705Z" fill="#ED1C27"/>
</svg>
