<svg width="20" height="21" viewBox="0 0 20 21" fill="none" xmlns="http://www.w3.org/2000/svg">
<path d="M15.2161 6.46652V4.61479L9.99988 3.08028L4.78366 4.61481V6.46655C4.7834 6.6971 4.69169 6.91813 4.52866 7.08116C4.36563 7.24418 4.1446 7.33588 3.91405 7.33614H2.74741C2.89747 8.5154 3.16875 9.67605 3.55694 10.7997C4.75903 14.2173 6.92606 16.5225 9.99902 17.6524C12.4187 16.7552 16.3795 14.2428 17.2543 7.33612H16.0857C15.8552 7.33583 15.6341 7.24411 15.4711 7.0811C15.3081 6.91808 15.2164 6.69707 15.2161 6.46652ZM14.7843 11.6841C14.7843 11.7412 14.7731 11.7978 14.7512 11.8505C14.7294 11.9033 14.6973 11.9512 14.657 11.9916C14.6166 12.032 14.5686 12.064 14.5159 12.0859C14.4631 12.1077 14.4066 12.1189 14.3494 12.1189H11.7406V14.7277C11.7406 14.7848 11.7294 14.8413 11.7076 14.8941C11.6857 14.9469 11.6537 14.9948 11.6133 15.0352C11.5729 15.0756 11.525 15.1076 11.4722 15.1294C11.4194 15.1513 11.3629 15.1625 11.3058 15.1625H8.69693C8.63983 15.1625 8.58328 15.1512 8.53052 15.1294C8.47776 15.1075 8.42983 15.0755 8.38945 15.0351C8.34907 14.9948 8.31704 14.9468 8.29519 14.8941C8.27335 14.8413 8.26211 14.7848 8.26212 14.7277V12.1189H5.65328C5.59618 12.1189 5.53963 12.1077 5.48687 12.0858C5.43411 12.064 5.38618 12.032 5.3458 11.9916C5.30542 11.9512 5.27339 11.9033 5.25154 11.8505C5.2297 11.7978 5.21846 11.7412 5.21847 11.6841V9.07531C5.21846 9.0182 5.2297 8.96166 5.25154 8.9089C5.27339 8.85614 5.30542 8.80821 5.3458 8.76783C5.38618 8.72746 5.43411 8.69543 5.48687 8.67359C5.53963 8.65174 5.59618 8.64051 5.65328 8.64052H8.26215V6.03172C8.26213 5.97462 8.27337 5.91808 8.29522 5.86532C8.31707 5.81256 8.34909 5.76463 8.38947 5.72425C8.42985 5.68388 8.47779 5.65185 8.53055 5.63001C8.58331 5.60816 8.63985 5.59693 8.69695 5.59694H11.3058C11.3629 5.59691 11.4195 5.60813 11.4722 5.62997C11.525 5.65181 11.5729 5.68383 11.6133 5.72421C11.6537 5.76459 11.6857 5.81253 11.7076 5.8653C11.7294 5.91807 11.7406 5.97462 11.7406 6.03172V8.64052H14.3495C14.4066 8.64049 14.4631 8.65171 14.5159 8.67355C14.5687 8.69539 14.6166 8.72741 14.657 8.76779C14.6974 8.80817 14.7294 8.85612 14.7512 8.90888C14.7731 8.96165 14.7843 9.0182 14.7843 9.07531L14.7843 11.6841ZM11.3058 9.51011H13.9146V11.2493H11.3058C11.2487 11.2493 11.1921 11.2605 11.1394 11.2823C11.0866 11.3042 11.0386 11.3362 10.9983 11.3766C10.9579 11.417 10.9259 11.4649 10.904 11.5177C10.8822 11.5704 10.8709 11.627 10.871 11.6841V14.2929H9.13174V11.6841C9.13176 11.627 9.12052 11.5705 9.09867 11.5177C9.07683 11.4649 9.0448 11.417 9.00442 11.3766C8.96404 11.3363 8.9161 11.3042 8.86334 11.2824C8.81058 11.2605 8.75404 11.2493 8.69694 11.2493H6.08809V9.51011H8.69693C8.75403 9.51013 8.81058 9.49889 8.86333 9.47705C8.91609 9.4552 8.96403 9.42318 9.00441 9.3828C9.04479 9.34243 9.07682 9.29449 9.09866 9.24173C9.12051 9.18897 9.13175 9.13243 9.13173 9.07533V6.46652H10.871V9.07531C10.8709 9.13242 10.8822 9.18897 10.904 9.24174C10.9258 9.29451 10.9579 9.34245 10.9983 9.38284C11.0386 9.42322 11.0866 9.45525 11.1394 9.47708C11.1921 9.49892 11.2487 9.51014 11.3058 9.51011ZM19.7519 4.98761C19.6709 4.90483 19.5741 4.83913 19.4672 4.79442C19.3604 4.74972 19.2456 4.7269 19.1298 4.72733H17.8249V3.31339C17.8241 3.12581 17.763 2.94347 17.6506 2.79331C17.5382 2.64314 17.3805 2.53311 17.2008 2.47948L10.1309 0.399731C10.0391 0.371793 9.94081 0.373725 9.8502 0.405249L2.799 2.47946C2.61924 2.53306 2.46149 2.64308 2.34909 2.79325C2.23668 2.94343 2.17558 3.12579 2.17481 3.31337V4.72731H0.869964C0.754569 4.72693 0.640258 4.74958 0.53373 4.79394C0.427203 4.8383 0.330602 4.90348 0.24959 4.98566C0.168579 5.06784 0.104785 5.16536 0.0619501 5.27251C0.0191149 5.37966 -0.0019008 5.49428 0.000134944 5.60966C0.0364392 7.58027 0.681646 17.5428 9.84616 20.3525C9.89481 20.3708 9.94639 20.3802 9.99839 20.3801C9.99945 20.3796 9.99966 20.3796 10.0016 20.3801C10.0536 20.3802 10.1051 20.3708 10.1538 20.3525C19.3196 17.5428 19.9637 7.57984 19.9998 5.60923C20.0021 5.4943 19.9813 5.38009 19.9388 5.27332C19.8962 5.16656 19.8326 5.06941 19.7519 4.98761ZM10.1445 18.5245C10.0508 18.5578 9.94861 18.558 9.85487 18.525C6.44413 17.3225 4.04929 14.8203 2.73659 11.0884C2.2745 9.74715 1.96915 8.35694 1.82663 6.9455C1.82046 6.885 1.82705 6.82388 1.84597 6.76608C1.86489 6.70828 1.89573 6.6551 1.93648 6.60996C1.97724 6.56483 2.02701 6.52874 2.08258 6.50404C2.13815 6.47933 2.19829 6.46656 2.2591 6.46655H3.91405V4.61481C3.91487 4.42716 3.97601 4.24475 4.08844 4.09451C4.20088 3.94427 4.35864 3.83417 4.53845 3.78046L9.87716 2.21026C9.95724 2.18648 10.0425 2.18648 10.1226 2.21026L15.4615 3.78088C15.6413 3.83452 15.799 3.94455 15.9114 4.09471C16.0238 4.24488 16.0849 4.42722 16.0857 4.61479V6.46653H17.7417C17.8026 6.46657 17.8627 6.47937 17.9183 6.50411C17.9739 6.52884 18.0237 6.56496 18.0645 6.61014C18.1053 6.65531 18.1361 6.70854 18.1551 6.76637C18.174 6.82421 18.1806 6.88537 18.1744 6.94591C17.8937 9.67231 16.5498 16.2584 10.1445 18.5245Z" fill="white"/>
</svg>
