<svg width="47" height="47" viewBox="0 0 47 47" fill="none" xmlns="http://www.w3.org/2000/svg">
<path d="M39.4143 31.7497C37.6434 31.7497 35.9653 32.3516 34.6139 33.4583L32.4184 31.2659C32.4764 31.1587 32.5094 31.036 32.5094 30.9055V26.6049C32.5094 26.1857 32.1692 25.846 31.7494 25.846H27.4374C27.4274 25.846 27.4176 25.8471 27.4077 25.8475V25.846H22.7864C21.5025 25.846 20.4178 24.7641 20.4178 23.4835C20.4178 22.2028 21.5025 21.1209 22.7864 21.1209H27.3514V21.1157C27.3797 21.1189 27.4083 21.1209 27.4374 21.1209H31.7495C32.1693 21.1209 32.5095 20.7812 32.5095 20.3621V16.0588C32.5095 15.9115 32.4668 15.7746 32.3941 15.6582L34.5004 13.5548C35.6862 14.5283 37.1226 15.1144 38.6534 15.251V20.1403C37.1262 20.487 35.9823 21.8537 35.9823 23.4835C35.9823 25.3728 37.5215 26.9097 39.4134 26.9097C41.3053 26.9097 42.8473 25.3728 42.8473 23.4835C42.8473 21.8535 41.7021 20.4866 40.1733 20.1402V15.2381C41.6806 15.0776 43.0906 14.4787 44.2539 13.5037C44.2816 13.4831 44.3074 13.4604 44.3319 13.4364C44.4775 13.3109 44.6205 13.1815 44.7578 13.0443C46.2037 11.6018 47 9.6831 47 7.64161C47 5.60013 46.2036 3.68117 44.7581 2.23916C43.3135 0.795253 41.392 0 39.3475 0C37.303 0 35.3815 0.795253 33.9375 2.23869C32.4914 3.68117 31.695 5.60003 31.695 7.64161C31.695 9.42809 32.3048 11.1205 33.4257 12.4817L30.6034 15.3H27.4374C27.4328 15.3 27.4284 15.3006 27.4239 15.3007V15.3H22.7863C20.9951 15.3 19.3376 15.8784 17.9877 16.8557L13.6436 12.5177C14.6159 11.3517 15.2105 9.93971 15.3646 8.43175L20.2146 8.4526C20.581 9.95232 21.9371 11.0692 23.5502 11.0692C25.4422 11.0692 26.9814 9.531 26.9814 7.64019C26.9814 5.74938 25.4421 4.21393 23.5502 4.21393C21.8991 4.21393 20.5168 5.38284 20.1899 6.93477L15.3708 6.91402C15.2047 5.14725 14.436 3.50842 13.1634 2.23888C11.7176 0.795158 9.79582 0 7.75219 0C5.70856 0 3.78716 0.795253 2.34301 2.23869C0.897142 3.68117 0.100758 5.60003 0.100758 7.64161C0.100758 9.68319 0.897142 11.602 2.34253 13.044C2.48013 13.1816 2.62343 13.3113 2.76948 13.437C2.79358 13.4605 2.81902 13.483 2.84635 13.5033C4.21999 14.6548 5.93727 15.2831 7.75219 15.2831C9.52432 15.2831 11.2043 14.6844 12.5623 13.5841L16.8426 17.8584C15.4489 19.3261 14.5912 21.306 14.5912 23.4835C14.5912 25.6609 15.4493 27.6404 16.8434 29.1076L12.5599 33.385C11.3832 32.4177 9.96123 31.8291 8.44476 31.6815L8.44685 26.8234C9.97442 26.4764 11.1183 25.1111 11.1183 23.4833C11.1183 21.5926 9.57793 20.0544 7.68444 20.0544C5.79094 20.0544 4.2534 21.5926 4.2534 23.4833C4.2534 25.1125 5.39844 26.4788 6.92696 26.8243L6.92487 31.6816C5.15825 31.8539 3.51993 32.6249 2.24858 33.8957C-0.749528 36.8895 -0.749528 41.7608 2.24858 44.7547C2.38505 44.891 2.52682 45.019 2.67078 45.1429C2.69944 45.1716 2.73019 45.1984 2.7635 45.2223C4.18412 46.4064 5.93452 47 7.68576 47C9.43701 47 11.1872 46.4065 12.6077 45.2226C12.6413 45.1984 12.6726 45.1715 12.7014 45.1424C12.8452 45.0186 12.9867 44.8908 13.1229 44.7547C14.5752 43.3044 15.3752 41.3761 15.3752 39.3252C15.3752 37.5292 14.7617 35.8274 13.6342 34.4584L17.9888 30.1099C19.3386 31.0863 20.9956 31.6642 22.7862 31.6642H27.4238V31.6635C27.4283 31.6635 27.4327 31.6642 27.4373 31.6642H30.6679L33.5391 34.5313C32.5836 35.6947 32.0043 37.1008 31.8626 38.5996L26.8985 38.5787C26.5567 37.0467 25.1857 35.8977 23.55 35.8977C21.6566 35.8977 20.1162 37.4347 20.1162 39.324C20.1162 41.2133 21.6565 42.7529 23.55 42.7529C25.1761 42.7529 26.5407 41.6162 26.8924 40.0964L31.8695 40.1174C32.0478 41.8413 32.8058 43.4387 34.0499 44.6796C34.186 44.8155 34.3277 44.9437 34.472 45.0679C34.497 45.0925 34.5235 45.1158 34.552 45.137C35.9139 46.2766 37.6158 46.8983 39.4141 46.8983C41.2125 46.8983 42.9066 46.2793 44.266 45.1443C44.3038 45.1174 44.3386 45.0872 44.3705 45.0542C44.5091 44.9342 44.6453 44.8106 44.7764 44.6796C46.2093 43.2501 46.9984 41.3485 46.9984 39.325C46.9984 37.3016 46.2093 35.3992 44.7766 33.9686C43.3451 32.5376 41.4407 31.7496 39.4141 31.7496L39.4143 31.7497ZM37.5424 6.86939C37.5424 5.87475 38.3527 5.06557 39.3487 5.06557C40.3446 5.06557 41.1524 5.87475 41.1524 6.86939C41.1524 7.86402 40.3433 8.6732 39.3487 8.6732C38.354 8.6732 37.5424 7.86402 37.5424 6.86939ZM39.3487 10.1908C40.9454 10.1908 42.351 11.1687 42.9171 12.6202C41.8832 13.3633 40.6468 13.7655 39.3474 13.7655C38.0481 13.7655 36.812 13.3634 35.778 12.6204C36.3452 11.1688 37.7517 10.1908 39.3487 10.1908ZM41.3273 23.4835C41.3273 24.5358 40.4686 25.392 39.4133 25.392C38.3579 25.392 37.5019 24.5358 37.5019 23.4835C37.5019 22.4311 38.3593 21.5723 39.4133 21.5723C40.4672 21.5723 41.3273 22.4296 41.3273 23.4835ZM35.0121 3.31188C36.1696 2.15492 37.7093 1.51773 39.3475 1.51773C40.9857 1.51773 42.5254 2.15492 43.6834 3.31235C44.842 4.46818 45.4801 6.00571 45.4801 7.64161C45.4801 9.0768 44.9888 10.436 44.0861 11.5284C43.5543 10.5153 42.7137 9.7083 41.7003 9.2143C42.3007 8.61303 42.6725 7.78376 42.6725 6.86929C42.6725 5.0378 41.1815 3.54784 39.3489 3.54784C37.5164 3.54784 36.0228 5.0379 36.0228 6.86929C36.0228 7.78395 36.395 8.61341 36.996 9.21468C35.9825 9.70878 35.1417 10.5158 34.6096 11.5288C33.7065 10.4364 33.215 9.0769 33.215 7.64152C33.215 6.00562 33.8531 4.46809 35.0122 3.31179L35.0121 3.31188ZM28.1973 16.8176H30.9896V19.6033H28.1973V16.8176ZM23.5502 5.73166C24.6041 5.73166 25.4616 6.58784 25.4616 7.64019C25.4616 8.69254 24.6042 9.55147 23.5502 9.55147C22.4963 9.55147 21.6362 8.69405 21.6362 7.64019C21.6362 6.58633 22.4949 5.73166 23.5502 5.73166ZM1.62055 7.64161C1.62055 6.00571 2.25864 4.46828 3.41773 3.31188C4.5752 2.15492 6.11454 1.51773 7.75219 1.51773C9.38985 1.51773 10.9299 2.15501 12.089 3.31235C13.2476 4.46818 13.8857 6.00571 13.8857 7.64161C13.8857 9.07718 13.3942 10.4367 12.4908 11.5293C11.9582 10.5163 11.1176 9.70916 10.1043 9.21506C10.7056 8.61379 11.078 7.78414 11.078 6.86929C11.078 5.0378 9.58581 3.54784 7.75181 3.54784C5.91781 3.54784 4.42554 5.0379 4.42554 6.86929C4.42554 7.78404 4.79783 8.6136 5.39901 9.21487C4.38616 9.70887 3.54622 10.5157 3.0146 11.5284C2.11184 10.436 1.62055 9.0768 1.62055 7.64161ZM5.94533 6.86939C5.94533 5.87475 6.75567 5.06557 7.75172 5.06557C8.74777 5.06557 9.55801 5.87475 9.55801 6.86939C9.55801 7.86402 8.74767 8.6732 7.75172 8.6732C6.75576 8.6732 5.94533 7.86402 5.94533 6.86939ZM4.18346 12.6203C4.74962 11.1688 6.15506 10.1908 7.75181 10.1908C9.34857 10.1908 10.7538 11.1687 11.3221 12.6203C10.2876 13.3633 9.05097 13.7655 7.75219 13.7655C6.45342 13.7655 5.21747 13.3634 4.18355 12.6202L4.18346 12.6203ZM5.77328 23.4836C5.77328 22.4297 6.63059 21.5724 7.68453 21.5724C8.73847 21.5724 9.59853 22.4297 9.59853 23.4836C9.59853 24.5374 8.73989 25.3921 7.68453 25.3921C6.62917 25.3921 5.77328 24.5359 5.77328 23.4836ZM4.09226 44.3323C4.66184 42.8688 6.07705 41.8828 7.68453 41.8828C9.29201 41.8828 10.7098 42.8689 11.2795 44.3324C10.2097 45.0991 8.94819 45.4835 7.68586 45.4834C6.42391 45.4832 5.16224 45.0988 4.09236 44.3323H4.09226ZM5.86477 38.5478C5.86477 37.5458 6.68117 36.7306 7.68453 36.7306C8.68789 36.7306 9.50704 37.5459 9.50704 38.5478C9.50704 39.5497 8.6895 40.3651 7.68453 40.3651C6.67956 40.3651 5.86477 39.5498 5.86477 38.5478ZM12.4492 43.2412C11.914 42.2188 11.0665 41.4046 10.0443 40.9073C10.6509 40.3032 11.0268 39.4685 11.0268 38.5478C11.0268 36.7089 9.52745 35.2129 7.68444 35.2129C5.84142 35.2129 4.34488 36.7089 4.34488 38.5478C4.34488 39.4684 4.72049 40.3031 5.3266 40.9071C4.30493 41.4043 3.45787 42.2182 2.92283 43.2405C0.92694 40.8228 1.05999 37.2292 3.32359 34.9688C4.48884 33.8039 6.03805 33.1625 7.68586 33.1625C9.33367 33.1625 10.8829 33.8039 12.0485 34.969C13.2138 36.1326 13.8556 37.6797 13.8556 39.3253C13.8556 40.7711 13.3598 42.1406 12.4493 43.241L12.4492 43.2412ZM16.111 23.4836C16.111 19.808 19.1056 16.8177 22.7863 16.8177H26.6774V19.6034H22.7863C20.6422 19.6034 18.8978 21.344 18.8978 23.4836C18.8978 25.6231 20.6422 27.3637 22.7863 27.3637H26.6774V30.1466H22.7863C19.1056 30.1466 16.111 27.1576 16.111 23.4836ZM23.5502 41.2354C22.4949 41.2354 21.6362 40.378 21.6362 39.3242C21.6362 38.2703 22.4949 37.4156 23.5502 37.4156C24.6056 37.4156 25.4616 38.2718 25.4616 39.3242C25.4616 40.3765 24.6042 41.2354 23.5502 41.2354ZM28.1973 27.3638H30.9896V30.1467H28.1973V27.3638ZM35.889 44.2527C36.4516 42.8204 37.8391 41.8559 39.4134 41.8559C40.9876 41.8559 42.377 42.8199 42.94 44.2517C41.9186 44.9843 40.6975 45.3809 39.4144 45.3809C38.1313 45.3809 36.911 44.9848 35.8891 44.2527H35.889ZM37.6339 38.5613C37.6339 37.5801 38.4322 36.7817 39.4134 36.7817C40.3945 36.7817 41.1955 37.5801 41.1955 38.5613C41.1955 39.5426 40.396 40.3382 39.4134 40.3382C38.4308 40.3382 37.6339 39.5411 37.6339 38.5613ZM44.1075 43.1606C43.5808 42.164 42.7532 41.3692 41.7562 40.8803C42.3487 40.2845 42.7153 39.4649 42.7153 38.5613C42.7153 36.7431 41.234 35.264 39.4133 35.264C37.5926 35.264 36.114 36.7432 36.114 38.5613C36.114 39.4648 36.4803 40.2843 37.0722 40.8802C36.075 41.3693 35.2473 42.1649 34.7208 43.1625C33.8316 42.0834 33.348 40.7417 33.348 39.3252C33.348 37.7071 33.979 36.1859 35.1248 35.0417C36.2706 33.8976 37.7939 33.2675 39.4143 33.2675C41.0347 33.2675 42.5572 33.8975 43.7019 35.0417C44.8476 36.1859 45.4787 37.707 45.4787 39.3252C45.4787 40.7409 44.9957 42.0819 44.1075 43.1606Z" fill="#ED1C27"/>
</svg>
