<svg width="47" height="47" viewBox="0 0 47 47" fill="none" xmlns="http://www.w3.org/2000/svg">
<path d="M15.8633 26.1438C13.4398 26.1438 11.457 24.161 11.457 21.7375C11.457 19.3141 13.4398 17.3313 15.8633 17.3313C18.2867 17.3313 20.2695 19.3141 20.2695 21.7375C20.2695 24.161 18.2867 26.1438 15.8633 26.1438ZM15.8633 18.8C14.2477 18.8 12.9258 20.1219 12.9258 21.7375C12.9258 23.3532 14.2477 24.675 15.8633 24.675C17.4789 24.675 18.8008 23.3532 18.8008 21.7375C18.8008 20.1219 17.4789 18.8 15.8633 18.8Z" fill="#ED1C27"/>
<path d="M22.3254 38.5548H9.40039C9.10664 38.5548 8.88633 38.4079 8.73945 38.1142C8.00508 36.572 7.56445 34.8829 7.56445 33.3407C7.56445 29.3751 10.3551 27.3188 15.8629 27.3188C21.3707 27.3188 24.1613 29.3751 24.1613 33.3407C24.1613 34.736 23.7207 36.4251 22.9863 38.1142C22.9129 38.4079 22.6191 38.5548 22.3254 38.5548ZM9.84102 37.086H21.8113C22.3254 35.7642 22.6926 34.4423 22.6926 33.3407C22.6926 30.1829 20.5629 28.7876 15.8629 28.7876C11.1629 28.7876 9.0332 30.1829 9.0332 33.3407C9.0332 34.5157 9.32695 35.911 9.84102 37.086Z" fill="#ED1C27"/>
<path d="M15.8652 33.414C15.6449 33.414 15.498 33.3406 15.3512 33.1937L11.6793 29.4484C11.3855 29.1546 11.3855 28.714 11.6793 28.4203C11.973 28.1265 12.4137 28.1265 12.7074 28.4203L15.8652 31.6515L19.023 28.4203C19.3168 28.1265 19.7574 28.1265 20.0512 28.4203C20.3449 28.714 20.3449 29.1546 20.0512 29.4484L16.3793 33.1937C16.2324 33.3406 16.0855 33.414 15.8652 33.414Z" fill="#ED1C27"/>
<path d="M15.8652 38.3344C15.4246 38.3344 15.1309 38.0406 15.1309 37.6V32.6797C15.1309 32.2391 15.4246 31.9453 15.8652 31.9453C16.3059 31.9453 16.5996 32.2391 16.5996 32.6797V37.6C16.5996 38.0406 16.3059 38.3344 15.8652 38.3344Z" fill="#ED1C27"/>
<path d="M20.3422 34.1484H18.3594C17.9187 34.1484 17.625 33.8547 17.625 33.4141C17.625 32.9734 17.9187 32.6797 18.3594 32.6797H20.3422C20.7828 32.6797 21.0766 32.9734 21.0766 33.4141C21.0766 33.8547 20.7828 34.1484 20.3422 34.1484Z" fill="#ED1C27"/>
<path d="M38.6992 34.4421C36.2758 34.4421 34.293 32.4593 34.293 30.0359C34.293 27.6125 36.2758 25.6296 38.6992 25.6296C41.1227 25.6296 43.1055 27.6125 43.1055 30.0359C43.1055 32.4593 41.1227 34.4421 38.6992 34.4421ZM38.6992 27.0984C37.0836 27.0984 35.7617 28.4203 35.7617 30.0359C35.7617 31.6515 37.0836 32.9734 38.6992 32.9734C40.3148 32.9734 41.6367 31.6515 41.6367 30.0359C41.6367 28.4203 40.3148 27.0984 38.6992 27.0984Z" fill="#ED1C27"/>
<path d="M43.6926 46.8531H33.7051C32.4566 46.8531 31.3551 46.0453 30.9879 44.7969C30.6207 43.8422 30.4004 42.7406 30.4004 41.6391C30.4004 37.6734 33.191 35.6172 38.6988 35.6172C44.2066 35.6172 46.9973 37.6734 46.9973 41.6391C46.9973 42.5203 46.8504 43.475 46.4832 44.7969C46.0426 46.0453 45.0145 46.8531 43.6926 46.8531ZM38.6988 37.0859C33.9988 37.0859 31.8691 38.4813 31.8691 41.6391C31.8691 42.5938 32.016 43.5484 32.3098 44.2828C32.5301 44.9438 33.0441 45.3844 33.7051 45.3844H43.6926C44.3535 45.3844 44.8676 45.0172 45.0145 44.3563C45.3082 43.2547 45.5285 42.3 45.5285 41.6391C45.5285 38.4813 43.3988 37.0859 38.6988 37.0859Z" fill="#ED1C27"/>
<path d="M31.1375 44.4297H0.734375C0.29375 44.4297 0 44.1359 0 43.6953V37.8203C0 37.3797 0.29375 37.0859 0.734375 37.0859H32.3859C32.8266 37.0859 33.1203 37.3797 33.1203 37.8203C33.1203 38.2609 32.8266 38.5547 32.3859 38.5547H1.46875V42.9609H31.1375C31.5781 42.9609 31.8719 43.2547 31.8719 43.6953C31.8719 44.1359 31.5781 44.4297 31.1375 44.4297Z" fill="#ED1C27"/>
<path d="M9.25391 18.7266C9.03359 18.7266 8.88672 18.6531 8.73984 18.5062L5.21484 15.0547H4.03984C2.42422 15.0547 1.17578 13.8063 1.17578 12.1906V2.86406C1.17578 1.24844 2.42422 0 4.03984 0H23.9414C25.557 0 26.8055 1.24844 26.8055 2.86406V3.37812C26.8055 3.45156 26.8055 3.525 26.732 3.59844L26.6586 3.81875C26.5852 4.03906 26.4383 4.18594 26.218 4.25938C22.693 5.50781 20.343 8.88594 20.343 12.7047C20.343 13.1453 20.343 13.4391 20.4164 13.7328C20.4898 13.9531 20.4164 14.1 20.343 14.3203L20.0492 14.7609C19.9023 14.9813 19.682 15.0547 19.4617 15.0547H9.91484L9.98828 17.9922C9.98828 18.2859 9.84141 18.5797 9.54766 18.6531C9.47422 18.7266 9.32734 18.7266 9.25391 18.7266ZM4.03984 1.46875C3.30547 1.46875 2.64453 2.12969 2.64453 2.86406V12.1906C2.64453 12.925 3.30547 13.5859 4.03984 13.5859H5.50859C5.72891 13.5859 5.87578 13.6594 6.02266 13.8062L8.51953 16.2297L8.44609 14.3203C8.44609 14.1 8.51953 13.9531 8.66641 13.8062C8.81328 13.6594 8.96016 13.5859 9.18047 13.5859H18.8742C18.8742 13.2922 18.8742 12.9984 18.8742 12.7047C18.8742 8.44531 21.4445 4.62656 25.3367 3.08438V2.86406C25.3367 2.05625 24.7492 1.46875 23.9414 1.46875H4.03984Z" fill="#ED1C27"/>
<path d="M38.1148 23.0595C38.0414 23.0595 38.0414 23.0595 37.968 23.0595L33.268 22.2517C31.9461 22.8392 30.6242 23.1329 29.1555 23.1329C23.4273 23.1329 18.8008 18.5063 18.8008 12.7782C18.8008 7.0501 23.5008 2.3501 29.2289 2.3501C34.957 2.3501 39.5836 6.97666 39.5836 12.7048C39.5836 14.5407 39.0695 16.3767 38.1148 18.0657L38.8492 22.2517C38.9227 22.472 38.8492 22.7657 38.6289 22.9126C38.482 22.986 38.3352 23.0595 38.1148 23.0595ZM29.2289 3.74541C24.3086 3.74541 20.2695 7.78447 20.2695 12.7048C20.2695 17.6251 24.2352 21.5907 29.1555 21.5907C30.4773 21.5907 31.7258 21.297 32.9008 20.7829C33.0477 20.7095 33.1945 20.7095 33.3414 20.7095L37.2336 21.3704L36.6461 17.9188C36.6461 17.772 36.6461 17.5517 36.7195 17.4048C37.6742 15.8626 38.1883 14.247 38.1883 12.5579C38.1148 7.71104 34.1492 3.74541 29.2289 3.74541Z" fill="#ED1C27"/>
<path d="M23.351 12.1907C23.1306 12.1907 22.9838 12.1173 22.8369 11.9704C22.5431 11.6767 22.5432 11.236 22.9103 10.9423L28.7853 5.50791C29.0791 5.21416 29.5197 5.21416 29.8135 5.50791L35.615 10.9423C35.9088 11.236 35.9088 11.6767 35.615 11.9704C35.3213 12.2642 34.8806 12.2642 34.5869 11.9704L29.2994 6.97666L23.9385 11.9704C23.7181 12.1173 23.4978 12.1907 23.351 12.1907Z" fill="#ED1C27"/>
<path d="M33.7066 18.0657H24.6738C24.2332 18.0657 23.9395 17.772 23.9395 17.3313V10.3548C23.9395 10.1345 24.0129 9.9876 24.1598 9.84072L28.7129 5.50791C29.0066 5.21416 29.4473 5.21416 29.741 5.50791L34.2207 9.84072C34.3676 9.9876 34.441 10.1345 34.441 10.3548V17.3313C34.441 17.772 34.1473 18.0657 33.7066 18.0657ZM25.4082 16.597H32.9723V10.6485L29.227 7.0501L25.4082 10.6485V16.597Z" fill="#ED1C27"/>
<path d="M30.8426 18.0655H27.6113C27.1707 18.0655 26.877 17.7718 26.877 17.3312V13.0718C26.877 12.6312 27.1707 12.3374 27.6113 12.3374H30.8426C31.2832 12.3374 31.577 12.6312 31.577 13.0718V17.3312C31.577 17.7718 31.2832 18.0655 30.8426 18.0655ZM28.3457 16.5968H30.1082V13.8062H28.3457V16.5968Z" fill="#ED1C27"/>
<path d="M18.2125 4.77344H5.50781C5.06719 4.77344 4.77344 4.47969 4.77344 4.03906C4.77344 3.59844 5.06719 3.30469 5.50781 3.30469H18.2125C18.6531 3.30469 18.9469 3.59844 18.9469 4.03906C18.9469 4.47969 18.6531 4.77344 18.2125 4.77344Z" fill="#ED1C27"/>
<path d="M16.0094 8.22485H5.50781C5.06719 8.22485 4.77344 7.9311 4.77344 7.49048C4.77344 7.04985 5.06719 6.7561 5.50781 6.7561H16.0094C16.45 6.7561 16.7437 7.04985 16.7437 7.49048C16.7437 7.9311 16.45 8.22485 16.0094 8.22485Z" fill="#ED1C27"/>
<path d="M16.0094 11.6765H5.50781C5.06719 11.6765 4.77344 11.3828 4.77344 10.9421C4.77344 10.5015 5.06719 10.2078 5.50781 10.2078H16.0094C16.45 10.2078 16.7437 10.5015 16.7437 10.9421C16.7437 11.3828 16.45 11.6765 16.0094 11.6765Z" fill="#ED1C27"/>
</svg>
