<svg width="47" height="47" viewBox="0 0 47 47" fill="none" xmlns="http://www.w3.org/2000/svg">
<path d="M20.6546 10.1357H9.51262C8.99759 10.1357 8.58008 10.5533 8.58008 11.0683C8.58008 11.5833 8.99759 12.0008 9.51262 12.0008H20.6546C21.1696 12.0008 21.5871 11.5833 21.5871 11.0683C21.5871 10.5533 21.1696 10.1357 20.6546 10.1357Z" fill="#ED1C27"/>
<path d="M29.096 13.6897H9.51262C8.99759 13.6897 8.58008 14.1072 8.58008 14.6222C8.58008 15.1373 8.99759 15.5548 9.51262 15.5548H29.096C29.611 15.5548 30.0285 15.1373 30.0285 14.6222C30.0285 14.1072 29.611 13.6897 29.096 13.6897Z" fill="#ED1C27"/>
<path d="M29.096 17.2427H9.51262C8.99759 17.2427 8.58008 17.6602 8.58008 18.1752C8.58008 18.6902 8.99759 19.1078 9.51262 19.1078H29.096C29.611 19.1078 30.0285 18.6902 30.0285 18.1752C30.0285 17.6602 29.611 17.2427 29.096 17.2427Z" fill="#ED1C27"/>
<path d="M46.6727 22.0462L43.2708 18.6443V10.4444C43.2708 10.147 43.1523 9.86254 42.9425 9.65272L33.6162 0.327321C33.4064 0.1175 33.1219 0 32.8254 0H7.21413C5.2931 0 3.73016 1.54708 3.73016 3.4504V18.6433L0.328254 22.0462C0.125893 22.2485 0 22.5283 0 22.8379V39.6236C0 40.2419 0.500774 40.7427 1.11905 40.7427H3.73016V43.5496C3.73016 45.452 5.2931 47 7.21413 47H39.7859C41.7069 47 43.2698 45.452 43.2698 43.5496V40.7427H45.881C46.4992 40.7427 47 40.2419 47 39.6236V22.8379C47 22.5292 46.875 22.2495 46.6727 22.0462ZM43.2708 20.2268L44.7628 21.7188H43.2708V20.2268ZM32.8254 1.11905L42.1508 10.4444H32.8254V1.11905ZM4.84921 3.4504C4.84921 2.16256 5.90764 1.11905 7.21413 1.11905H31.7064V10.4444C31.7064 11.0618 32.2071 11.5635 32.8254 11.5635H42.1508V21.7188H4.84921V3.4504ZM3.73016 20.2268V21.7188H2.2381L3.73016 20.2268ZM42.1508 43.5496C42.1508 44.8365 41.0914 45.881 39.7859 45.881H7.21413C5.90764 45.881 4.84921 44.8365 4.84921 43.5496V40.7427H42.1508V43.5496ZM45.881 39.6236H1.11905V22.8379H45.881V39.6236Z" fill="#ED1C27"/>
<path d="M16.942 34.3454H13.6567L13.0832 36.203H10.5215L14.1686 26.2584H16.4226L20.0968 36.203H17.5221L16.9411 34.3454H16.942ZM14.2302 32.4943H16.3676L15.2952 29.0449L14.2293 32.4943H14.2302Z" fill="#ED1C27"/>
<path d="M26.9881 31.9824H23.2179V34.3594H27.6708V36.204H20.8203V26.2594H27.6847V28.1105H23.2179V30.2078H26.9881V31.9833V31.9824Z" fill="#ED1C27"/>
<path d="M31.046 32.8291V36.203H28.6484V26.2584H32.6164C33.3764 26.2584 34.0497 26.3983 34.6344 26.6781C35.2191 26.9578 35.6723 27.357 35.9941 27.8736C36.3148 28.3902 36.4752 28.9768 36.4752 29.6324C36.4752 30.6022 36.1283 31.3771 35.4336 31.9581C34.7389 32.5391 33.7867 32.8291 32.5754 32.8291H31.0451H31.046ZM31.046 30.978H32.6173C33.0817 30.978 33.4361 30.8614 33.6795 30.6292C33.9229 30.397 34.045 30.0688 34.045 29.6454C34.045 29.181 33.9201 28.8099 33.6692 28.532C33.4184 28.2541 33.0771 28.1132 32.6444 28.1086H31.046V30.9771V30.978Z" fill="#ED1C27"/>
</svg>
