<svg width="48" height="46" viewBox="0 0 48 46" fill="none" xmlns="http://www.w3.org/2000/svg">
<path d="M44.1878 19.9248C44.0039 14.6842 41.8817 9.78374 38.1553 6.05731C34.2495 2.15073 29.0584 0 23.5394 0C12.3924 0 3.28427 8.8724 2.89166 19.9248C1.19059 20.6807 0 22.3833 0 24.3621V29.8136C0 32.4906 2.17775 34.6691 4.85546 34.6691C6.58805 34.6691 7.99709 33.2601 7.99709 31.5275V22.6476C7.99709 21.0208 6.74945 19.6943 5.16324 19.5367C5.74878 9.9076 13.7646 2.25207 23.5394 2.25207C28.4579 2.25207 33.0829 4.16933 36.5638 7.65028C39.7603 10.8467 41.631 15.013 41.9125 19.5374C40.3278 19.6966 39.0824 21.0223 39.0824 22.6476V31.5267C39.0824 33.167 40.3496 34.5017 41.9545 34.6406V36.8844C41.9545 39.4112 39.8984 41.4666 37.3716 41.4666H33.9777C33.8111 40.9907 33.5498 40.5507 33.1835 40.1859C32.5416 39.5411 31.6859 39.186 30.7745 39.186H27.2763C26.7741 39.186 26.2921 39.2926 25.8507 39.4983C24.6466 40.0515 23.8689 41.2662 23.8689 42.5926C23.8689 43.504 24.224 44.3597 24.8673 45.0001C25.5107 45.6449 26.3665 46 27.2763 46H30.7745C32.2248 46 33.5033 45.0624 33.98 43.7187H37.3716C41.1408 43.7187 44.2066 40.6528 44.2066 36.8844V34.2397C45.8972 33.4793 47.0787 31.7827 47.0787 29.8121V24.3606C47.0787 22.3833 45.8881 20.6807 44.1878 19.9248ZM5.74428 22.6476V31.5267C5.74428 32.0169 5.34566 32.4163 4.85471 32.4163C3.41939 32.4163 2.25132 31.2482 2.25132 29.8129V24.3614C2.25132 22.9253 3.41939 21.758 4.85471 21.758C5.34566 21.758 5.74428 22.1574 5.74428 22.6476ZM31.9043 42.8343C31.7924 43.3643 31.3165 43.7494 30.7738 43.7494H27.2756C26.9678 43.7494 26.6788 43.6293 26.458 43.4086C26.2403 43.1917 26.1202 42.9019 26.1202 42.5941C26.1202 42.1445 26.3837 41.7338 26.7966 41.5439C26.9437 41.4748 27.1051 41.4396 27.2756 41.4396H30.7738C31.0815 41.4396 31.3706 41.5589 31.5905 41.7796C31.8082 41.9966 31.9283 42.2863 31.9283 42.5941C31.9291 42.6767 31.9201 42.7593 31.9043 42.8343ZM44.8267 29.8129C44.8267 31.2482 43.6586 32.4163 42.2233 32.4163C41.7331 32.4163 41.3337 32.0177 41.3337 31.5267V22.6476C41.3337 22.1574 41.7323 21.758 42.2233 21.758C43.6586 21.758 44.8267 22.9261 44.8267 24.3614V29.8129Z" fill="#ED1C27"/>
<path d="M36.3321 20.7483C36.3321 13.6941 30.5924 7.95435 23.5381 7.95435C16.4839 7.95435 10.7441 13.6941 10.7441 20.7483C10.7441 27.8026 16.4839 33.5423 23.5381 33.5423C30.5924 33.5423 36.3321 27.8026 36.3321 20.7483ZM23.5381 31.2903C17.7256 31.2903 12.9962 26.5609 12.9962 20.7483C12.9962 14.9358 17.7256 10.2064 23.5381 10.2064C29.3507 10.2064 34.0801 14.9358 34.0801 20.7483C34.0801 26.5609 29.3507 31.2903 23.5381 31.2903Z" fill="#ED1C27"/>
<path d="M24.3831 23.173H27.9781V24.3899C27.9781 24.9544 28.4376 25.4138 29.0021 25.4138C29.5666 25.4138 30.026 24.9544 30.026 24.3899V23.173H30.1221C30.6866 23.173 31.146 22.7136 31.146 22.1491C31.146 21.5845 30.6866 21.1251 30.1221 21.1251H30.026V19.3603C30.026 18.7957 29.5666 18.3363 29.0021 18.3363C28.4376 18.3363 27.9781 18.7957 27.9781 19.3603V21.1251H25.8477L27.2545 17.3296C27.3768 16.7786 27.0278 16.2306 26.4775 16.1083C26.2103 16.0482 25.9363 16.0955 25.7058 16.2419C25.4746 16.3883 25.3147 16.6172 25.2546 16.8852L23.3839 21.9261C23.3164 22.2301 23.3899 22.5447 23.5844 22.7879C23.7788 23.0326 24.07 23.173 24.3831 23.173Z" fill="#ED1C27"/>
<path d="M18.6398 21.0118C17.498 21.6348 15.9343 22.4876 15.9343 24.3899C15.9343 24.9544 16.3938 25.4138 16.9583 25.4138H21.4392C22.0037 25.4138 22.4631 24.9544 22.4631 24.3899C22.4631 23.8253 22.0037 23.3659 21.4392 23.3659H18.6766C18.9318 23.1903 19.2516 23.0116 19.621 22.8097C20.8206 22.1551 22.4631 21.2587 22.4631 19.1891C22.4631 17.4775 20.9985 16.0842 19.1983 16.0842C17.3982 16.0842 15.9336 17.4768 15.9336 19.1891C15.9336 19.7536 16.393 20.213 16.9575 20.213C17.5221 20.213 17.9815 19.7536 17.9815 19.1891C17.9815 18.6065 18.5272 18.1321 19.1983 18.1321C19.8695 18.1321 20.4152 18.6058 20.4152 19.1891C20.4152 19.9615 19.874 20.3376 18.6398 21.0118Z" fill="#ED1C27"/>
</svg>
