<svg width="47" height="47" viewBox="0 0 47 47" fill="none" xmlns="http://www.w3.org/2000/svg">
<path d="M11.7501 28.2617C11.7501 28.7687 12.1612 29.1797 12.6681 29.1797C13.175 29.1797 13.586 28.7687 13.586 28.2617V21.8359H14.7041C15.211 21.8359 15.6221 21.425 15.6221 20.918C15.6221 20.411 15.211 20 14.7041 20H10.6484C10.1415 20 9.73047 20.411 9.73047 20.918C9.73047 21.425 10.1415 21.8359 10.6484 21.8359H11.7501V28.2617Z" fill="#ED1C27"/>
<path d="M20.7461 20C18.2153 20 16.1562 22.059 16.1562 24.5898C16.1562 27.1207 18.2153 29.1797 20.7461 29.1797C23.2769 29.1797 25.3359 27.1207 25.3359 24.5898C25.3359 22.059 23.2769 20 20.7461 20ZM20.7461 27.3438C19.2276 27.3438 17.9922 26.1083 17.9922 24.5898C17.9922 23.0713 19.2276 21.8359 20.7461 21.8359C22.2646 21.8359 23.5 23.0713 23.5 24.5898C23.5 26.1083 22.2646 27.3438 20.7461 27.3438Z" fill="#ED1C27"/>
<path d="M31.3021 28.2504C31.2992 27.7452 30.8888 27.3376 30.3842 27.3376C30.3824 27.3376 30.3807 27.3376 30.379 27.3376C29.813 27.3408 29.2066 27.3431 28.7305 27.3437V20.918C28.7305 20.411 28.3194 20 27.8125 20C27.3056 20 26.8945 20.411 26.8945 20.918V28.2556C26.8945 28.7028 27.2169 29.085 27.6576 29.1604C27.723 29.1716 27.7732 29.1801 28.5905 29.1801C28.9836 29.1801 29.5542 29.1782 30.3891 29.1735C30.8961 29.1707 31.3048 28.7573 31.3021 28.2504Z" fill="#ED1C27"/>
<path d="M36.351 27.3376C36.3492 27.3376 36.3475 27.3376 36.3458 27.3376C35.7798 27.3408 35.1734 27.3431 34.6973 27.3437V20.918C34.6973 20.411 34.2862 20 33.7793 20C33.2724 20 32.8613 20.411 32.8613 20.918V28.2556C32.8613 28.7028 33.1837 29.085 33.6244 29.1604C33.6898 29.1716 33.74 29.1801 34.5573 29.1801C34.9504 29.1801 35.521 29.1782 36.3559 29.1735C36.8628 29.1707 37.2716 28.7574 37.2688 28.2504C37.266 27.7452 36.8556 27.3376 36.351 27.3376Z" fill="#ED1C27"/>
<path d="M15.0018 33.7695C15.5087 33.7695 15.9198 33.3586 15.9198 32.8516C15.9198 32.3446 15.5087 31.9336 15.0018 31.9336H12.0254C11.5185 31.9336 11.1074 32.3446 11.1074 32.8516V40.1953C11.1074 40.7023 11.5185 41.1133 12.0254 41.1133C12.5323 41.1133 12.9434 40.7023 12.9434 40.1953V37.3718H14.7654C15.2723 37.3718 15.6834 36.9608 15.6834 36.4539C15.6834 35.9469 15.2723 35.5359 14.7654 35.5359H12.9434V33.7695H15.0018Z" fill="#ED1C27"/>
<path d="M28.5495 33.7695C29.0564 33.7695 29.4674 33.3586 29.4674 32.8516C29.4674 32.3446 29.0564 31.9336 28.5495 31.9336H25.4551C24.9482 31.9336 24.5371 32.3446 24.5371 32.8516V40.1953C24.5371 40.7023 24.9482 41.1133 25.4551 41.1133H28.5495C29.0564 41.1133 29.4674 40.7023 29.4674 40.1953C29.4674 39.6883 29.0564 39.2773 28.5495 39.2773H26.373V37.4414H28.3213C28.8282 37.4414 29.2393 37.0304 29.2393 36.5234C29.2393 36.0164 28.8282 35.6055 28.3213 35.6055H26.373V33.7695H28.5495Z" fill="#ED1C27"/>
<path d="M34.9752 33.7695C35.4821 33.7695 35.8932 33.3586 35.8932 32.8516C35.8932 32.3446 35.4821 31.9336 34.9752 31.9336H31.8809C31.374 31.9336 30.9629 32.3446 30.9629 32.8516V40.1953C30.9629 40.7023 31.374 41.1133 31.8809 41.1133H34.9752C35.4821 41.1133 35.8932 40.7023 35.8932 40.1953C35.8932 39.6883 35.4821 39.2773 34.9752 39.2773H32.7988V37.4414H34.7471C35.254 37.4414 35.6651 37.0304 35.6651 36.5234C35.6651 36.0164 35.254 35.6055 34.7471 35.6055H32.7988V33.7695H34.9752Z" fill="#ED1C27"/>
<path d="M23.0408 34.7601C23.0408 33.2016 21.7243 31.9336 20.1062 31.9336H18.1547C18.1544 31.9336 18.1539 31.9336 18.1535 31.9336C18.1532 31.9336 18.1528 31.9336 18.1523 31.9336C17.6454 31.9336 17.2344 32.3446 17.2344 32.8516V40.1953C17.2344 40.7023 17.6454 41.1133 18.1523 41.1133C18.6592 41.1133 19.0703 40.7023 19.0703 40.1953V38.1166L21.4337 40.8018C21.7687 41.1824 22.3487 41.2193 22.7292 40.8844C23.1098 40.5495 23.1467 39.9694 22.8119 39.5889L20.9454 37.4683C22.1558 37.1196 23.0408 36.0377 23.0408 34.7601ZM20.1062 35.7507C19.8667 35.7507 19.4605 35.7523 19.0811 35.7542C19.0792 35.3843 19.0776 34.9912 19.0776 34.7601C19.0776 34.5636 19.0766 34.1573 19.0755 33.7695H20.1063C20.7018 33.7695 21.205 34.2232 21.205 34.7601C21.205 35.297 20.7018 35.7507 20.1062 35.7507Z" fill="#ED1C27"/>
<path d="M4.81508e-07 11.9336L2.8088e-07 14.2285C1.26003e-07 16.0001 1.4413 17.4414 3.21289 17.4414L10.6484 17.4414C12.42 17.4414 13.8613 16.0001 13.8613 14.2285L13.8613 11.9336L4.81508e-07 11.9336Z" fill="#ED1C27"/>
<path d="M33.1387 11.9336L33.1387 14.2285C33.1387 16.0001 34.58 17.4414 36.3516 17.4414L43.7871 17.4414C45.5587 17.4414 47 16.0001 47 14.2285L47 11.9336L33.1387 11.9336Z" fill="#ED1C27"/>
<path d="M13.8613 9.17968C13.8613 8.42043 14.479 7.80273 15.2382 7.80273L31.7617 7.80273C32.5209 7.80273 33.1386 8.42043 33.1386 9.17969L46.9102 9.17969C46.2333 4.00703 41.7976 -4.46952e-07 36.4433 -9.15042e-07L10.5566 -3.17813e-06C5.20225 -3.64622e-06 0.76653 4.00702 0.0897102 9.17968L13.8613 9.17968Z" fill="#ED1C27"/>
<path d="M13.3105 47L33.6895 47C39.5104 47 44.2461 42.2643 44.2461 36.4434L44.2461 20.1953L41.4922 20.1953L41.4922 36.4434C41.4922 40.7458 37.9919 44.2461 33.6895 44.2461L13.3105 44.2461C9.00812 44.2461 5.50781 40.7458 5.50781 36.4434L5.50781 20.1953L2.75391 20.1953L2.75391 36.4434C2.75391 42.2643 7.48962 47 13.3105 47Z" fill="#ED1C27"/>
</svg>
