<svg width="47" height="59" viewBox="0 0 47 59" fill="none" xmlns="http://www.w3.org/2000/svg">
<path d="M10.2234 49.4374H7.51932L7.87353 48.2477C8.24221 46.9205 6.28657 46.3563 5.87835 47.6542L5.34742 49.4374H2.34589L3.44258 44.5892C3.83897 42.8461 5.03984 41.3444 6.65743 40.5709L15.8873 36.1247L19.3532 45.5095C19.6481 46.3963 21.0116 46.4045 21.3062 45.509L24.7619 36.1242L33.5334 40.3422C34.0507 40.5907 34.6737 40.3732 34.9228 39.8554C35.1718 39.337 34.9533 38.715 34.4359 38.4659L24.9962 33.9271L24.2493 32.0845C27.7533 30.6092 30.5175 27.2281 31.6758 22.967H34.1056C35.4716 22.967 36.5835 21.8556 36.5835 20.4895V16.5073C36.5835 15.1924 35.5505 14.1239 34.255 14.045C34.2879 10.3361 32.8683 6.81458 30.2626 4.16275C29.2948 3.2053 27.832 4.63771 28.7767 5.62133C30.967 7.85174 32.1734 10.7978 32.1734 13.9155V14.0299H31.6824C29.8355 6.99385 23.3946 2.36902 16.8835 4.70324C13.1456 6.0521 10.1797 9.5488 8.97126 14.0299H8.48491C8.41986 7.46543 13.7575 2.07787 20.3294 2.08169C21.9328 2.08169 23.4772 2.39016 24.9205 2.99898C25.449 3.22208 26.0609 2.97458 26.2845 2.44454C27.1198 0.433123 21.6186 0.0195772 20.3295 0C12.6506 0.000114486 6.40334 6.24279 6.40334 13.9155V14.0445C5.10541 14.1212 4.07021 15.1909 4.07021 16.5073V20.4895C4.06381 21.9521 5.33867 23.0778 6.78349 22.967L7.36028 26.6697C7.67476 29.0834 10.4527 30.5128 12.6274 29.4898C13.7328 30.6172 15.0114 31.4983 16.4053 32.085L15.6629 33.9222L5.75641 38.6941C3.5727 39.739 1.94901 41.7697 1.41235 44.1288L0.0280241 50.2485C-0.128791 50.874 0.394755 51.5371 1.04341 51.5189L10.2234 51.519C11.5991 51.4854 11.5876 49.4651 10.2234 49.4374ZM32.2629 17.7758C32.2397 17.2102 32.1817 16.6572 32.1065 16.1114H34.1056C34.3282 16.1114 34.502 16.2852 34.502 16.5073V20.4895C34.502 20.7116 34.3282 20.8854 34.1056 20.8854H32.0943C32.2386 19.8823 32.3027 18.8091 32.2629 17.7758ZM20.3279 42.1412L18.629 37.5403C19.1714 37.7103 19.7401 37.8095 20.3253 37.8094C20.9108 37.8092 21.4797 37.7094 22.023 37.5379L20.3279 42.1412ZM20.3248 35.7278C19.2805 35.7282 18.3325 35.3018 17.6568 34.5422L18.4041 32.6944C19.0317 32.8177 19.6709 32.8987 20.3269 32.8987C20.9832 32.8987 21.6227 32.8176 22.2506 32.6942L22.9969 34.5351C22.321 35.2984 21.3722 35.7273 20.3248 35.7278ZM10.5471 16.9111C11.901 4.36121 26.0203 1.91759 29.6925 14.63C29.912 15.4676 30.0649 16.3271 30.1297 17.1931C29.3319 17.4236 28.4345 16.8845 28.2634 16.0677L27.6576 13.4714C27.2549 11.4811 24.9356 10.3446 23.1061 11.1977C21.3519 11.9742 19.2983 11.9727 17.5511 11.1992C16.6511 10.7947 15.626 10.8176 14.7423 11.2577C13.855 11.6988 13.2192 12.5043 12.9977 13.4653L12.3904 16.0672C12.278 16.547 11.9538 16.9322 11.501 17.1243C11.175 17.2434 10.3908 17.4348 10.5471 16.9111ZM6.54814 20.8854C6.32606 20.8854 6.15175 20.7116 6.15175 20.4895V16.5073C6.15175 16.2852 6.32606 16.1114 6.54814 16.1114H8.54726C8.31513 17.6704 8.33233 19.3346 8.55941 20.8854H6.54814ZM10.196 27.5072C9.7762 27.2551 9.49263 26.8333 9.41741 26.3495L8.89047 22.967C9.61587 24.6481 9.9923 26.1415 11.1719 27.7304C10.8344 27.7583 10.493 27.6856 10.196 27.5072ZM14.8443 28.7316L18.1531 27.5999C19.7678 29.6283 23.2452 28.382 23.1895 25.7589C23.0989 22.0611 17.7236 21.9487 17.4772 25.6309L13.2601 27.0733C11.6734 25.0343 10.6528 22.3148 10.4951 19.3021C12.2599 19.5411 14.0448 18.2912 14.417 16.5408L15.0254 13.9353C15.1736 13.2122 16.0347 12.7777 16.7039 13.1004C18.9928 14.1147 21.6537 14.1178 23.9569 13.0973C24.6272 12.7906 25.4822 13.2045 25.6288 13.9384L26.2367 16.5419C26.5019 17.6756 27.2693 18.5863 28.3406 19.0407C28.9285 19.2906 29.5501 19.3616 30.1592 19.2891C29.8872 28.0657 21.464 34.2497 14.8443 28.7316ZM19.5458 25.759C19.5508 24.7377 21.1031 24.7378 21.1079 25.7591C21.1029 26.7803 19.5506 26.7802 19.5458 25.759Z" fill="#ED1C27"/>
<path d="M27.9375 49.4373H14.387C13.0232 49.4592 13.0157 51.4953 14.387 51.5188H27.9375C29.3015 51.4971 29.3089 49.4605 27.9375 49.4373Z" fill="#ED1C27"/>
<path d="M44.9005 49.9161C44.9005 49.8849 44.9213 49.8536 44.9421 49.8329L46.6178 48.4694C47.0133 48.1468 47.1173 47.5847 46.8571 47.1476L45.2439 44.3375C44.9837 43.89 44.4425 43.6922 43.9637 43.8795L41.8718 44.6394C41.8718 44.6289 41.7989 44.5561 41.7989 44.5561L41.4555 42.4328C41.3722 41.9229 40.9455 41.5586 40.4251 41.5586H37.1883C36.6679 41.5586 36.2411 41.9229 36.1578 42.4328L35.7832 44.6185C35.7728 44.6185 35.6583 44.6394 35.6479 44.6497L33.6496 43.8795C33.1708 43.6922 32.6296 43.89 32.3799 44.3375L30.7562 47.1476C30.496 47.5847 30.6001 48.1468 30.9956 48.4694L32.6712 49.8329C32.7789 49.9339 32.7399 49.8952 32.6712 50.0098L30.9956 51.3732C30.6001 51.6958 30.496 52.2578 30.7562 52.695L32.3799 55.5051C32.6296 55.9527 33.1708 56.14 33.6496 55.963L35.7416 55.2033L35.8144 55.2866L36.1579 57.4097C36.2411 57.9094 36.6679 58.284 37.1883 58.284H40.4251C40.9455 58.284 41.3722 57.9094 41.4555 57.4097L41.8406 55.2241C41.8406 55.2241 41.9551 55.2033 41.9655 55.1929L43.9638 55.963C44.4425 56.14 44.9838 55.9527 45.244 55.5051L46.8572 52.695C47.1174 52.2578 47.0133 51.6958 46.6178 51.3732L44.9005 49.9161ZM43.6307 51.623L44.6194 52.4244L43.8805 53.6941L42.7044 53.2466C41.463 52.7455 39.9183 53.6211 39.7382 54.964L39.5404 56.2025H38.0729C37.9265 55.1892 37.8383 53.9291 36.7927 53.4028C35.8447 52.7649 34.6669 53.3184 33.7329 53.6942L32.9939 52.4244C33.7945 51.7959 34.8667 51.0697 34.7944 49.916C34.8761 48.7811 33.7781 48.0335 32.9938 47.4183L33.7329 46.138C34.6854 46.5312 35.8338 47.0779 36.8135 46.419C37.8261 45.9374 37.9351 44.6158 38.0729 43.6401L39.5404 43.6402L39.7382 44.8787C39.9205 46.2122 41.4527 47.0978 42.7044 46.5959L43.8805 46.138L44.6194 47.4182L43.6307 48.2196C42.5632 49.0339 42.5578 50.8046 43.6307 51.623Z" fill="#ED1C27"/>
<path d="M40.7605 48.9913C40.2269 48.9507 39.6973 49.4025 39.6679 49.9772C39.6445 50.4331 39.2644 50.7903 38.8029 50.7903C37.7386 50.7968 37.6359 49.1526 38.7135 49.0701C40.0777 48.9435 39.9216 46.9209 38.5589 46.9946C37.0192 47.1095 35.8574 48.3658 35.8574 49.9163C35.8574 51.546 37.1787 52.8719 38.8029 52.8719C40.3732 52.8719 41.6671 51.6472 41.7474 50.084C41.7769 49.5097 41.3347 49.0208 40.7605 48.9913Z" fill="#ED1C27"/>
</svg>
