<svg width="47" height="47" viewBox="0 0 47 47" fill="none" xmlns="http://www.w3.org/2000/svg">
<path d="M47 3.79032C47 1.70034 45.2997 0 43.2097 0H3.79032C1.70034 0 0 1.70034 0 3.79032V6.06452H1.51613V34.871H12.9561L7.26529 43.0914C6.97571 43.5091 6.82258 43.9996 6.82258 44.509C6.82258 45.8819 7.94073 47 9.31358 47H11.1686C12.0328 47 12.8227 46.5626 13.2805 45.8295L20.1296 34.871H20.4677V44.509C20.4677 45.8819 21.5859 47 22.9587 47H24.0413C25.4141 47 26.5323 45.8819 26.5323 44.509V34.871H26.8704L33.7195 45.8295C34.1773 46.5626 34.9672 47 35.8314 47H37.6864C39.0593 47 40.1774 45.8819 40.1774 44.509C40.1774 43.9996 40.0243 43.5091 39.7347 43.0914L34.0439 34.871H45.4839V6.06452H47V3.79032ZM11.9956 45.026C11.816 45.3125 11.5074 45.4839 11.1686 45.4839H9.31358C8.77611 45.4839 8.33871 45.0465 8.33871 44.509C8.33871 44.3096 8.3986 44.1178 8.51231 43.9549L14.8005 34.871H18.3421L11.9956 45.026ZM25.0161 44.509C25.0161 45.0465 24.5787 45.4839 24.0413 45.4839H22.9587C22.4213 45.4839 21.9839 45.0465 21.9839 44.509V34.871H25.0161V44.509ZM38.4877 43.9541C38.6014 44.1178 38.6613 44.3096 38.6613 44.509C38.6613 45.0465 38.2239 45.4839 37.6864 45.4839H35.8314C35.4933 45.4839 35.184 45.3125 35.0044 45.026L28.6579 34.871H32.1996L38.4877 43.9541ZM43.9677 33.3548H3.03226V6.06452H16.6774C16.6774 6.90066 17.3574 7.58065 18.1935 7.58065H28.8065C29.6426 7.58065 30.3226 6.90066 30.3226 6.06452H43.9677V33.3548ZM18.1935 6.06452V4.54839H28.8065L28.808 6.06452H18.1935ZM45.4839 4.54839H30.3226C30.3226 3.71224 29.6426 3.03226 28.8065 3.03226H18.1935C17.3574 3.03226 16.6774 3.71224 16.6774 4.54839H1.51613V3.79032C1.51613 2.53648 2.53648 1.51613 3.79032 1.51613H43.2097C44.4635 1.51613 45.4839 2.53648 45.4839 3.79032V4.54839Z" fill="#ED1C27"/>
<path d="M40.1779 16.6774H25.7746V12.1291C25.7746 10.8752 24.7543 9.85486 23.5004 9.85486H6.82302C5.56918 9.85486 4.54883 10.8752 4.54883 12.1291V22.742C4.54883 23.9958 5.56918 25.0161 6.82302 25.0161H21.2262V29.5645C21.2262 30.8184 22.2466 31.8387 23.5004 31.8387H40.1779C41.4317 31.8387 42.4521 30.8184 42.4521 29.5645V18.9516C42.4521 17.6978 41.4317 16.6774 40.1779 16.6774ZM6.82302 23.5C6.40457 23.5 6.06496 23.1604 6.06496 22.742V12.1291C6.06496 11.7106 6.40457 11.371 6.82302 11.371H23.5004C23.9189 11.371 24.2585 11.7106 24.2585 12.1291V16.6774H23.5004C22.2466 16.6774 21.2262 17.6978 21.2262 18.9516V19.3959L16.6779 14.8475L13.6456 17.8797L10.1691 14.4032H11.3714V12.8871H7.58109V16.6774H9.09722V15.4751L13.6456 20.0235L16.6779 16.9913L21.2262 21.5397V23.5H6.82302ZM40.9359 29.5645C40.9359 29.983 40.5963 30.3226 40.1779 30.3226H23.5004C23.082 30.3226 22.7424 29.983 22.7424 29.5645V18.9516C22.7424 18.5332 23.082 18.1936 23.5004 18.1936H40.1779C40.5963 18.1936 40.9359 18.5332 40.9359 18.9516V29.5645Z" fill="#ED1C27"/>
<path d="M35.6293 21.2258H36.8316L33.3551 24.7023L30.3229 21.6701L24.4805 27.5125L25.5524 28.5844L30.3229 23.8139L33.3551 26.8461L37.9035 22.2977V23.5H39.4196V19.7097H35.6293V21.2258Z" fill="#ED1C27"/>
<path d="M27.291 10.6129H28.8071V12.129H27.291V10.6129Z" fill="#ED1C27"/>
<path d="M30.3223 10.6129H42.4513V12.129H30.3223V10.6129Z" fill="#ED1C27"/>
<path d="M27.291 13.6451H42.4523V15.1613H27.291V13.6451Z" fill="#ED1C27"/>
<path d="M4.54883 26.5323H6.06496V28.0485H4.54883V26.5323Z" fill="#ED1C27"/>
<path d="M7.58008 26.5323H19.7091V28.0485H7.58008V26.5323Z" fill="#ED1C27"/>
<path d="M4.54883 29.5645H19.7101V31.0806H4.54883V29.5645Z" fill="#ED1C27"/>
</svg>
