<svg width="47" height="47" viewBox="0 0 47 47" fill="none" xmlns="http://www.w3.org/2000/svg">
<path d="M20.469 36.3867C20.8877 36.3867 21.2271 36.0473 21.2271 35.6286C21.2271 35.2099 20.8877 34.8705 20.469 34.8705C20.0503 34.8705 19.7109 35.2099 19.7109 35.6286C19.7109 36.0473 20.0503 36.3867 20.469 36.3867Z" fill="#ED1C27"/>
<path d="M23.5003 36.3867C23.919 36.3867 24.2584 36.0473 24.2584 35.6286C24.2584 35.2099 23.919 34.8705 23.5003 34.8705C23.0816 34.8705 22.7422 35.2099 22.7422 35.6286C22.7422 36.0473 23.0816 36.3867 23.5003 36.3867Z" fill="#ED1C27"/>
<path d="M26.5335 36.3867C26.9522 36.3867 27.2916 36.0473 27.2916 35.6286C27.2916 35.2099 26.9522 34.8705 26.5335 34.8705C26.1148 34.8705 25.7754 35.2099 25.7754 35.6286C25.7754 36.0473 26.1148 36.3867 26.5335 36.3867Z" fill="#ED1C27"/>
<path d="M43.9681 2.31245C42.0418 0.589297 39.4514 -0.230964 36.861 0.0563552C35.4259 0.216314 34.0787 0.736368 32.9098 1.51418H6.82287C5.56898 1.51418 4.54858 2.53457 4.54858 3.78847V9.09515H3.79049C1.70041 9.09515 0 10.7956 0 12.8856V35.6285C0 37.7186 1.70041 39.419 3.79049 39.419H16.6781V42.4514H15.92C13.83 42.4514 12.1296 44.1518 12.1296 46.2419V47H34.8725V46.2419C34.8725 44.1518 33.1721 42.4514 31.082 42.4514H30.3239V39.419H43.2115C45.3016 39.419 47.002 37.7186 47.002 35.6285V9.09515C47.002 6.50928 45.896 4.03788 43.9681 2.31245ZM37.0285 1.56269C37.3264 1.5301 37.6221 1.51342 37.9147 1.51342C39.7842 1.51342 41.5483 2.18282 42.9568 3.44278C44.564 4.88013 45.4858 6.94063 45.4858 9.09515C45.4858 11.3891 44.4594 13.5353 42.671 14.9825C41.665 15.796 41.057 16.9513 40.9577 18.1923H39.4734L39.9282 11.3694H40.9372C42.1911 11.3694 43.2115 10.349 43.2115 9.09515C43.2115 7.84125 42.1911 6.82086 40.9372 6.82086H40.8394C39.647 6.82086 38.6501 7.75331 38.5705 8.94428L38.5098 9.85324H37.2999L37.2392 8.94353C37.1596 7.75331 36.1628 6.82086 34.9703 6.82086H34.8725C33.6186 6.82086 32.5982 7.84125 32.5982 9.09515C32.5982 10.349 33.6186 11.3694 34.8725 11.3694H35.8815L36.3364 18.1923H34.8512C34.7489 16.9566 34.1295 15.7929 33.1069 14.9568C31.0047 13.2374 29.9994 10.5931 30.4171 7.88371C30.9251 4.59281 33.7058 1.93416 37.0285 1.56269ZM6.06478 31.8381V9.09515H28.8198C28.8198 11.8175 30.0017 14.3753 32.1479 16.1303C32.9151 16.7587 33.3563 17.6412 33.3563 18.5524V19.7085C33.3563 22.217 35.3963 24.2571 37.9049 24.2571C39.0708 24.2571 40.1314 23.8128 40.9372 23.0896V31.8381H6.06478ZM40.9372 19.7085C40.9372 21.3809 39.5772 22.7409 37.9049 22.7409C36.2325 22.7409 34.8725 21.3809 34.8725 19.7085H40.9372ZM37.4007 11.3694H38.4082L37.9534 18.1923H37.8556L37.4007 11.3694ZM40.029 9.85324L40.0829 9.04511C40.1094 8.64787 40.4422 8.33705 40.8394 8.33705H40.9372C41.355 8.33705 41.6953 8.67743 41.6953 9.09515C41.6953 9.51286 41.355 9.85324 40.9372 9.85324H40.029ZM35.7807 9.85324H34.8725C34.4548 9.85324 34.1144 9.51286 34.1144 9.09515C34.1144 8.67743 34.4548 8.33705 34.8725 8.33705H34.9703C35.3675 8.33705 35.7003 8.64787 35.7268 9.04511L35.7807 9.85324ZM6.82287 3.03037H31.1464C30.0078 4.29109 29.2148 5.86186 28.9343 7.57895H6.06478V3.78847C6.06478 3.37076 6.40516 3.03037 6.82287 3.03037ZM3.79049 10.6113H4.54858V31.8381H1.51619V12.8856C1.51619 11.6317 2.53659 10.6113 3.79049 10.6113ZM33.2266 45.4838H13.7754C14.0885 44.6014 14.9315 43.9676 15.92 43.9676H31.082C32.0705 43.9676 32.9135 44.6014 33.2266 45.4838ZM28.8077 42.4514H18.1943V39.419H28.8077V42.4514ZM43.2115 37.9028H3.79049C2.53659 37.9028 1.51619 36.8824 1.51619 35.6285V33.3543H45.4858V35.6285C45.4858 36.8824 44.4654 37.9028 43.2115 37.9028ZM45.4858 31.8381H42.4534V19.7085V18.9504V18.5486C42.4534 17.6336 42.8802 16.7633 43.6239 16.1614C44.3593 15.567 44.9779 14.8681 45.4858 14.1031V31.8381Z" fill="#ED1C27"/>
<path d="M10.6133 4.54663H12.1295V6.06283H10.6133V4.54663Z" fill="#ED1C27"/>
<path d="M13.6465 4.54663H15.1627V6.06283H13.6465V4.54663Z" fill="#ED1C27"/>
<path d="M7.58203 4.54663H9.09823V6.06283H7.58203V4.54663Z" fill="#ED1C27"/>
<path d="M7.58203 19.7085H19.7116V10.6113H7.58203V19.7085ZM9.09823 12.1275H18.1954V18.1923H9.09823V12.1275Z" fill="#ED1C27"/>
<path d="M7.58203 30.3219H19.7116V21.2247H7.58203V30.3219ZM9.09823 22.7409H18.1954V28.8057H9.09823V22.7409Z" fill="#ED1C27"/>
<path d="M12.8881 26.2176L11.9079 25.2374L10.8359 26.3093L12.8881 28.3615L16.4565 24.7931L15.3845 23.7212L12.8881 26.2176Z" fill="#ED1C27"/>
<path d="M12.8881 15.6042L11.9079 14.624L10.8359 15.6959L12.8881 17.7481L16.4565 14.1797L15.3845 13.1078L12.8881 15.6042Z" fill="#ED1C27"/>
<path d="M21.2266 10.6113H27.2913V12.1275H21.2266V10.6113Z" fill="#ED1C27"/>
<path d="M21.2266 13.6438H27.2913V15.16H21.2266V13.6438Z" fill="#ED1C27"/>
<path d="M21.2266 16.6761H27.2913V18.1923H21.2266V16.6761Z" fill="#ED1C27"/>
<path d="M33.3561 28.8057H31.8399V19.7085H27.2913V28.8057H25.7751V22.7409H21.2266V30.3219H37.9047V24.2571H33.3561V28.8057ZM24.259 28.8057H22.7428V24.2571H24.259V28.8057ZM28.8075 21.2247H30.3237V28.8057H28.8075V21.2247ZM34.8723 25.7733H36.3885V28.8057H34.8723V25.7733Z" fill="#ED1C27"/>
</svg>
