<svg width="47" height="47" viewBox="0 0 47 47" fill="none" xmlns="http://www.w3.org/2000/svg">
<path d="M19.5841 11.7319C20.0167 11.7319 20.3674 11.3812 20.3674 10.9486C20.3674 10.516 20.0167 10.1653 19.5841 10.1653C19.1515 10.1653 18.8008 10.516 18.8008 10.9486C18.8008 11.3812 19.1515 11.7319 19.5841 11.7319Z" fill="#ED1C27"/>
<path d="M7.04896 17.2152C7.48158 17.2152 7.83229 16.8645 7.83229 16.4319C7.83229 15.9993 7.48158 15.6486 7.04896 15.6486C6.61634 15.6486 6.26562 15.9993 6.26562 16.4319C6.26562 16.8645 6.61634 17.2152 7.04896 17.2152Z" fill="#ED1C27"/>
<path d="M47 17.2142C46.9955 17.0942 46.9655 16.9764 46.9122 16.8687C46.8589 16.7611 46.7833 16.6659 46.6906 16.5895L41.5167 12.666V7.03091C41.5167 6.82315 41.4341 6.62391 41.2872 6.47701C41.1403 6.3301 40.9411 6.24757 40.7333 6.24757H33.0625L25.8686 0.789698C25.1853 0.277102 24.3542 0 23.5 0C22.6458 0 21.8147 0.277102 21.1314 0.789698L13.9384 6.24757H7.05C6.84225 6.24757 6.643 6.3301 6.4961 6.47701C6.3492 6.62391 6.26667 6.82315 6.26667 7.03091V12.0697L0.310396 16.5905C0.217624 16.6667 0.142013 16.7617 0.0885196 16.8692C0.0350266 16.9767 0.00486059 17.0943 0 17.2142V45.4142C0.00520795 45.6203 0.0894092 45.8166 0.235199 45.9624C0.380989 46.1082 0.577221 46.1924 0.783333 46.1976H46.2167C46.4229 46.1926 46.6192 46.1085 46.7651 45.9626C46.9109 45.8168 46.995 45.6204 47 45.4142V17.2142ZM14.2038 31.3671L1.56667 43.5695V19.0747L14.2038 31.3671ZM21.8658 26.1452C22.3041 25.7211 22.8901 25.4839 23.5 25.4839C24.1099 25.4839 24.6959 25.7211 25.1342 26.1452L44.2769 44.6309H2.72306L21.8658 26.1452ZM32.8021 31.3661L45.4333 19.0747V43.5685L32.8021 31.3661ZM45.0182 17.2887L41.5167 20.6952V14.6322L45.0182 17.2887ZM22.0763 2.03716C22.4868 1.72899 22.9862 1.56238 23.4995 1.56238C24.0128 1.56238 24.5122 1.72899 24.9227 2.03716L30.4697 6.24757H16.5303L22.0763 2.03716ZM7.83333 7.81424H39.95V22.2197L31.6692 30.2773L26.2211 25.0162C25.4909 24.3109 24.5153 23.9166 23.5 23.9166C22.4847 23.9166 21.5091 24.3109 20.7789 25.0162L15.3308 30.2773L7.83333 22.9825V19.5642C7.83333 19.3565 7.7508 19.1572 7.6039 19.0103C7.457 18.8634 7.25775 18.7809 7.05 18.7809C6.84225 18.7809 6.643 18.8634 6.4961 19.0103C6.3492 19.1572 6.26667 19.3565 6.26667 19.5642V21.457L1.98281 17.2887L7.52392 13.0841C7.70383 12.924 7.81473 12.7005 7.83333 12.4604V7.81424Z" fill="#ED1C27"/>
<path d="M11.7521 11.7309H16.4521C16.6598 11.7309 16.8591 11.6483 17.006 11.5014C17.1529 11.3545 17.2354 11.1553 17.2354 10.9475C17.2354 10.7398 17.1529 10.5405 17.006 10.3936C16.8591 10.2467 16.6598 10.1642 16.4521 10.1642H11.7521C11.5443 10.1642 11.3451 10.2467 11.1982 10.3936C11.0513 10.5405 10.9688 10.7398 10.9688 10.9475C10.9688 11.1553 11.0513 11.3545 11.1982 11.5014C11.3451 11.6483 11.5443 11.7309 11.7521 11.7309Z" fill="#ED1C27"/>
<path d="M33.6826 23.4808H28.9826C28.7748 23.4808 28.5756 23.5634 28.4287 23.7103C28.2817 23.8572 28.1992 24.0564 28.1992 24.2642C28.1992 24.4719 28.2817 24.6712 28.4287 24.8181C28.5756 24.965 28.7748 25.0475 28.9826 25.0475H33.6826C33.8903 25.0475 34.0895 24.965 34.2365 24.8181C34.3834 24.6712 34.4659 24.4719 34.4659 24.2642C34.4659 24.0564 34.3834 23.8572 34.2365 23.7103C34.0895 23.5634 33.8903 23.4808 33.6826 23.4808Z" fill="#ED1C27"/>
<path d="M11.7521 17.2142H36.0354C36.2432 17.2142 36.4424 17.1317 36.5893 16.9848C36.7362 16.8379 36.8188 16.6387 36.8188 16.4309C36.8188 16.2232 36.7362 16.0239 36.5893 15.877C36.4424 15.7301 36.2432 15.6476 36.0354 15.6476H11.7521C11.5443 15.6476 11.3451 15.7301 11.1982 15.877C11.0513 16.0239 10.9688 16.2232 10.9688 16.4309C10.9688 16.6387 11.0513 16.8379 11.1982 16.9848C11.3451 17.1317 11.5443 17.2142 11.7521 17.2142Z" fill="#ED1C27"/>
<path d="M11.7521 21.131H36.0354C36.2432 21.131 36.4424 21.0485 36.5893 20.9016C36.7362 20.7547 36.8188 20.5554 36.8188 20.3477C36.8188 20.1399 36.7362 19.9407 36.5893 19.7938C36.4424 19.6469 36.2432 19.5643 36.0354 19.5643H11.7521C11.5443 19.5643 11.3451 19.6469 11.1982 19.7938C11.0513 19.9407 10.9688 20.1399 10.9688 20.3477C10.9688 20.5554 11.0513 20.7547 11.1982 20.9016C11.3451 21.0485 11.5443 21.131 11.7521 21.131Z" fill="#ED1C27"/>
<path d="M25.8517 42.2819C26.2843 42.2819 26.635 41.9312 26.635 41.4985C26.635 41.0659 26.2843 40.7152 25.8517 40.7152C25.4191 40.7152 25.0684 41.0659 25.0684 41.4985C25.0684 41.9312 25.4191 42.2819 25.8517 42.2819Z" fill="#ED1C27"/>
<path d="M23.501 29.7476C21.839 29.7476 20.2451 30.4078 19.0698 31.583C17.8946 32.7583 17.2344 34.3522 17.2344 36.0142C17.2344 37.6762 17.8946 39.2702 19.0698 40.4454C20.2451 41.6207 21.839 42.2809 23.501 42.2809C23.7088 42.2809 23.908 42.1984 24.0549 42.0515C24.2018 41.9046 24.2844 41.7053 24.2844 41.4976C24.2844 41.2898 24.2018 41.0906 24.0549 40.9437C23.908 40.7968 23.7088 40.7142 23.501 40.7142C22.5715 40.7142 21.6628 40.4386 20.8899 39.9221C20.117 39.4057 19.5145 38.6717 19.1588 37.8128C18.8031 36.954 18.71 36.009 18.8914 35.0973C19.0727 34.1856 19.5203 33.3481 20.1776 32.6908C20.8349 32.0335 21.6724 31.5859 22.5841 31.4045C23.4958 31.2232 24.4408 31.3163 25.2997 31.672C26.1585 32.0277 26.8925 32.6301 27.409 33.403C27.9254 34.176 28.201 35.0847 28.201 36.0142V36.7976C28.201 37.0053 28.1185 37.2046 27.9716 37.3515C27.8247 37.4984 27.6255 37.5809 27.4177 37.5809C26.9849 37.5809 26.5521 37.1892 26.5247 36.7927C26.5942 36.5389 26.631 36.2773 26.6344 36.0142C26.6415 35.2872 26.3981 34.5798 25.9451 34.0112C25.492 33.4425 24.857 33.0472 24.1467 32.8917C23.4365 32.7362 22.6943 32.83 22.0451 33.1573C21.3959 33.4846 20.8792 34.0255 20.5819 34.6891C20.2846 35.3526 20.2248 36.0982 20.4126 36.8006C20.6004 37.503 21.0244 38.1193 21.6132 38.5459C22.202 38.9725 22.9197 39.1833 23.6457 39.1429C24.3717 39.1025 25.0616 38.8133 25.5994 38.3241C25.8299 38.5786 26.1103 38.783 26.423 38.9246C26.7358 39.0663 27.0744 39.1422 27.4177 39.1476C28.041 39.1476 28.6387 38.9 29.0794 38.4593C29.5201 38.0185 29.7677 37.4208 29.7677 36.7976V36.0142C29.7659 34.3528 29.1051 32.7599 27.9302 31.585C26.7554 30.4102 25.1625 29.7494 23.501 29.7476ZM23.501 37.5809C23.1912 37.5809 22.8883 37.489 22.6306 37.3169C22.373 37.1447 22.1722 36.9 22.0536 36.6138C21.9351 36.3275 21.904 36.0125 21.9645 35.7086C22.0249 35.4047 22.1741 35.1255 22.3932 34.9064C22.6123 34.6873 22.8915 34.5381 23.1954 34.4777C23.4993 34.4172 23.8143 34.4482 24.1006 34.5668C24.3868 34.6854 24.6315 34.8862 24.8037 35.1438C24.9758 35.4015 25.0677 35.7044 25.0677 36.0142C25.0677 36.4297 24.9027 36.8282 24.6088 37.122C24.315 37.4158 23.9165 37.5809 23.501 37.5809Z" fill="#ED1C27"/>
</svg>
