<svg width="47" height="47" viewBox="0 0 47 47" fill="none" xmlns="http://www.w3.org/2000/svg">
<path d="M46.2656 39.6562H0.734375C0.539607 39.6562 0.352815 39.5789 0.215093 39.4412C0.0773714 39.3034 0 39.1166 0 38.9219V6.60938C0 6.41461 0.0773714 6.22782 0.215093 6.09009C0.352815 5.95237 0.539607 5.875 0.734375 5.875H19.0938V7.34375H1.46875V38.1875H45.5312V7.34375H43.3281V5.875H46.2656C46.4604 5.875 46.6472 5.95237 46.7849 6.09009C46.9226 6.22782 47 6.41461 47 6.60938V38.9219C47 39.1166 46.9226 39.3034 46.7849 39.4412C46.6472 39.5789 46.4604 39.6562 46.2656 39.6562Z" fill="#ED1C27"/>
<path d="M33.0471 44.0625H13.9533C13.8369 44.0625 13.7222 44.0349 13.6186 43.9819C13.515 43.9289 13.4255 43.852 13.3575 43.7577C13.2894 43.6633 13.2448 43.5541 13.2272 43.439C13.2096 43.324 13.2196 43.2065 13.2564 43.0961L14.7251 38.6898C14.7739 38.5435 14.8674 38.4163 14.9925 38.3261C15.1176 38.236 15.2679 38.1875 15.4221 38.1875H31.5783C31.7325 38.1875 31.8828 38.236 32.0079 38.3261C32.133 38.4163 32.2265 38.5435 32.2752 38.6898L33.744 43.0961C33.7807 43.2065 33.7908 43.324 33.7732 43.439C33.7556 43.5541 33.7109 43.6633 33.6429 43.7577C33.5748 43.852 33.4853 43.9289 33.3817 43.9819C33.2781 44.0349 33.1634 44.0625 33.0471 44.0625ZM14.9719 42.5938H32.0285L31.0488 39.6562H15.9515L14.9719 42.5938Z" fill="#ED1C27"/>
<path d="M35.9844 47H11.0156C10.8209 47 10.6341 46.9226 10.4963 46.7849C10.3586 46.6472 10.2812 46.4604 10.2812 46.2656C10.2824 45.2921 10.6696 44.3589 11.358 43.6705C12.0464 42.9821 12.9796 42.5949 13.9531 42.5938H33.0469C34.0204 42.5949 34.9536 42.9821 35.642 43.6705C36.3304 44.3589 36.7176 45.2921 36.7188 46.2656C36.7188 46.4604 36.6414 46.6472 36.5037 46.7849C36.3659 46.9226 36.1791 47 35.9844 47ZM11.8756 45.5312H35.1244C34.972 45.102 34.6905 44.7304 34.3185 44.4675C33.9466 44.2045 33.5024 44.0631 33.0469 44.0625H13.9531C13.4976 44.0631 13.0534 44.2045 12.6815 44.4675C12.3095 44.7304 12.028 45.102 11.8756 45.5312Z" fill="#ED1C27"/>
<path d="M0.734375 32.3125H46.2656V33.7812H0.734375V32.3125Z" fill="#ED1C27"/>
<path d="M42.5938 29.375H44.0625V30.8438H42.5938V29.375Z" fill="#ED1C27"/>
<path d="M42.5938 17.625H44.0625V27.9062H42.5938V17.625Z" fill="#ED1C27"/>
<path d="M28.274 36.7188H18.7271C18.24 36.7372 17.7543 36.6548 17.3004 36.4768C16.8466 36.2988 16.4344 36.029 16.0897 35.6843C15.745 35.3396 15.4752 34.9274 15.2972 34.4736C15.1192 34.0197 15.0368 33.534 15.0553 33.0469H16.524C16.5085 33.3403 16.5548 33.6337 16.66 33.908C16.7652 34.1824 16.927 34.4315 17.1347 34.6393C17.3425 34.847 17.5917 35.0088 17.866 35.114C18.1403 35.2192 18.4337 35.2656 18.7271 35.25H28.274C28.5674 35.2656 28.8608 35.2192 29.1352 35.114C29.4095 35.0088 29.6587 34.847 29.8664 34.6393C30.0742 34.4315 30.2359 34.1824 30.3411 33.908C30.4464 33.6337 30.4927 33.3403 30.4771 33.0469L31.9459 33.0505C31.9638 33.5374 31.8811 34.0227 31.7029 34.4761C31.5246 34.9295 31.2547 35.3413 30.9101 35.6856C30.5654 36.0299 30.1534 36.2994 29.6998 36.4771C29.2462 36.6549 28.7608 36.7372 28.274 36.7188Z" fill="#ED1C27"/>
<path d="M40.3906 27.9062H26.4375V26.4375H39.6562V17.625H41.125V27.1719C41.125 27.3666 41.0476 27.5534 40.9099 27.6912C40.7722 27.8289 40.5854 27.9062 40.3906 27.9062Z" fill="#ED1C27"/>
<path d="M37.4531 27.9062H34.5156C34.3209 27.9062 34.1341 27.8289 33.9963 27.6912C33.8586 27.5534 33.7812 27.3666 33.7812 27.1719V19.0938C33.7812 18.899 33.8586 18.7122 33.9963 18.5745C34.1341 18.4367 34.3209 18.3594 34.5156 18.3594H37.4531C37.6479 18.3594 37.8347 18.4367 37.9724 18.5745C38.1101 18.7122 38.1875 18.899 38.1875 19.0938V27.1719C38.1875 27.3666 38.1101 27.5534 37.9724 27.6912C37.8347 27.8289 37.6479 27.9062 37.4531 27.9062ZM35.25 26.4375H36.7188V19.8281H35.25V26.4375Z" fill="#ED1C27"/>
<path d="M31.5781 27.9062H28.6406C28.4459 27.9062 28.2591 27.8289 28.1213 27.6912C27.9836 27.5534 27.9062 27.3666 27.9062 27.1719V21.2969C27.9062 21.1021 27.9836 20.9153 28.1213 20.7776C28.2591 20.6399 28.4459 20.5625 28.6406 20.5625H31.5781C31.7729 20.5625 31.9597 20.6399 32.0974 20.7776C32.2351 20.9153 32.3125 21.1021 32.3125 21.2969V27.1719C32.3125 27.3666 32.2351 27.5534 32.0974 27.6912C31.9597 27.8289 31.7729 27.9062 31.5781 27.9062ZM29.375 26.4375H30.8438V22.0312H29.375V26.4375Z" fill="#ED1C27"/>
<path d="M39.6562 29.375H41.125V30.8438H39.6562V29.375Z" fill="#ED1C27"/>
<path d="M21.2969 29.375H38.1875V30.8438H21.2969V29.375Z" fill="#ED1C27"/>
<path d="M20.2106 25.1604C19.7748 25.1573 19.3497 25.0246 18.9895 24.7793C18.6292 24.534 18.35 24.1871 18.1874 23.7827L13.7855 12.9727C13.5662 12.441 13.5636 11.8445 13.7782 11.3109C13.8833 11.0463 14.041 10.8057 14.2417 10.6038C14.4424 10.4018 14.6819 10.2427 14.9459 10.1359L16.2523 9.6049C16.4324 9.5322 16.634 9.53381 16.8129 9.60937C16.9918 9.68493 17.1335 9.82829 17.207 10.0081L22.7089 23.5206C22.7816 23.7007 22.78 23.9022 22.7045 24.0812C22.6289 24.2601 22.4856 24.4018 22.3058 24.4753L21.003 25.0055C20.7514 25.108 20.4823 25.1606 20.2106 25.1604ZM16.1253 11.2359L15.4988 11.4908C15.4174 11.5244 15.3436 11.5743 15.2821 11.6374C15.2206 11.7006 15.1727 11.7756 15.1412 11.858C15.0698 12.0385 15.0716 12.2398 15.1463 12.419L19.5475 23.229C19.6121 23.4033 19.7431 23.5449 19.9118 23.6229C20.0804 23.7009 20.2732 23.709 20.4478 23.6454L21.0742 23.3906L16.1253 11.2359Z" fill="#ED1C27"/>
<path d="M10.5809 24.4614C10.4348 24.4616 10.2919 24.4181 10.1707 24.3366C10.0494 24.2551 9.9552 24.1393 9.90012 24.0039L7.697 18.5989C7.64053 18.4605 7.62764 18.3082 7.66005 18.1623C7.69246 18.0163 7.76863 17.8838 7.87839 17.7823L13.9656 12.1562L14.9622 13.235L9.25387 18.5159L11.0707 22.9795L18.8499 22.7716L18.8896 24.2404L10.6022 24.4607L10.5809 24.4614Z" fill="#ED1C27"/>
<path d="M5.48963 26.4235C5.19225 26.4226 4.89833 26.3596 4.62674 26.2384C4.09935 26.0064 3.68388 25.5769 3.46936 25.0421L2.3678 22.3389C2.14846 21.8075 2.14556 21.2113 2.35972 20.6778C2.46484 20.413 2.62259 20.1724 2.82342 19.9704C3.02425 19.7685 3.26399 19.6094 3.52811 19.5028L8.10107 17.6418L8.65478 19.0026L4.08257 20.8621C4.00113 20.8959 3.92739 20.9459 3.86579 21.009C3.8042 21.0721 3.75603 21.147 3.72419 21.2293C3.65281 21.4096 3.65465 21.6106 3.72933 21.7896L4.83089 24.4928C4.90239 24.6731 5.04154 24.8184 5.21864 24.8975C5.29907 24.9341 5.38611 24.9541 5.47447 24.9561C5.56283 24.9581 5.65069 24.9422 5.73271 24.9092L10.3064 23.0483L10.8601 24.4091L6.28349 26.2671C6.03149 26.3701 5.76188 26.4232 5.48963 26.4235Z" fill="#ED1C27"/>
<path d="M8.31016 30.1093C8.16404 30.1094 8.02122 30.066 7.89995 29.9845C7.77868 29.903 7.68448 29.7871 7.62939 29.6518L5.97852 25.5981L7.33931 25.0421L8.71333 28.4203L9.96617 27.9062L8.59142 24.5347L9.95222 23.981L11.6024 28.0347C11.6751 28.2148 11.6735 28.4164 11.5979 28.5953C11.5223 28.7742 11.379 28.9159 11.1992 28.9894L8.58555 30.052C8.49841 30.0891 8.40483 30.1085 8.31016 30.1093Z" fill="#ED1C27"/>
<path d="M11.4434 14.7104L12.8034 14.1567L16.6537 23.6139L15.2936 24.1676L11.4434 14.7104Z" fill="#ED1C27"/>
<path d="M25.7031 19.8281C25.5084 19.8281 25.3216 19.7508 25.1838 19.613C25.0461 19.4753 24.9688 19.2885 24.9688 19.0938V16.1562H22.7656C22.1813 16.1562 21.6209 15.9241 21.2078 15.511C20.7946 15.0978 20.5625 14.5374 20.5625 13.9531V2.20312C20.5625 1.61882 20.7946 1.05845 21.2078 0.64528C21.6209 0.232114 22.1813 0 22.7656 0L41.8594 0C42.4437 0 43.0041 0.232114 43.4172 0.64528C43.8304 1.05845 44.0625 1.61882 44.0625 2.20312V13.9531C44.0625 14.5374 43.8304 15.0978 43.4172 15.511C43.0041 15.9241 42.4437 16.1562 41.8594 16.1562H29.679L26.2223 19.613C26.0846 19.7507 25.8979 19.8281 25.7031 19.8281ZM22.7656 1.46875C22.5709 1.46875 22.3841 1.54612 22.2463 1.68384C22.1086 1.82157 22.0312 2.00836 22.0312 2.20312V13.9531C22.0312 14.1479 22.1086 14.3347 22.2463 14.4724C22.3841 14.6101 22.5709 14.6875 22.7656 14.6875H25.7031C25.8979 14.6875 26.0847 14.7649 26.2224 14.9026C26.3601 15.0403 26.4375 15.2271 26.4375 15.4219V17.321L28.8558 14.9027C28.9935 14.7649 29.1802 14.6875 29.375 14.6875H41.8594C42.0541 14.6875 42.2409 14.6101 42.3787 14.4724C42.5164 14.3347 42.5938 14.1479 42.5938 13.9531V2.20312C42.5938 2.00836 42.5164 1.82157 42.3787 1.68384C42.2409 1.54612 42.0541 1.46875 41.8594 1.46875H22.7656Z" fill="#ED1C27"/>
<path d="M26.4375 10.2813C26.0018 10.2813 25.5758 10.152 25.2135 9.90996C24.8512 9.66787 24.5688 9.32379 24.4021 8.92123C24.2353 8.51866 24.1917 8.07568 24.2767 7.64832C24.3617 7.22095 24.5715 6.82839 24.8797 6.52028C25.1878 6.21217 25.5803 6.00234 26.0077 5.91733C26.4351 5.83233 26.878 5.87595 27.2806 6.0427C27.6832 6.20945 28.0272 6.49183 28.2693 6.85414C28.5114 7.21644 28.6406 7.64239 28.6406 8.07813C28.6406 8.66243 28.4085 9.2228 27.9953 9.63597C27.5822 10.0491 27.0218 10.2813 26.4375 10.2813ZM26.4375 7.34375C26.2923 7.34375 26.1503 7.38682 26.0295 7.46752C25.9087 7.54821 25.8146 7.6629 25.759 7.79709C25.7034 7.93128 25.6889 8.07894 25.7172 8.2214C25.7456 8.36385 25.8155 8.4947 25.9182 8.59741C26.0209 8.70011 26.1518 8.77005 26.2942 8.79839C26.4367 8.82673 26.5843 8.81218 26.7185 8.7566C26.8527 8.70102 26.9674 8.60689 27.0481 8.48612C27.1288 8.36536 27.1719 8.22337 27.1719 8.07813C27.1719 7.88336 27.0945 7.69657 26.9568 7.55884C26.8191 7.42112 26.6323 7.34375 26.4375 7.34375Z" fill="#ED1C27"/>
<path d="M32.3125 10.2813C31.8768 10.2813 31.4508 10.152 31.0885 9.90996C30.7262 9.66787 30.4438 9.32379 30.2771 8.92123C30.1103 8.51866 30.0667 8.07568 30.1517 7.64832C30.2367 7.22095 30.4465 6.82839 30.7547 6.52028C31.0628 6.21217 31.4553 6.00234 31.8827 5.91733C32.3101 5.83233 32.753 5.87595 33.1556 6.0427C33.5582 6.20945 33.9022 6.49183 34.1443 6.85414C34.3864 7.21644 34.5156 7.64239 34.5156 8.07813C34.5156 8.66243 34.2835 9.2228 33.8703 9.63597C33.4572 10.0491 32.8968 10.2813 32.3125 10.2813ZM32.3125 7.34375C32.1673 7.34375 32.0253 7.38682 31.9045 7.46752C31.7837 7.54821 31.6896 7.6629 31.634 7.79709C31.5784 7.93128 31.5639 8.07894 31.5922 8.2214C31.6206 8.36385 31.6905 8.4947 31.7932 8.59741C31.8959 8.70011 32.0268 8.77005 32.1692 8.79839C32.3117 8.82673 32.4593 8.81218 32.5935 8.7566C32.7277 8.70102 32.8424 8.60689 32.9231 8.48612C33.0038 8.36536 33.0469 8.22337 33.0469 8.07813C33.0469 7.88336 32.9695 7.69657 32.8318 7.55884C32.6941 7.42112 32.5073 7.34375 32.3125 7.34375Z" fill="#ED1C27"/>
<path d="M38.1875 10.2813C37.7518 10.2813 37.3258 10.152 36.9635 9.90996C36.6012 9.66787 36.3188 9.32379 36.1521 8.92123C35.9853 8.51866 35.9417 8.07568 36.0267 7.64832C36.1117 7.22095 36.3215 6.82839 36.6297 6.52028C36.9378 6.21217 37.3303 6.00234 37.7577 5.91733C38.1851 5.83233 38.628 5.87595 39.0306 6.0427C39.4332 6.20945 39.7772 6.49183 40.0193 6.85414C40.2614 7.21644 40.3906 7.64239 40.3906 8.07813C40.3906 8.66243 40.1585 9.2228 39.7453 9.63597C39.3322 10.0491 38.7718 10.2813 38.1875 10.2813ZM38.1875 7.34375C38.0423 7.34375 37.9003 7.38682 37.7795 7.46752C37.6587 7.54821 37.5646 7.6629 37.509 7.79709C37.4534 7.93128 37.4389 8.07894 37.4672 8.2214C37.4956 8.36385 37.5655 8.4947 37.6682 8.59741C37.7709 8.70011 37.9018 8.77005 38.0442 8.79839C38.1867 8.82673 38.3343 8.81218 38.4685 8.7566C38.6027 8.70102 38.7174 8.60689 38.7981 8.48612C38.8788 8.36536 38.9219 8.22337 38.9219 8.07813C38.9219 7.88336 38.8445 7.69657 38.7068 7.55884C38.5691 7.42112 38.3823 7.34375 38.1875 7.34375Z" fill="#ED1C27"/>
<path d="M4.40625 12.4844H2.9375V9.54688C2.9375 9.35211 3.01487 9.16532 3.15259 9.02759C3.29032 8.88987 3.47711 8.8125 3.67188 8.8125H6.60938V10.2812H4.40625V12.4844Z" fill="#ED1C27"/>
<path d="M2.9375 13.9531H4.40625V15.4219H2.9375V13.9531Z" fill="#ED1C27"/>
</svg>
