<svg width="47" height="47" viewBox="0 0 47 47" fill="none" xmlns="http://www.w3.org/2000/svg">
<path d="M8.1235 4.46129C8.1235 4.02666 7.99462 3.6018 7.75315 3.24043C7.51169 2.87905 7.16849 2.59739 6.76695 2.43107C6.36541 2.26475 5.92357 2.22123 5.4973 2.30602C5.07103 2.39081 4.67947 2.6001 4.37215 2.90743C4.06482 3.21475 3.85553 3.60631 3.77074 4.03258C3.68595 4.45885 3.72947 4.90069 3.89579 5.30223C4.06211 5.70377 4.34377 6.04697 4.70515 6.28843C5.06652 6.5299 5.49138 6.65878 5.92601 6.65878C6.50862 6.65814 7.06719 6.42641 7.47916 6.01444C7.89113 5.60247 8.12286 5.0439 8.1235 4.46129ZM5.19351 4.46129C5.19351 4.31641 5.23647 4.17479 5.31696 4.05433C5.39745 3.93387 5.51185 3.83999 5.64569 3.78455C5.77954 3.72911 5.92682 3.7146 6.06891 3.74286C6.211 3.77113 6.34152 3.84089 6.44396 3.94333C6.5464 4.04577 6.61617 4.17629 6.64443 4.31838C6.67269 4.46047 6.65819 4.60775 6.60275 4.7416C6.54731 4.87545 6.45342 4.98985 6.33296 5.07034C6.2125 5.15082 6.07088 5.19378 5.92601 5.19378C5.73177 5.19367 5.54553 5.11646 5.40818 4.97911C5.27084 4.84177 5.19363 4.65552 5.19351 4.46129Z" fill="#ED1C27"/>
<path d="M22.7736 8.01747V8.12375C22.7736 8.31802 22.8508 8.50433 22.9882 8.6417C23.1255 8.77907 23.3118 8.85625 23.5061 8.85625C23.7004 8.85625 23.8867 8.77907 24.0241 8.6417C24.1614 8.50433 24.2386 8.31802 24.2386 8.12375V8.01747C24.6359 7.89404 24.9872 7.65447 25.2471 7.3296C25.507 7.00474 25.6637 6.60949 25.697 6.19477C25.7302 5.78005 25.6385 5.36488 25.4337 5.00275C25.2288 4.64063 24.9202 4.34814 24.5477 4.16299L23.1199 3.4491C22.9937 3.38616 22.8925 3.28244 22.8326 3.15475C22.7728 3.02707 22.7579 2.88292 22.7903 2.74568C22.8226 2.60844 22.9004 2.48617 23.011 2.39869C23.1216 2.31122 23.2585 2.26368 23.3995 2.26378H23.6127C23.7786 2.26408 23.9376 2.33013 24.0549 2.44744C24.1723 2.56476 24.2383 2.72378 24.2386 2.88969V2.99627C24.2386 3.19054 24.3158 3.37686 24.4532 3.51423C24.5905 3.6516 24.7768 3.72877 24.9711 3.72877C25.1654 3.72877 25.3517 3.6516 25.4891 3.51423C25.6264 3.37686 25.7036 3.19054 25.7036 2.99627V2.88969C25.7021 2.44612 25.5593 2.01457 25.2958 1.65769C25.0324 1.30082 24.6621 1.03718 24.2386 0.905066V0.798781C24.2386 0.604511 24.1614 0.418197 24.0241 0.280828C23.8867 0.143458 23.7004 0.0662842 23.5061 0.0662842C23.3118 0.0662842 23.1255 0.143458 22.9882 0.280828C22.8508 0.418197 22.7736 0.604511 22.7736 0.798781V0.905066C22.3763 1.02849 22.025 1.26807 21.7651 1.59293C21.5052 1.91779 21.3485 2.31305 21.3153 2.72776C21.282 3.14248 21.3737 3.55765 21.5786 3.91978C21.7834 4.28191 22.092 4.57439 22.4646 4.75954L23.8924 5.47343C24.0185 5.53637 24.1198 5.6401 24.1796 5.76778C24.2394 5.89546 24.2543 6.03962 24.222 6.17685C24.1896 6.31409 24.1118 6.43636 24.0012 6.52384C23.8906 6.61131 23.7537 6.65886 23.6127 6.65876H23.3995C23.2336 6.65845 23.0746 6.5924 22.9573 6.47509C22.84 6.35777 22.7739 6.19875 22.7736 6.03284V5.92626C22.7736 5.73199 22.6964 5.54568 22.5591 5.40831C22.4217 5.27094 22.2354 5.19376 22.0411 5.19376C21.8469 5.19376 21.6605 5.27094 21.5232 5.40831C21.3858 5.54568 21.3086 5.73199 21.3086 5.92626V6.03284C21.3101 6.47641 21.453 6.90796 21.7164 7.26484C21.9799 7.62172 22.3502 7.88535 22.7736 8.01747Z" fill="#ED1C27"/>
<path d="M24.2386 38.9949V38.8886C24.2386 38.6944 24.1614 38.508 24.0241 38.3707C23.8867 38.2333 23.7004 38.1561 23.5061 38.1561C23.3118 38.1561 23.1255 38.2333 22.9882 38.3707C22.8508 38.508 22.7736 38.6944 22.7736 38.8886V38.9949C22.3763 39.1183 22.025 39.3579 21.7651 39.6828C21.5052 40.0076 21.3485 40.4029 21.3153 40.8176C21.282 41.2323 21.3737 41.6475 21.5786 42.0096C21.7834 42.3717 22.092 42.6642 22.4646 42.8494L23.8924 43.5633C24.0185 43.6262 24.1198 43.7299 24.1796 43.8576C24.2394 43.9853 24.2543 44.1295 24.222 44.2667C24.1896 44.4039 24.1118 44.5262 24.0012 44.6137C23.8906 44.7012 23.7537 44.7487 23.6127 44.7486H23.3995C23.2336 44.7483 23.0746 44.6822 22.9573 44.5649C22.84 44.4476 22.7739 44.2886 22.7736 44.1227V44.0161C22.7736 43.8218 22.6964 43.6355 22.5591 43.4981C22.4217 43.3608 22.2354 43.2836 22.0411 43.2836C21.8469 43.2836 21.6605 43.3608 21.5232 43.4981C21.3858 43.6355 21.3086 43.8218 21.3086 44.0161V44.1227C21.3101 44.5663 21.453 44.9978 21.7164 45.3547C21.9799 45.7116 22.3502 45.9752 22.7736 46.1073V46.2136C22.7736 46.4079 22.8508 46.5942 22.9882 46.7315C23.1255 46.8689 23.3118 46.9461 23.5061 46.9461C23.7004 46.9461 23.8867 46.8689 24.0241 46.7315C24.1614 46.5942 24.2386 46.4079 24.2386 46.2136V46.1073C24.6359 45.9839 24.9872 45.7443 25.2471 45.4194C25.507 45.0946 25.6637 44.6993 25.697 44.2846C25.7302 43.8699 25.6385 43.4547 25.4337 43.0926C25.2288 42.7305 24.9202 42.438 24.5477 42.2528L23.1199 41.5389C22.9937 41.476 22.8925 41.3723 22.8326 41.2446C22.7728 41.1169 22.7579 40.9728 22.7903 40.8355C22.8226 40.6983 22.9004 40.576 23.011 40.4885C23.1216 40.4011 23.2585 40.3535 23.3995 40.3536H23.6127C23.7786 40.3539 23.9376 40.42 24.0549 40.5373C24.1723 40.6546 24.2383 40.8136 24.2386 40.9795V41.0861C24.2386 41.2804 24.3158 41.4667 24.4532 41.6041C24.5905 41.7414 24.7768 41.8186 24.9711 41.8186C25.1654 41.8186 25.3517 41.7414 25.4891 41.6041C25.6264 41.4667 25.7036 41.2804 25.7036 41.0861V40.9795C25.7021 40.536 25.5593 40.1044 25.2958 39.7475C25.0324 39.3907 24.6621 39.127 24.2386 38.9949Z" fill="#ED1C27"/>
<path d="M43.2836 22.7737C43.4779 22.7737 43.6642 22.6965 43.8016 22.5591C43.9389 22.4218 44.0161 22.2355 44.0161 22.0412V21.9346C44.0146 21.491 43.8717 21.0595 43.6083 20.7026C43.3449 20.3457 42.9746 20.0821 42.5511 19.95V19.8437C42.5511 19.6494 42.4739 19.4631 42.3366 19.3257C42.1992 19.1884 42.0129 19.1112 41.8186 19.1112C41.6243 19.1112 41.438 19.1884 41.3007 19.3257C41.1633 19.4631 41.0861 19.6494 41.0861 19.8437V19.95C40.6888 20.0734 40.3375 20.313 40.0776 20.6378C39.8177 20.9627 39.661 21.358 39.6278 21.7727C39.5945 22.1874 39.6862 22.6026 39.8911 22.9647C40.0959 23.3268 40.4045 23.6193 40.7771 23.8045L42.2049 24.5184C42.331 24.5813 42.4323 24.685 42.4921 24.8127C42.5519 24.9404 42.5668 25.0845 42.5345 25.2218C42.5021 25.359 42.4243 25.4813 42.3137 25.5688C42.2031 25.6562 42.0662 25.7038 41.9252 25.7037H41.712C41.5461 25.7034 41.3871 25.6373 41.2698 25.52C41.1525 25.4027 41.0864 25.2437 41.0861 25.0778V24.9712C41.0861 24.7769 41.0089 24.5906 40.8716 24.4532C40.7342 24.3159 40.5479 24.2387 40.3536 24.2387C40.1594 24.2387 39.973 24.3159 39.8357 24.4532C39.6983 24.5906 39.6211 24.7769 39.6211 24.9712V25.0778C39.6226 25.5213 39.7655 25.9529 40.0289 26.3098C40.2924 26.6666 40.6627 26.9303 41.0861 27.0624V27.1687C41.0861 27.3629 41.1633 27.5493 41.3007 27.6866C41.438 27.824 41.6243 27.9012 41.8186 27.9012C42.0129 27.9012 42.1992 27.824 42.3366 27.6866C42.4739 27.5493 42.5511 27.3629 42.5511 27.1687V27.0624C42.9484 26.939 43.2997 26.6994 43.5596 26.3745C43.8195 26.0497 43.9762 25.6544 44.0095 25.2397C44.0427 24.825 43.951 24.4098 43.7462 24.0477C43.5413 23.6855 43.2327 23.3931 42.8602 23.2079L41.4324 22.494C41.3062 22.4311 41.205 22.3274 41.1451 22.1997C41.0853 22.072 41.0704 21.9278 41.1028 21.7906C41.1351 21.6534 41.2129 21.5311 41.3235 21.4436C41.4341 21.3561 41.571 21.3086 41.712 21.3087H41.9252C42.0911 21.309 42.2501 21.3751 42.3674 21.4924C42.4848 21.6097 42.5508 21.7687 42.5511 21.9346V22.0412C42.5511 22.2355 42.6283 22.4218 42.7657 22.5591C42.903 22.6965 43.0893 22.7737 43.2836 22.7737Z" fill="#ED1C27"/>
<path d="M3.72862 24.2387C3.53435 24.2387 3.34804 24.3159 3.21067 24.4532C3.0733 24.5906 2.99613 24.7769 2.99613 24.9712V25.0778C2.99764 25.5213 3.14048 25.9529 3.40392 26.3098C3.66736 26.6666 4.03767 26.9303 4.46112 27.0624V27.1687C4.46112 27.3629 4.53829 27.5493 4.67566 27.6866C4.81303 27.824 4.99935 27.9012 5.19362 27.9012C5.38789 27.9012 5.5742 27.824 5.71157 27.6866C5.84894 27.5493 5.92611 27.3629 5.92611 27.1687V27.0624C6.32343 26.939 6.67469 26.6994 6.93461 26.3745C7.19454 26.0497 7.35122 25.6544 7.38447 25.2397C7.41773 24.825 7.32602 24.4098 7.12117 24.0477C6.91633 23.6855 6.60773 23.3931 6.23515 23.2079L4.80737 22.494C4.68119 22.4311 4.57998 22.3274 4.52015 22.1997C4.46032 22.072 4.44538 21.9278 4.47776 21.7906C4.51014 21.6534 4.58794 21.5311 4.69853 21.4436C4.80913 21.3561 4.94603 21.3086 5.08704 21.3087H5.30019C5.4661 21.309 5.62513 21.3751 5.74244 21.4924C5.85976 21.6097 5.9258 21.7687 5.92611 21.9346V22.0412C5.92611 22.2355 6.00329 22.4218 6.14066 22.5591C6.27803 22.6965 6.46434 22.7737 6.65861 22.7737C6.85288 22.7737 7.03919 22.6965 7.17656 22.5591C7.31393 22.4218 7.39111 22.2355 7.39111 22.0412V21.9346C7.38959 21.491 7.24675 21.0595 6.98331 20.7026C6.71988 20.3457 6.34956 20.0821 5.92611 19.95V19.8437C5.92611 19.6494 5.84894 19.4631 5.71157 19.3257C5.5742 19.1884 5.38789 19.1112 5.19362 19.1112C4.99935 19.1112 4.81303 19.1884 4.67566 19.3257C4.53829 19.4631 4.46112 19.6494 4.46112 19.8437V19.95C4.0638 20.0734 3.71254 20.313 3.45262 20.6378C3.19269 20.9627 3.03601 21.358 3.00276 21.7727C2.96951 22.1874 3.06121 22.6026 3.26606 22.9647C3.4709 23.3268 3.7795 23.6193 4.15208 23.8045L5.57986 24.5184C5.70604 24.5813 5.80725 24.685 5.86708 24.8127C5.92691 24.9404 5.94185 25.0845 5.90947 25.2218C5.87709 25.359 5.79929 25.4813 5.6887 25.5688C5.5781 25.6562 5.4412 25.7038 5.30019 25.7037H5.08704C4.92113 25.7034 4.7621 25.6373 4.64479 25.52C4.52747 25.4027 4.46143 25.2437 4.46112 25.0778V24.9712C4.46112 24.7769 4.38395 24.5906 4.24658 24.4532C4.10921 24.3159 3.92289 24.2387 3.72862 24.2387Z" fill="#ED1C27"/>
<path d="M24.7944 14.9837C24.741 14.8603 24.6545 14.7539 24.5446 14.6763C24.4347 14.5987 24.3056 14.5529 24.1714 14.5438C24.0373 14.5371 23.9039 14.5663 23.7849 14.6284C23.666 14.6906 23.5658 14.7834 23.4947 14.8972L21.4771 18.2463L16.8274 20.2586C16.0021 20.6053 15.3134 21.2132 14.867 21.9891C14.4206 22.765 14.2411 23.666 14.3562 24.5537C14.4712 25.4415 14.8745 26.2669 15.5039 26.9034C16.1334 27.5398 16.9544 27.9521 17.8408 28.077L20.6656 32.1549C20.7621 32.2941 20.9039 32.3956 21.0668 32.4422C21.2297 32.4887 21.4037 32.4775 21.5592 32.4103L24.213 31.2622C24.3125 31.2191 24.4012 31.1545 24.4727 31.0731C24.5442 30.9916 24.5967 30.8953 24.6265 30.7911C24.6562 30.6869 24.6625 30.5773 24.6448 30.4704C24.6271 30.3635 24.5859 30.2618 24.5242 30.1727L23.6136 28.858C24.0796 28.5637 24.4169 28.104 24.5577 27.5711C24.6985 27.0383 24.6324 26.472 24.3726 25.9859L24.3538 25.9503L24.7376 25.7843L28.5603 26.6064C28.6109 26.6176 28.6624 26.6231 28.7142 26.6229C28.8356 26.6229 28.9552 26.5928 29.0621 26.5351C29.169 26.4774 29.2599 26.3941 29.3266 26.2925C29.3933 26.191 29.4337 26.0745 29.4442 25.9534C29.4546 25.8324 29.4348 25.7107 29.3865 25.5992L24.7944 14.9837ZM16.0331 25.0764C15.8954 24.758 15.8217 24.4156 15.8163 24.0688C15.8109 23.722 15.8738 23.3775 16.0016 23.055C16.1293 22.7325 16.3193 22.4383 16.5607 22.1892C16.8022 21.9402 17.0903 21.7411 17.4087 21.6034L21.6007 19.7888L23.6981 24.6373L19.5053 26.4508C18.8608 26.7207 18.1372 26.7322 17.4845 26.4831C17.1616 26.3562 16.867 26.1666 16.6179 25.9251C16.3688 25.6836 16.17 25.3952 16.0331 25.0764ZM21.5284 30.8268L19.558 27.9827C19.7377 27.9302 19.9145 27.8676 20.0873 27.7953L20.8628 27.4598L22.8105 30.2718L21.5284 30.8268ZM23.0785 26.6723C23.1263 26.7613 23.1549 26.8594 23.1624 26.9602C23.17 27.0609 23.1564 27.1622 23.1224 27.2574C23.0606 27.4268 22.9371 27.5666 22.7766 27.6489L22.2346 26.8666L23.0048 26.5335L23.0785 26.6723ZM25.1845 24.3817L22.8047 18.8807L24.0148 16.8723L27.4771 24.8747L25.1845 24.3817Z" fill="#ED1C27"/>
<path d="M27.5153 20.1084C27.5928 20.2864 27.7378 20.4265 27.9184 20.4979C28.099 20.5693 28.3006 20.5662 28.4789 20.4893L31.1327 19.3405C31.3111 19.2633 31.4514 19.1184 31.5229 18.9377C31.5944 18.757 31.5912 18.5553 31.514 18.3769C31.4368 18.1986 31.2919 18.0582 31.1112 17.9867C30.9305 17.9152 30.7288 17.9184 30.5504 17.9956L27.8966 19.1445C27.7183 19.2218 27.578 19.3668 27.5065 19.5475C27.435 19.7282 27.4382 19.93 27.5153 20.1084Z" fill="#ED1C27"/>
<path d="M27.8257 18.0324L29.4631 15.7484C29.5763 15.5906 29.6222 15.3942 29.5907 15.2025C29.5592 15.0108 29.4528 14.8395 29.295 14.7262C29.2168 14.6701 29.1284 14.63 29.0347 14.6081C28.941 14.5862 28.844 14.583 28.749 14.5986C28.5573 14.6301 28.386 14.7365 28.2728 14.8943L26.6354 17.1783C26.5221 17.3362 26.4762 17.5326 26.5078 17.7242C26.5393 17.9159 26.6457 18.0873 26.8035 18.2005C26.9614 18.3138 27.1577 18.3597 27.3494 18.3282C27.5411 18.2967 27.7125 18.1903 27.8257 18.0324Z" fill="#ED1C27"/>
<path d="M28.4186 21.9318C28.4058 22.0271 28.412 22.1241 28.4367 22.217C28.4615 22.31 28.5043 22.3972 28.5628 22.4736C28.6212 22.55 28.6942 22.6141 28.7774 22.6623C28.8607 22.7105 28.9526 22.7418 29.048 22.7544L31.8335 23.125C31.8658 23.1292 31.8983 23.1314 31.9308 23.1314C32.1166 23.1311 32.2953 23.0603 32.4308 22.9332C32.5663 22.8061 32.6484 22.6323 32.6606 22.4469C32.6728 22.2616 32.6141 22.0785 32.4964 21.9348C32.3787 21.7911 32.2108 21.6974 32.0266 21.6729L29.2412 21.3023C29.0486 21.2767 28.8538 21.3286 28.6995 21.4467C28.5452 21.5647 28.4442 21.7392 28.4186 21.9318Z" fill="#ED1C27"/>
<path d="M41.0862 6.65878C41.5208 6.65878 41.9456 6.5299 42.307 6.28843C42.6684 6.04697 42.9501 5.70377 43.1164 5.30223C43.2827 4.90069 43.3262 4.45885 43.2414 4.03258C43.1566 3.60631 42.9473 3.21475 42.64 2.90743C42.3327 2.6001 41.9411 2.39081 41.5149 2.30602C41.0886 2.22123 40.6468 2.26475 40.2452 2.43107C39.8437 2.59739 39.5005 2.87905 39.259 3.24043C39.0176 3.6018 38.8887 4.02666 38.8887 4.46129C38.8893 5.0439 39.121 5.60247 39.533 6.01444C39.945 6.42641 40.5035 6.65814 41.0862 6.65878ZM41.0862 3.72879C41.231 3.72879 41.3727 3.77175 41.4931 3.85224C41.6136 3.93272 41.7075 4.04713 41.7629 4.18097C41.8183 4.31482 41.8328 4.4621 41.8046 4.60419C41.7763 4.74628 41.7066 4.8768 41.6041 4.97924C41.5017 5.08168 41.3712 5.15144 41.2291 5.17971C41.087 5.20797 40.9397 5.19347 40.8058 5.13803C40.672 5.08258 40.5576 4.9887 40.4771 4.86824C40.3966 4.74778 40.3537 4.60616 40.3537 4.46129C40.3538 4.26705 40.431 4.08081 40.5683 3.94346C40.7057 3.80612 40.8919 3.72891 41.0862 3.72879Z" fill="#ED1C27"/>
<path d="M5.92601 37.4236C5.49138 37.4236 5.06652 37.5525 4.70515 37.7939C4.34377 38.0354 4.06211 38.3786 3.89579 38.7801C3.72947 39.1817 3.68595 39.6235 3.77074 40.0498C3.85553 40.4761 4.06482 40.8676 4.37215 41.1749C4.67947 41.4823 5.07103 41.6916 5.4973 41.7763C5.92357 41.8611 6.36541 41.8176 6.76695 41.6513C7.16849 41.485 7.51169 41.2033 7.75315 40.8419C7.99462 40.4806 8.1235 40.0557 8.1235 39.6211C8.12286 39.0385 7.89113 38.4799 7.47916 38.0679C7.06719 37.6559 6.50862 37.4242 5.92601 37.4236ZM5.92601 40.3536C5.78113 40.3536 5.63951 40.3106 5.51905 40.2301C5.3986 40.1496 5.30471 40.0352 5.24927 39.9014C5.19383 39.7675 5.17932 39.6203 5.20759 39.4782C5.23585 39.3361 5.30561 39.2056 5.40805 39.1031C5.5105 39.0007 5.64101 38.9309 5.7831 38.9027C5.92519 38.8744 6.07248 38.8889 6.20632 38.9443C6.34017 38.9998 6.45457 39.0937 6.53506 39.2141C6.61554 39.3346 6.6585 39.4762 6.6585 39.6211C6.65839 39.8153 6.58118 40.0016 6.44383 40.1389C6.30649 40.2762 6.12024 40.3535 5.92601 40.3536Z" fill="#ED1C27"/>
<path d="M41.0861 35.2261C39.7761 35.2262 38.5043 35.6678 37.4762 36.4797L33.3035 32.307C35.4807 29.8979 36.6877 26.7673 36.6911 23.5201C36.6946 20.2729 35.4942 17.1398 33.322 14.7261L37.5005 10.5477C38.5232 11.3507 39.7859 11.7868 41.0861 11.7862C42.4184 11.7928 43.7135 11.3475 44.76 10.523C45.8065 9.69845 46.5425 8.54348 46.8478 7.24666C47.1531 5.94985 47.0097 4.58783 46.441 3.38304C45.8722 2.17825 44.9118 1.2019 43.7166 0.613418C42.5213 0.0249413 41.1618 -0.140879 39.8602 0.143037C38.5585 0.426954 37.3916 1.14383 36.5499 2.17659C35.7083 3.20935 35.2417 4.49696 35.2263 5.82915C35.211 7.16133 35.6478 8.45936 36.4654 9.51124L32.2865 13.6901C29.8842 11.5223 26.7635 10.3219 23.5277 10.3212H23.5062C20.263 10.3169 17.1339 11.5176 14.7261 13.6903L10.5458 9.51007C11.4661 8.32625 11.9005 6.83615 11.7606 5.34325C11.6207 3.85034 10.917 2.46691 9.79273 1.47471C8.6685 0.482511 7.20834 -0.0438385 5.70962 0.00286163C4.2109 0.0495617 2.78634 0.665799 1.72607 1.72607C0.665799 2.78634 0.0495617 4.2109 0.00286163 5.70962C-0.0438385 7.20834 0.482511 8.6685 1.47471 9.79273C2.46691 10.917 3.85034 11.6207 5.34325 11.7606C6.83615 11.9005 8.32625 11.4661 9.51007 10.5458L13.6901 14.7259C11.518 17.1396 10.3178 20.2728 10.3212 23.52C10.3247 26.7672 11.5318 29.8978 13.709 32.3068L9.53622 36.4797C8.35806 35.5536 6.87121 35.1114 5.37847 35.2432C3.88573 35.375 2.49936 36.0709 1.5017 37.1891C0.504034 38.3072 -0.0298919 39.7637 0.00865459 41.2617C0.0472011 42.7598 0.655321 44.1868 1.70917 45.2522C2.76302 46.3176 4.18334 46.9412 5.68088 46.996C7.17843 47.0509 8.64057 46.5329 9.76955 45.5474C10.8985 44.562 11.6094 43.1833 11.7575 41.6921C11.9055 40.2009 11.4796 38.7093 10.5664 37.5211L14.7465 33.341C17.1463 35.4973 20.2585 36.6905 23.4847 36.6911H23.5062C26.7397 36.6954 29.8603 35.5019 32.2656 33.3408L36.446 37.5211C35.6428 38.5702 35.2183 39.8602 35.2414 41.1812C35.2645 42.5022 35.7339 43.7765 36.5733 44.7968C37.4126 45.8172 38.5725 46.5235 39.8642 46.8009C41.156 47.0784 42.5036 46.9106 43.6879 46.3249C44.8721 45.7391 45.8234 44.7699 46.3868 43.5749C46.9503 42.3799 47.0929 41.0294 46.7914 39.743C46.4898 38.4567 45.7619 37.3102 44.7261 36.4901C43.6902 35.67 42.4073 35.2245 41.0861 35.2261ZM41.0861 10.3043C40.2736 10.3116 39.4755 10.0893 38.7837 9.66287C39.443 9.15308 40.2528 8.8765 41.0861 8.8765C41.9195 8.8765 42.7293 9.15308 43.3885 9.66287C42.6969 10.0896 41.8987 10.3119 41.0861 10.3043ZM41.0861 1.53128C41.9159 1.53047 42.7289 1.7648 43.4309 2.20711C44.1329 2.64941 44.6953 3.28159 45.0527 4.03039C45.4102 4.77919 45.5482 5.61396 45.4507 6.43796C45.3532 7.26196 45.0242 8.04147 44.5018 8.68616C43.5596 7.85186 42.3446 7.39126 41.0861 7.39126C39.8276 7.39126 38.6126 7.85186 37.6704 8.68616C37.148 8.04147 36.819 7.26196 36.7215 6.43796C36.624 5.61396 36.762 4.77919 37.1195 4.03039C37.477 3.28159 38.0393 2.64941 38.7413 2.20711C39.4434 1.7648 40.2564 1.53047 41.0861 1.53128ZM1.53128 5.92626C1.53036 5.22273 1.69834 4.52926 2.02112 3.90414C2.34389 3.27902 2.81201 2.74053 3.38614 2.33392C3.96027 1.92731 4.62362 1.66447 5.32043 1.56749C6.01725 1.47051 6.72716 1.54223 7.3905 1.77662C8.05383 2.01101 8.65121 2.40122 9.13241 2.91445C9.61361 3.42767 9.96456 4.04892 10.1558 4.72597C10.347 5.40301 10.3729 6.11607 10.2313 6.8052C10.0897 7.49432 9.78468 8.13939 9.34196 8.68616C8.39461 7.86039 7.18295 7.40104 5.92626 7.39125C4.66957 7.40104 3.4579 7.86039 2.51055 8.68616C1.87656 7.90612 1.53072 6.93145 1.53128 5.92626ZM5.92626 10.3043C5.1137 10.3116 4.3156 10.0893 3.62387 9.66287C4.28311 9.15308 5.0929 8.8765 5.92626 8.8765C6.75961 8.8765 7.5694 9.15308 8.22864 9.66287C7.53704 10.0896 6.73886 10.3119 5.92626 10.3043ZM5.92626 45.4642C5.1137 45.4715 4.3156 45.2491 3.62387 44.8227C4.28311 44.3129 5.0929 44.0364 5.92626 44.0364C6.75961 44.0364 7.5694 44.3129 8.22864 44.8227C7.53704 45.2494 6.73886 45.4718 5.92626 45.4642ZM9.34196 43.846C8.39461 43.0202 7.18295 42.5609 5.92626 42.5511C4.66957 42.5609 3.4579 43.0202 2.51055 43.846C1.98821 43.2009 1.65924 42.4211 1.56172 41.5967C1.46419 40.7724 1.60209 39.9374 1.95947 39.1882C2.31684 38.439 2.87907 37.8063 3.58109 37.3634C4.2831 36.9204 5.09619 36.6854 5.92626 36.6854C6.75632 36.6854 7.56941 36.9204 8.27143 37.3634C8.97344 37.8063 9.53567 38.439 9.89305 39.1882C10.2504 39.9374 10.3883 40.7724 10.2908 41.5967C10.1933 42.4211 9.8643 43.2009 9.34196 43.846ZM23.4876 35.2261C20.3793 35.2237 17.3992 33.9865 15.203 31.7869C13.0069 29.5872 11.7745 26.6052 11.7769 23.4969C11.7794 20.3886 13.0165 17.4085 15.2162 15.2123C17.4159 13.0162 20.3979 11.7838 23.5062 11.7862H23.5248C26.6331 11.7887 29.6132 13.0258 31.8093 15.2255C34.0055 17.4252 35.2379 20.4072 35.2354 23.5155C35.233 26.6238 33.9958 29.6038 31.7962 31.8C29.5965 33.9962 26.6145 35.2286 23.5062 35.2261H23.4876ZM41.0861 45.4642C40.2736 45.4715 39.4755 45.2491 38.7837 44.8227C39.443 44.3129 40.2528 44.0364 41.0861 44.0364C41.9195 44.0364 42.7293 44.3129 43.3885 44.8227C42.6969 45.2494 41.8987 45.4718 41.0861 45.4642ZM44.5018 43.846C43.5596 43.0117 42.3446 42.5511 41.0861 42.5511C39.8276 42.5511 38.6126 43.0117 37.6704 43.846C37.1481 43.2009 36.8191 42.4211 36.7216 41.5967C36.624 40.7724 36.762 39.9374 37.1193 39.1882C37.4767 38.439 38.0389 37.8063 38.7409 37.3634C39.443 36.9204 40.2561 36.6854 41.0861 36.6854C41.9162 36.6854 42.7293 36.9204 43.4313 37.3634C44.1333 37.8063 44.6955 38.439 45.0529 39.1882C45.4103 39.9374 45.5482 40.7724 45.4507 41.5967C45.3531 42.4211 45.0242 43.2009 44.5018 43.846Z" fill="#ED1C27"/>
<path d="M41.0862 37.4236C40.6515 37.4236 40.2267 37.5525 39.8653 37.7939C39.5039 38.0354 39.2223 38.3786 39.0559 38.7801C38.8896 39.1817 38.8461 39.6235 38.9309 40.0498C39.0157 40.4761 39.225 40.8676 39.5323 41.1749C39.8396 41.4823 40.2312 41.6916 40.6575 41.7763C41.0837 41.8611 41.5256 41.8176 41.9271 41.6513C42.3286 41.485 42.6718 41.2033 42.9133 40.8419C43.1548 40.4806 43.2837 40.0557 43.2837 39.6211C43.283 39.0385 43.0513 38.4799 42.6393 38.0679C42.2273 37.6559 41.6688 37.4242 41.0862 37.4236ZM41.0862 40.3536C40.9413 40.3536 40.7997 40.3106 40.6792 40.2301C40.5588 40.1496 40.4649 40.0352 40.4094 39.9014C40.354 39.7675 40.3395 39.6203 40.3677 39.4782C40.396 39.3361 40.4658 39.2056 40.5682 39.1031C40.6707 39.0007 40.8012 38.9309 40.9433 38.9027C41.0854 38.8744 41.2326 38.8889 41.3665 38.9443C41.5003 38.9998 41.6147 39.0937 41.6952 39.2141C41.7757 39.3346 41.8187 39.4762 41.8187 39.6211C41.8185 39.8153 41.7413 40.0016 41.604 40.1389C41.4666 40.2762 41.2804 40.3535 41.0862 40.3536Z" fill="#ED1C27"/>
</svg>
