<svg width="15" height="18" viewBox="0 0 15 18" fill="none" xmlns="http://www.w3.org/2000/svg">
<path d="M10.6201 15.3979L11.636 17.0693L12.1717 15.5167L10.6201 15.3979Z" fill="#EC1C27"/>
<path d="M2.62423 6.02948C2.58616 5.99209 2.67381 6.33499 2.7958 6.45835C3.0121 6.67658 3.18106 6.7047 3.27102 6.70831C3.47009 6.71627 3.71575 6.65873 3.86164 6.59757C4.00279 6.53736 4.25013 6.41107 4.34376 6.22687C4.3636 6.18749 4.41779 6.12136 4.38376 5.958C4.35794 5.83234 4.27794 5.78835 4.1804 5.79532C4.08285 5.80192 3.78754 5.88067 3.64471 5.92459C3.50182 5.96795 3.2075 6.05753 3.07923 6.08534C2.95126 6.11309 2.66914 6.07247 2.62423 6.02948Z" fill="#EC1C27"/>
<path d="M6.24004 10.1285C6.18355 10.108 5.01488 9.6239 4.84922 9.54458C4.71367 9.47939 4.38128 9.33886 4.22489 9.27503C4.66539 8.59583 4.94347 8.08328 4.98048 8.00521C5.04898 7.86238 5.51523 6.95001 5.52612 6.89384C5.5367 6.83692 5.54995 6.62665 5.53968 6.5767C5.52942 6.52575 5.35847 6.62366 5.12636 6.70236C4.89389 6.78074 4.45207 7.06809 4.28143 7.10411C4.11017 7.13982 3.56285 7.34716 3.28279 7.4401C3.00272 7.53304 2.47295 7.69472 2.25503 7.75357C2.03679 7.81242 1.84631 7.81709 1.72425 7.8541C1.72425 7.8541 1.74049 8.02505 1.7729 8.07632C1.80494 8.12758 1.9204 8.25324 2.05465 8.28833C2.1889 8.32366 2.41111 8.30948 2.51232 8.28633C2.61348 8.26282 2.78872 8.17722 2.81223 8.13983C2.836 8.10182 2.79998 7.98474 2.83998 7.94935C2.88035 7.91432 3.41374 7.78966 3.61511 7.72881C3.81648 7.66692 4.58732 7.40141 4.69183 7.41497C4.65873 7.52477 4.03869 8.75291 3.839 9.11932C3.63925 9.48567 2.47892 11.0975 2.23188 11.3815C2.04438 11.5974 1.59001 12.15 1.43262 12.2746C1.47231 12.2856 1.75368 12.2615 1.80494 12.2297C2.12439 12.033 2.65646 11.3706 2.82779 11.1689C3.33703 10.5717 3.78445 9.94434 4.13922 9.40598H4.1396C4.20871 9.43478 4.76754 9.89009 4.91336 9.991C5.05918 10.0918 5.63461 10.4129 5.75928 10.4662C5.88395 10.5201 6.36309 10.741 6.38324 10.6662C6.4034 10.5908 6.29658 10.15 6.24004 10.1285Z" fill="#EC1C27"/>
<path fill-rule="evenodd" clip-rule="evenodd" d="M3.53978 16.2147C3.65175 16.2831 3.75751 16.3391 3.87571 16.3951C4.1121 16.5133 4.3796 16.6377 4.63466 16.731C4.98303 16.8616 5.33141 16.9674 5.67978 17.0483C5.87263 17.0918 6.08414 17.1291 6.28943 17.1602C6.30809 17.1602 6.86176 17.2287 6.97374 17.2287H7.53362C7.75135 17.21 7.95665 17.1976 8.17438 17.1665C8.34856 17.1416 8.54141 17.1105 8.72804 17.0669C8.8649 17.0358 9.00798 17.0047 9.14484 16.9612C9.27548 16.9238 9.42479 16.8741 9.56787 16.8243C9.66118 16.7932 9.76072 16.7497 9.86025 16.7123C9.94113 16.675 10.0407 16.6315 10.134 16.5941C10.246 16.5444 10.3766 16.4759 10.501 16.4137C10.6005 16.364 10.7125 16.3018 10.8183 16.2395C10.8992 16.196 11.0858 16.0529 11.1853 16.0529C11.2973 16.0529 11.3719 16.1525 11.3719 16.2395C11.3719 16.42 11.1293 16.4759 11.0173 16.5568C10.8992 16.6377 10.7561 16.6999 10.6317 16.7683C10.3828 16.899 10.1278 17.0109 9.88514 17.1043C9.56787 17.2225 9.2195 17.3344 8.90845 17.4091C8.79025 17.434 8.67205 17.4651 8.55386 17.4837C8.49165 17.4962 7.84467 17.5957 7.66426 17.5957H6.8431C6.62536 17.577 6.39519 17.5522 6.17745 17.5211C5.98461 17.49 5.77931 17.4526 5.58647 17.4091C5.43716 17.378 5.27542 17.3344 5.13234 17.2909C4.8835 17.2225 4.64088 17.1354 4.40449 17.042C3.97524 16.8803 3.52733 16.6688 3.10431 16.3888C3.02966 16.3391 3.02344 16.2893 3.02344 16.2333C3.02344 16.14 3.09187 16.0529 3.20384 16.0529C3.30338 16.0529 3.50245 16.196 3.53978 16.2147Z" fill="#EC1C27"/>
<path d="M14.9567 4.91143L13.5679 4.46941V0.413487C13.5679 0.29529 13.4808 0.214417 13.3688 0.214417C13.2817 0.214417 10.4761 1.17866 10.2521 1.25954C9.49129 1.51315 7.2953 2.27241 7.2953 2.27241C7.26009 2.28251 7.20544 2.29924 7.13379 2.32176L1.77395 0.43006C1.73348 0.415774 1.69104 0.445802 1.69104 0.488722V0.556853V4.1243C0.859667 4.40264 0.266823 4.60188 0.236396 4.61262C0.180408 4.63129 0.0933135 4.64373 0.0435463 4.71216C0.0186627 4.73704 0.0124418 4.78059 0 4.81169V15.2691C0 15.2815 0.0062209 15.2878 0.0062209 15.294C0.0435463 15.3749 0.111976 15.4246 0.186629 15.4246C0.279942 15.4246 7.28472 13.0731 7.44025 13.0109C7.44759 13.0084 7.45586 13.0027 7.464 12.996L14.9189 15.3721C14.959 15.3849 15 15.3549 15 15.3128V4.97071C15 4.94362 14.9825 4.91965 14.9567 4.91143ZM7.16031 12.7123L0.379477 14.9705V4.96722L7.16031 2.70901V12.7123ZM13.1884 0.662325V4.34863L7.58493 2.56516L13.1884 0.662325ZM12.4988 11.8902L12.1404 10.5811L10.0789 9.95629L9.63562 11.0227L8.63778 10.72L10.7559 5.52206L11.727 5.81625L13.4963 12.1928L12.4988 11.8902Z" fill="#EC1C27"/>
<path d="M10.46 8.99841L11.8202 9.41074L11.1998 7.21014L10.46 8.99841Z" fill="#EC1C27"/>
</svg>
