<svg width="20" height="14" viewBox="0 0 20 14" fill="none" xmlns="http://www.w3.org/2000/svg">
<path d="M18.1614 0H1.83859C0.82328 0 0 0.822968 0 1.83859V11.4585C0 12.4738 0.82328 13.2971 1.83859 13.2971H18.1614C19.1767 13.2971 20 12.4738 20 11.4585V1.83859C20 0.822968 19.1767 0 18.1614 0ZM4.8146 3.18757C5.8289 3.18757 6.65155 4.01019 6.65155 5.02483C6.65155 6.03944 5.8289 6.86175 4.8146 6.86175C3.79999 6.86175 2.97769 6.03944 2.97769 5.02483C2.97769 4.01019 3.79999 3.18757 4.8146 3.18757ZM4.8146 10.2781C3.55269 10.2781 2.26035 9.84107 2.46191 8.63147C2.54402 8.14022 2.9505 7.45167 3.25906 7.14311C3.29874 7.10339 3.47984 7.09311 3.52917 7.12358C3.90359 7.35432 4.34319 7.48936 4.8146 7.48936C5.28601 7.48936 5.72526 7.35432 6.09968 7.12358C6.14901 7.09311 6.33007 7.10339 6.37014 7.14311C6.67835 7.45167 7.08483 8.14022 7.16694 8.63147C7.36858 9.84107 6.0762 10.2781 4.8146 10.2781ZM14.3134 9.67557H9.07006V8.62088H14.3134V9.67557H14.3134ZM17.4486 7.08088H9.07006V6.0262H17.4486V7.08088ZM17.4486 4.4862H9.07006V3.43152H17.4486V4.4862Z" fill="#EC1C27"/>
</svg>
