<svg width="28" height="28" viewBox="0 0 28 28" fill="none" xmlns="http://www.w3.org/2000/svg">
<rect x="6.5" y="15.5" width="15" height="6" rx="1.5" stroke="#F9F9F9"/>
<rect x="6.5" y="15.5" width="15" height="6" rx="1.5" stroke="#F8F8F8"/>
<rect x="6.5" y="15.5" width="15" height="6" rx="1.5" stroke="white"/>
<rect x="6.5" y="15.5" width="15" height="6" rx="1.5" stroke="#F9FAFC"/>
<rect x="6.5" y="15.5" width="15" height="6" rx="1.5" stroke="#E8EBF5"/>
<rect x="6.5" y="15.5" width="15" height="6" rx="1.5" stroke="#FCFCFC"/>
<rect x="6.5" y="15.5" width="15" height="6" rx="1.5" stroke="#D8DBE6"/>
<rect x="6.5" y="6.5" width="15" height="6" rx="1.5" stroke="#F9F9F9"/>
<rect x="6.5" y="6.5" width="15" height="6" rx="1.5" stroke="#F8F8F8"/>
<rect x="6.5" y="6.5" width="15" height="6" rx="1.5" stroke="white"/>
<rect x="6.5" y="6.5" width="15" height="6" rx="1.5" stroke="#F9FAFC"/>
<rect x="6.5" y="6.5" width="15" height="6" rx="1.5" stroke="#E8EBF5"/>
<rect x="6.5" y="6.5" width="15" height="6" rx="1.5" stroke="#FCFCFC"/>
<rect x="6.5" y="6.5" width="15" height="6" rx="1.5" stroke="#D8DBE6"/>
</svg>
