<svg width="32" height="32" viewBox="0 0 32 32" fill="none" xmlns="http://www.w3.org/2000/svg">
<g filter="url(#filter0_d_966_169)">
<rect x="2" y="2" width="28" height="28" rx="5" fill="#F9F9F9"/>
<rect x="2" y="2" width="28" height="28" rx="5" fill="#F8F8F8"/>
<rect x="2" y="2" width="28" height="28" rx="5" fill="#F9FAFC"/>
<rect x="2" y="2" width="28" height="28" rx="5" fill="#E8EBF5"/>
<rect x="2" y="2" width="28" height="28" rx="5" fill="#D8DBE6"/>
<rect x="2" y="2" width="28" height="28" rx="5" fill="#FCFCFC"/>
<rect x="2" y="2" width="28" height="28" rx="5" fill="white"/>
<rect x="2.25" y="2.25" width="27.5" height="27.5" rx="4.75" stroke="#F9F9F9" stroke-width="0.5"/>
<rect x="2.25" y="2.25" width="27.5" height="27.5" rx="4.75" stroke="#F8F8F8" stroke-width="0.5"/>
<rect x="2.25" y="2.25" width="27.5" height="27.5" rx="4.75" stroke="white" stroke-width="0.5"/>
<rect x="2.25" y="2.25" width="27.5" height="27.5" rx="4.75" stroke="#F9FAFC" stroke-width="0.5"/>
<rect x="2.25" y="2.25" width="27.5" height="27.5" rx="4.75" stroke="#D8DBE6" stroke-width="0.5"/>
<rect x="2.25" y="2.25" width="27.5" height="27.5" rx="4.75" stroke="#FCFCFC" stroke-width="0.5"/>
<rect x="2.25" y="2.25" width="27.5" height="27.5" rx="4.75" stroke="#E8EBF5" stroke-width="0.5"/>
</g>
<rect x="8.5" y="17.5" width="15" height="6" rx="1.5" stroke="#1C1E25"/>
<rect x="8.5" y="17.5" width="15" height="6" rx="1.5" stroke="#C3DCFF"/>
<rect x="8.5" y="17.5" width="15" height="6" rx="1.5" stroke="#EDF5FF"/>
<rect x="8.5" y="17.5" width="15" height="6" rx="1.5" stroke="#77819C"/>
<rect x="8.5" y="17.5" width="15" height="6" rx="1.5" stroke="#071437"/>
<rect x="8.5" y="17.5" width="15" height="6" rx="1.5" stroke="#4B5675"/>
<rect x="8.5" y="17.5" width="15" height="6" rx="1.5" stroke="#056EE9"/>
<rect x="8.5" y="17.5" width="15" height="6" rx="1.5" stroke="#252F4A"/>
<rect x="8.5" y="17.5" width="15" height="6" rx="1.5" stroke="#78829D"/>
<rect x="8.5" y="8.5" width="15" height="6" rx="1.5" stroke="#1C1E25"/>
<rect x="8.5" y="8.5" width="15" height="6" rx="1.5" stroke="#C3DCFF"/>
<rect x="8.5" y="8.5" width="15" height="6" rx="1.5" stroke="#EDF5FF"/>
<rect x="8.5" y="8.5" width="15" height="6" rx="1.5" stroke="#77819C"/>
<rect x="8.5" y="8.5" width="15" height="6" rx="1.5" stroke="#071437"/>
<rect x="8.5" y="8.5" width="15" height="6" rx="1.5" stroke="#4B5675"/>
<rect x="8.5" y="8.5" width="15" height="6" rx="1.5" stroke="#056EE9"/>
<rect x="8.5" y="8.5" width="15" height="6" rx="1.5" stroke="#252F4A"/>
<rect x="8.5" y="8.5" width="15" height="6" rx="1.5" stroke="#78829D"/>
<defs>
<filter id="filter0_d_966_169" x="0.0999999" y="0.0999999" width="31.8" height="31.8" filterUnits="userSpaceOnUse" color-interpolation-filters="sRGB">
<feFlood flood-opacity="0" result="BackgroundImageFix"/>
<feColorMatrix in="SourceAlpha" type="matrix" values="0 0 0 0 0 0 0 0 0 0 0 0 0 0 0 0 0 0 127 0" result="hardAlpha"/>
<feMorphology radius="1" operator="erode" in="SourceAlpha" result="effect1_dropShadow_966_169"/>
<feOffset/>
<feGaussianBlur stdDeviation="1.45"/>
<feComposite in2="hardAlpha" operator="out"/>
<feColorMatrix type="matrix" values="0 0 0 0 0 0 0 0 0 0 0 0 0 0 0 0 0 0 0.25 0"/>
<feBlend mode="normal" in2="BackgroundImageFix" result="effect1_dropShadow_966_169"/>
<feBlend mode="normal" in="SourceGraphic" in2="effect1_dropShadow_966_169" result="shape"/>
</filter>
</defs>
</svg>
