<svg width="18" height="23" viewBox="0 0 18 23" fill="none" xmlns="http://www.w3.org/2000/svg">
<path d="M9 17.2073C4.02958 17.2073 0 18.4348 0 19.9481C0 21.4615 4.02958 22.689 9 22.689C13.9704 22.689 18 21.4622 18 19.9481C18 18.434 13.9704 17.2073 9 17.2073ZM13.5015 20.7324C12.3043 21.0969 10.7055 21.2981 9 21.2981C7.29454 21.2981 5.69571 21.0969 4.49849 20.7324C3.2695 20.358 2.83387 19.9194 2.83387 19.6569C2.83387 19.3945 3.2695 18.9558 4.49849 18.5815C5.69647 18.2169 7.29454 18.0158 9 18.0158C10.7047 18.0158 12.3035 18.2169 13.5008 18.5815C14.729 18.9558 15.1654 19.3945 15.1654 19.6569C15.1654 19.9194 14.7297 20.358 13.5008 20.7324H13.5015Z" fill="#EC1C27"/>
<path d="M9.02762 0C5.15384 0 2.01367 3.14017 2.01367 7.01395C2.01367 7.6795 2.10821 8.32311 2.28216 8.93269C2.3888 9.30857 2.50527 9.68143 2.68981 10.0187C4.12829 12.6522 9.02838 20.2107 9.02838 20.2107C9.02838 20.2107 13.9285 12.6522 15.3669 10.0187C15.5507 9.68143 15.668 9.30857 15.7746 8.93269C15.9478 8.32235 16.0423 7.6795 16.0423 7.01395C16.0423 3.14017 12.9014 0 9.02762 0ZM9.02762 10.1027C8.04972 10.1027 7.17619 9.64513 6.61048 8.93344C6.19073 8.4063 5.93964 7.73924 5.93964 7.01471C5.93964 5.31151 7.32518 3.92597 9.02838 3.92597C10.7316 3.92597 12.1171 5.31151 12.1171 7.01471C12.1171 7.73924 11.8653 8.4063 11.4463 8.93344C10.8798 9.64513 10.007 10.1027 9.02913 10.1027H9.02762Z" fill="#EC1C27"/>
</svg>
