<svg width="22" height="22" viewBox="0 0 22 22" fill="none" xmlns="http://www.w3.org/2000/svg">
<path d="M21.7913 20.8034L16.1113 15.2139C17.5988 13.5976 18.5126 11.4605 18.5126 9.10883C18.5118 4.07793 14.3678 0 9.25574 0C4.14366 0 0 4.07793 0 9.10883C0 14.1397 4.14402 18.2177 9.2561 18.2177C11.4651 18.2177 13.4907 17.4538 15.0821 16.1834L20.7841 21.7948C21.062 22.0684 21.5131 22.0684 21.791 21.7948C22.0696 21.5213 22.0696 21.077 21.7917 20.803L21.7913 20.8034Z" fill="#071437"/>
<path d="M21.7913 20.8034L16.1113 15.2139C17.5988 13.5976 18.5126 11.4605 18.5126 9.10883C18.5118 4.07793 14.3678 0 9.25574 0C4.14366 0 0 4.07793 0 9.10883C0 14.1397 4.14402 18.2177 9.2561 18.2177C11.4651 18.2177 13.4907 17.4538 15.0821 16.1834L20.7841 21.7948C21.062 22.0684 21.5131 22.0684 21.791 21.7948C22.0696 21.5213 22.0696 21.077 21.7917 20.803L21.7913 20.8034Z" fill="#056EE9"/>
<path d="M21.7913 20.8034L16.1113 15.2139C17.5988 13.5976 18.5126 11.4605 18.5126 9.10883C18.5118 4.07793 14.3678 0 9.25574 0C4.14366 0 0 4.07793 0 9.10883C0 14.1397 4.14402 18.2177 9.2561 18.2177C11.4651 18.2177 13.4907 17.4538 15.0821 16.1834L20.7841 21.7948C21.062 22.0684 21.5131 22.0684 21.791 21.7948C22.0696 21.5213 22.0696 21.077 21.7917 20.803L21.7913 20.8034Z" fill="#252F4A"/>
<path d="M21.7913 20.8034L16.1113 15.2139C17.5988 13.5976 18.5126 11.4605 18.5126 9.10883C18.5118 4.07793 14.3678 0 9.25574 0C4.14366 0 0 4.07793 0 9.10883C0 14.1397 4.14402 18.2177 9.2561 18.2177C11.4651 18.2177 13.4907 17.4538 15.0821 16.1834L20.7841 21.7948C21.062 22.0684 21.5131 22.0684 21.791 21.7948C22.0696 21.5213 22.0696 21.077 21.7917 20.803L21.7913 20.8034Z" fill="#4B5675"/>
<path d="M9.16634 16.4999C13.2164 16.4999 16.4997 13.2167 16.4997 9.16659C16.4997 5.1165 13.2164 1.83325 9.16634 1.83325C5.11625 1.83325 1.83301 5.1165 1.83301 9.16659C1.83301 13.2167 5.11625 16.4999 9.16634 16.4999Z" fill="#D8DBE6"/>
<path d="M9.16634 16.4999C13.2164 16.4999 16.4997 13.2167 16.4997 9.16659C16.4997 5.1165 13.2164 1.83325 9.16634 1.83325C5.11625 1.83325 1.83301 5.1165 1.83301 9.16659C1.83301 13.2167 5.11625 16.4999 9.16634 16.4999Z" fill="#E8EBF5"/>
<path d="M9.16634 16.4999C13.2164 16.4999 16.4997 13.2167 16.4997 9.16659C16.4997 5.1165 13.2164 1.83325 9.16634 1.83325C5.11625 1.83325 1.83301 5.1165 1.83301 9.16659C1.83301 13.2167 5.11625 16.4999 9.16634 16.4999Z" fill="#F9FAFC"/>
</svg>
